<?xml version="1.0" encoding="utf-8"?>
<!-- Generator: Adobe Illustrator 16.0.0, SVG Export Plug-In . SVG Version: 6.00 Build 0)  -->
<!DOCTYPE svg PUBLIC "-//W3C//DTD SVG 1.1//EN" "http://www.w3.org/Graphics/SVG/1.1/DTD/svg11.dtd">
<svg version="1.1" id="Layer_1" xmlns="http://www.w3.org/2000/svg" xmlns:xlink="http://www.w3.org/1999/xlink" x="0px" y="0px"
	 width="1920px" height="1080px" viewBox="0 0 1920 1080" enable-background="new 0 0 1920 1080" xml:space="preserve">
<g>
	<linearGradient id="SVGID_1_" gradientUnits="userSpaceOnUse" x1="397.3813" y1="445.1958" x2="2055.7048" y2="445.1958">
		<stop  offset="0" style="stop-color:#FFFFFF"/>
		<stop  offset="0.518" style="stop-color:#FA9B23"/>
		<stop  offset="0.8208" style="stop-color:#F76320"/>
		<stop  offset="1" style="stop-color:#F14121"/>
	</linearGradient>
	<path fill="url(#SVGID_1_)" d="M1880.516,0H575.442c31.789,17.1,69.995,47.683,92.028,101.025
		c31.096,75.288,29.978,161.318,68.849,233.727l2.822,1.164c14.197,24.972,33.444,48.225,60.784,68.73
		c107.76,80.82,244.33,154.677,269.398,289.605c35.17,189.327,356.954,258.172,516.349,132.453
		c50.099-39.517,123.475-91.001,123.475-91.001c67.67-48.126,109.059-64.349,186.246-73.43c8.533-1.004,16.607-2.68,24.607-4.925
		V39.663c0-10.952,0-26.52,0-39.663C1907.532,0,1891.467,0,1880.516,0z"/>
	<circle fill="#FA9B23" cx="685.429" cy="168.921" r="29.185"/>
	<circle opacity="0.5" fill="#838383" cx="1111.979" cy="871.604" r="29.185"/>
	<circle fill="#838383" cx="662.981" cy="254.231" r="11.226"/>
	<path fill="#FA9B23" d="M1080.549,802.011c0,6.198-5.025,11.224-11.226,11.224c-6.199,0-11.225-5.025-11.225-11.224
		c0-6.202,5.025-11.226,11.225-11.226C1075.523,790.785,1080.549,795.809,1080.549,802.011z"/>
	<circle fill="#F14121" cx="1843.847" cy="712.21" r="11.225"/>
	<circle opacity="0.5" fill="#FA9B23" cx="1795.955" cy="347.774" r="5.987"/>
	<path fill="#FFFFFF" d="M1776.498,461.517c-3.308,0-5.987-2.675-5.987-5.981c0-3.306,2.68-5.99,5.987-5.99
		c3.305,0,5.984,2.684,5.984,5.99C1782.482,458.842,1779.803,461.517,1776.498,461.517z"/>
	<path opacity="0.8" fill="#FA9B23" d="M1861.807,562.541c-7.025,0-12.721-5.69-12.721-12.716c0-7.029,5.695-12.725,12.721-12.725
		c7.024,0,12.719,5.695,12.719,12.725C1874.525,556.851,1868.831,562.541,1861.807,562.541z"/>
	<path opacity="0.7" fill="#FFFFFF" d="M768.495,176.403c-7.025,0-12.726-5.695-12.726-12.719c0-7.027,5.701-12.723,12.726-12.723
		c7.023,0,12.725,5.696,12.725,12.723C781.22,170.708,775.518,176.403,768.495,176.403z"/>
</g>
</svg>
