<?xml version="1.0" encoding="utf-8"?>
<!-- Generator: Adobe Illustrator 16.0.0, SVG Export Plug-In . SVG Version: 6.00 Build 0)  -->
<!DOCTYPE svg PUBLIC "-//W3C//DTD SVG 1.1//EN" "http://www.w3.org/Graphics/SVG/1.1/DTD/svg11.dtd">
<svg version="1.1" id="Layer_1" xmlns="http://www.w3.org/2000/svg" xmlns:xlink="http://www.w3.org/1999/xlink" x="0px" y="0px"
	 width="1920px" height="1080px" viewBox="0 0 1920 1080" enable-background="new 0 0 1920 1080" xml:space="preserve">
<g display="none">
	<g id="Logo_HD_2_" display="inline">
		<g id="Forma_1_4_">
			<g>
				<path fill="#F14121" d="M2080.965,47.391c-6.697-7.843-13.587-5.937-13.587-5.937s-4.268,8.585,1.845,16.269
					c0.562,0.706,1.135,1.328,1.701,1.883c0.529-0.048,1.238-0.025,2.182,0.107c-0.718-0.625-1.438-1.368-2.147-2.263
					c-5.228-6.568-1.821-13.739-1.821-13.739s5.207-1.09,10.66,4.837c2.582,2.808,4.549,7.146,2.756,13.996
					c0,0-0.938,0.271-2.396,0.197c0.002,0.002,0.006,0.004,0.009,0.005c0.714,0.384,1.367,0.666,1.819,0.952
					c0.687-0.09,1.086-0.213,1.086-0.213C2085.6,55.465,2083.861,50.785,2080.965,47.391z"/>
			</g>
		</g>
		<g id="Forma_1_copia_5_4_">
			<g>
				<path fill="#F14121" d="M2097.762,41.464c0,0-6.886-1.909-13.574,5.943c-2.896,3.397-4.631,8.082-2.101,16.109
					c0,0,0.399,0.124,1.087,0.214c0.451-0.286,1.105-0.568,1.821-0.953c0.003-0.001,0.007-0.003,0.009-0.005
					c-1.46,0.075-2.396-0.197-2.396-0.197c-1.793-6.857,0.175-11.2,2.752-14.01c5.447-5.935,10.647-4.843,10.647-4.843
					s3.403,7.179-1.815,13.753c-0.711,0.896-1.433,1.64-2.146,2.265c0.939-0.132,1.646-0.155,2.179-0.106
					c0.571-0.557,1.144-1.179,1.701-1.886C2102.025,50.058,2097.762,41.464,2097.762,41.464z"/>
			</g>
		</g>
		<g id="Forma_1_copia_3_4_">
			<g>
				<path fill="#F76320" d="M2093.593,51.629c-4.323,1.083-8.45,3.888-11.042,11.894c0,0,4.691,6.2,14.604,3.349
					c9.422-2.71,10.932-12.188,10.932-12.188S2103.588,49.128,2093.593,51.629z M2095.902,65.645
					c-8.473,2.437-12.385-2.585-12.385-2.585c2.516-6.625,6.629-9.018,10.354-9.806c7.873-1.664,11.477,2.25,11.477,2.25
					S2103.961,63.327,2095.902,65.645z"/>
			</g>
		</g>
		<g id="Forma_1_copia_4_4_">
			<g>
				<path fill="#F76320" d="M2071.533,51.629c-10.006-2.499-14.508,3.053-14.508,3.053s1.509,9.468,10.939,12.177
					c9.923,2.848,14.619-3.345,14.619-3.345C2079.994,55.512,2075.863,52.711,2071.533,51.629z M2069.223,65.632
					c-8.068-2.315-9.457-10.132-9.457-10.132s3.605-3.91,11.484-2.248c3.73,0.788,7.854,3.178,10.369,9.797
					C2081.619,63.049,2077.704,68.066,2069.223,65.632z"/>
			</g>
		</g>
		<g id="Forma_2_4_">
			<g>
				<path fill="#F14121" d="M2089.881,45.416c-1.356-5.746-7.293-8.939-7.293-8.939s-5.791,3.62-6.979,8.939
					c-0.916,4.105-1.021,7.371-1.021,7.371l2.117,1.333c0,0-0.275-5.405,1.334-9.332c1.296-3.166,4.547-5.331,4.547-5.331
					s2.539,1.256,4.706,5.331c2.054,3.868,1.411,9.568,1.411,9.568l1.803-1.726C2090.508,52.63,2090.842,49.473,2089.881,45.416z"/>
			</g>
		</g>
		<g id="Forma_1_copia_2_4_">
			<g>
				<path fill="#FA9B23" d="M2066.712,60.352c-9.608,3.713-10.077,10.831-10.077,10.831s6.695,6.859,15.957,3.646
					c9.739-3.38,9.996-11.132,9.996-11.132C2075.855,58.657,2070.866,58.746,2066.712,60.352z M2072.904,73.107
					c-7.919,2.748-13.563-2.832-13.563-2.832s0.688-5.263,8.074-8.437c3.502-1.504,8.241-1.92,14.116,2.035
					C2081.531,63.874,2081.232,70.217,2072.904,73.107z"/>
			</g>
		</g>
		<g id="Forma_1_copia_4_">
			<g>
				<path fill="#FA9B23" d="M2098.429,60.314c-4.155-1.609-9.146-1.698-15.88,3.351c0,0,0.258,7.77,9.999,11.157
					c9.265,3.22,15.958-3.654,15.958-3.654S2108.033,64.034,2098.429,60.314z M2092.232,73.096
					c-8.326-2.896-8.625-9.252-8.625-9.252c5.873-3.963,10.609-3.546,14.111-2.04c7.395,3.182,8.075,8.455,8.075,8.455
					S2100.153,75.85,2092.232,73.096z"/>
			</g>
		</g>
	</g>
	<g display="inline">
		
			<linearGradient id="SVGID_1_" gradientUnits="userSpaceOnUse" x1="1831.3838" y1="-86.4482" x2="3479.3574" y2="-86.4482" gradientTransform="matrix(1 0 0 1 546 528)">
			<stop  offset="0" style="stop-color:#FFFFFF"/>
			<stop  offset="0.518" style="stop-color:#FA9B23"/>
			<stop  offset="0.8208" style="stop-color:#F76320"/>
			<stop  offset="1" style="stop-color:#F14121"/>
		</linearGradient>
		<path fill="url(#SVGID_1_)" d="M3851.552-0.5H2554.334c31.598,16,69.574,46.921,91.475,99.942
			c30.908,74.834,29.801,160.109,68.438,232.083l2.805,1.036c14.111,24.821,33.242,47.874,60.419,68.26
			c107.11,80.333,242.858,153.717,267.776,287.832c34.959,188.188,354.805,256.604,513.24,131.642
			c49.797-39.279,122.729-90.462,122.729-90.462c67.264-47.836,108.253-63.965,184.979-72.99c8.479-0.998,16.31-2.667,24.31-4.896
			V37.974C3890.5,16.199,3873.32-0.5,3851.552-0.5z"/>
		<circle fill="#F14121" cx="2663.659" cy="166.454" r="29.009"/>
		<circle opacity="0.5" fill="#838383" enable-background="new    " cx="3087.641" cy="864.907" r="29.009"/>
		<circle fill="#838383" cx="2641.345" cy="251.25" r="11.159"/>
		<path fill="#FA9B23" d="M3056.4,795.732c0,6.158-4.996,11.152-11.158,11.152s-11.158-4.994-11.158-11.152
			c0-6.165,4.996-11.157,11.158-11.157C3051.405,784.575,3056.4,789.567,3056.4,795.732z"/>
		<circle fill="#F14121" cx="3815.104" cy="706.472" r="11.158"/>
		<path opacity="0.5" fill="#FA9B23" enable-background="new    " d="M3773.451,344.23c0,3.283-2.668,5.946-5.955,5.946
			c-3.286,0-5.947-2.663-5.947-5.946c0-3.286,2.661-5.951,5.947-5.951C3770.783,338.279,3773.451,340.944,3773.451,344.23z"/>
		<path fill="#FFFFFF" d="M3748.16,457.288c-3.289,0-5.952-2.659-5.952-5.945c0-3.287,2.663-5.955,5.952-5.955
			c3.285,0,5.947,2.668,5.947,5.955C3754.107,454.629,3751.445,457.288,3748.16,457.288z"/>
		<path opacity="0.8" fill="#FA9B23" enable-background="new    " d="M3832.954,557.705c-6.981,0-12.644-5.657-12.644-12.64
			c0-6.987,5.662-12.648,12.644-12.648c6.983,0,12.644,5.662,12.644,12.648C3845.597,552.048,3839.938,557.705,3832.954,557.705z"/>
		<path opacity="0.7" fill="#FFFFFF" enable-background="new    " d="M2746.225,173.892c-6.979,0-12.646-5.661-12.646-12.643
			c0-6.984,5.665-12.646,12.646-12.646c6.981,0,12.648,5.662,12.648,12.646C2758.873,168.23,2753.205,173.892,2746.225,173.892z"/>
	</g>
	<g display="inline">
		
			<image overflow="visible" enable-background="new    " width="805" height="306" id="GLAMMY_1_" xlink:href="1187936C1F3B88DF.png"  transform="matrix(0.1753 0 0 0.1753 2120.7656 39.5312)">
		</image>
		<rect x="2116.5" y="80.5" fill="#FFFFFF" width="150" height="12"/>
	</g>
	<rect x="2058.872" y="237.842" display="inline" fill="none" width="631.552" height="126.788"/>
	
		<text transform="matrix(1 0 0 1 2058.8721 280.3301)" display="inline" fill="#FA9B23" font-family="'Poppins-Bold'" font-size="57.4167">Más éxito para </text>
	
		<text transform="matrix(1 0 0 1 2058.8721 349.2295)" display="inline" fill="#FA9B23" font-family="'Poppins-Bold'" font-size="57.4167">tu evento</text>
	<rect x="2058.868" y="414.934" display="inline" fill="none" width="540.646" height="337.311"/>
	
		<text transform="matrix(1 0 0 1 2058.8682 436.1768)" display="inline" fill="#838383" font-family="'Poppins-Light'" font-size="28.7083">Somos una joven agencia de </text>
	
		<text transform="matrix(1 0 0 1 2058.8682 479.2402)" display="inline" fill="#838383" font-family="'Poppins-Light'" font-size="28.7083">modelos y edecanes ubicada en </text>
	
		<text transform="matrix(1 0 0 1 2058.8682 522.3018)" display="inline" fill="#838383" font-family="'Poppins-Light'" font-size="28.7083">Matagalpa, Nicaragua. Te ayudamos </text>
	
		<text transform="matrix(1 0 0 1 2058.8682 565.3652)" display="inline" fill="#838383" font-family="'Poppins-Light'" font-size="28.7083">a presentar tu marca o evento de </text>
	
		<text transform="matrix(1 0 0 1 2058.8682 608.4268)" display="inline" fill="#838383" font-family="'Poppins-Light'" font-size="28.7083">manera exitosa, encantar a tus </text>
	
		<text transform="matrix(1 0 0 1 2058.8682 651.4902)" display="inline" fill="#838383" font-family="'Poppins-Light'" font-size="28.7083">clientes y comunicarles </text>
	
		<text transform="matrix(1 0 0 1 2058.8682 694.5518)" display="inline" fill="#838383" font-family="'Poppins-Light'" font-size="28.7083">correctamente el mensaje de tus </text>
	
		<text transform="matrix(1 0 0 1 2058.8682 737.6152)" display="inline" fill="#838383" font-family="'Poppins-Light'" font-size="28.7083">productos o servicios. </text>
	<path display="inline" fill="#2F45FF" d="M2315.271,863.915c0,8.521-7.875,15.433-17.586,15.433h-221.295
		c-9.711,0-17.586-6.91-17.586-15.433v-32.154c0-8.521,7.875-15.432,17.586-15.432h221.295c9.711,0,17.586,6.909,17.586,15.432
		V863.915z"/>
	<rect x="2082.234" y="833.904" display="inline" fill="none" width="209.914" height="31.913"/>
	
		<text transform="matrix(1 0 0 1 2093.4668 857.7627)" display="inline" fill="#FFFFFF" font-family="'Poppins-Bold'" font-size="32.2416">Conócenos</text>
	<rect x="3188.393" y="41.201" display="inline" fill="none" width="685.67" height="29.518"/>
	
		<text transform="matrix(1 0 0 1 3188.3916 57.7246)" display="inline" fill="#FFFFFF" font-family="'Poppins-Regular'" font-size="22.3287">inicio                servicios                 portafolio</text>
	
		<text transform="matrix(1 0 0 1 3634.2568 57.7246)" display="inline" fill="#FFFFFF" font-family="'Poppins-Bold'" font-size="22.3287"> </text>
	
		<text transform="matrix(1 0 0 1 3638.7227 57.7246)" display="inline" fill="#2F45FF" font-family="'Poppins-Bold'" font-size="22.3287">             </text>
	
		<text transform="matrix(1 0 0 1 3696.7783 57.7246)" display="inline" fill="#F14121" font-family="'Poppins-Bold'" font-size="22.3287"> contacto</text>
	
		<rect x="1976.97" y="-1.45" display="inline" fill="none" stroke="#000000" stroke-miterlimit="10" width="1913.89" height="1076.562"/>
	<g display="inline">
		<g>
			<g>
				<g>
					<g>
						<defs>
							<rect id="SVGID_2_" x="1976.97" y="-1.45" width="1913.89" height="1076.562"/>
						</defs>
						<clipPath id="SVGID_3_">
							<use xlink:href="#SVGID_2_"  overflow="visible"/>
						</clipPath>
						<g id="Logo_HD_1_" opacity="0.2" clip-path="url(#SVGID_3_)">
							<g id="Forma_1_2_">
								<g>
									<path fill="#999999" d="M3767.927-84.864c0,0-207.604-57.447-409.386,178.89
										c-87.298,102.258-139.65,243.285-63.312,484.923c0,0,11.885,3.708,32.523,6.436c13.615-8.606,33.545-17.095,55.088-28.672
										c-43.967,2.224-71.953-6.094-71.953-6.094c-54.064-206.424,5.173-337.12,82.984-421.731
										c164.287-178.619,321.146-145.766,321.146-145.766s102.606,216.088-54.81,413.99
										c-21.312,26.794-42.928,49.224-64.412,67.982c28.39-3.969,49.688-4.605,65.632-3.168
										c17.105-16.674,34.157-35.456,50.979-56.604C3896.539,173.829,3767.927-84.864,3767.927-84.864z"/>
								</g>
							</g>
							<g id="Forma_1_copia_5_2_">
								<g>
									<path fill="#999999" d="M3261.449,94.505c-201.604-236.573-409.055-179.067-409.055-179.067
										s-128.498,258.957,55.471,490.685c16.812,21.176,33.849,39.979,50.945,56.67c15.932-1.443,37.213-0.803,65.578,3.169
										c-21.474-18.781-43.067-41.234-64.363-68.056c-157.289-198.105-54.75-414.412-54.75-414.412
										s156.738-32.894,320.883,145.919c77.749,84.695,136.934,215.518,82.914,422.153c0,0-27.971,8.328-71.911,6.1
										c21.537,11.593,41.456,20.089,55.062,28.71c20.631-2.729,32.504-6.44,32.504-6.44
										C3400.998,338.04,3348.684,196.872,3261.449,94.505z"/>
								</g>
							</g>
							<g id="Forma_1_copia_3_2_">
								<g>
									<path fill="#999999" d="M2978.036,221.748c-301.146-75.37-436.681,92.078-436.681,92.078s45.402,285.555,329.384,367.226
										c298.646,85.899,439.987-100.896,439.987-100.896C3232.684,338.868,3108.327,254.36,2978.036,221.748z M2908.429,644.037
										c-242.778-69.82-284.621-305.547-284.621-305.547s108.527-117.922,345.718-67.801
										c112.347,23.734,236.308,95.83,312.023,295.466C3281.549,566.155,3163.755,717.457,2908.429,644.037z"/>
								</g>
							</g>
							<g id="Forma_1_copia_4_2_">
								<g>
									<path fill="#999999" d="M3642.711,221.728c-130.445,32.579-254.948,117.019-333.074,358.091
										c0,0,141.494,186.633,440.5,100.811c284.301-81.606,329.762-366.904,329.762-366.904S3944.201,146.429,3642.711,221.728z
										 M3712.39,643.646c-255.618,73.356-373.553-77.812-373.553-77.812c75.825-199.462,199.925-271.494,312.399-295.209
										c237.459-50.071,346.106,67.742,346.106,67.742S3955.449,573.885,3712.39,643.646z"/>
								</g>
							</g>
							<g id="Forma_2_2_">
								<g>
									<path fill="#999999" d="M3550.633,256.622c0,0-3.115-98.379-30.715-222.104
										c-35.763-160.273-210.296-269.356-210.296-269.356s-178.733,96.233-219.729,269.356
										c-28.957,122.251-18.902,217.38-18.902,217.38l54.338,51.981c0,0-19.356-171.736,42.529-288.264
										c65.237-122.816,141.769-160.668,141.769-160.668s97.938,65.239,137.051,160.668
										c48.479,118.296,40.159,281.175,40.159,281.175L3550.633,256.622z"/>
								</g>
							</g>
							<g id="Forma_1_copia_2_2_">
								<g>
									<path fill="#999999" d="M3788.048,484.568c-125.241-48.397-275.562-51.062-478.438,100.739
										c0,0,7.745,233.62,301.246,335.453c279.077,96.838,480.831-109.839,480.831-109.839S4077.512,596.42,3788.048,484.568z
										 M3601.409,868.893C3350.488,781.827,3341.51,590.69,3341.51,590.69c176.981-119.183,319.814-106.622,425.277-61.326
										C3989.439,625,4010.104,783.59,4010.104,783.59S3839.99,951.685,3601.409,868.893z"/>
								</g>
							</g>
							<g id="Forma_1_copia_2_">
								<g>
									<path fill="#999999" d="M2832.348,483.446c-289.504,112.088-303.671,327.052-303.671,327.052
										s201.773,207.104,480.882,110.07c293.518-102.057,301.269-336.159,301.269-336.159
										C3107.929,432.287,2957.602,434.954,2832.348,483.446z M3019.005,868.588c-238.612,82.965-408.733-85.484-408.733-85.484
										s20.652-158.932,243.347-254.764c105.462-45.393,248.313-57.975,425.31,61.454
										C3278.924,589.794,3269.938,781.335,3019.005,868.588z"/>
								</g>
							</g>
						</g>
					</g>
				</g>
			</g>
		</g>
	</g>
</g>
<g id="FLORLOTUS" display="none">
	<g display="inline">
		<g>
			<g>
				<g>
					<defs>
						<rect id="SVGID_4_" width="1920" height="1080"/>
					</defs>
					<clipPath id="SVGID_5_">
						<use xlink:href="#SVGID_4_"  overflow="visible"/>
					</clipPath>
					<g id="Logo_HD_3_" opacity="0.13" clip-path="url(#SVGID_5_)">
						<g id="Forma_1_copia_4_5_">
							<g>
								<path fill="#999999" d="M1671.061,223.89c-130.858,32.683-255.763,117.393-334.139,359.235
									c0,0,141.946,187.229,441.907,101.132c285.207-81.867,330.813-368.076,330.813-368.076S1973.514,148.351,1671.061,223.89z
									 M1740.961,647.156c-256.434,73.595-374.745-78.062-374.745-78.062c76.067-200.1,200.563-272.361,313.397-296.152
									c238.217-50.23,347.215,67.958,347.215,67.958S1984.797,577.172,1740.961,647.156z"/>
							</g>
						</g>
						<g id="Forma_1_copia_2_5_">
							<g>
								<path fill="#999999" d="M1816.861,487.57c-125.646-48.556-276.445-51.225-479.971,101.062
									c0,0,7.771,234.365,302.209,336.523c279.973,97.146,482.365-110.189,482.365-110.189S2107.249,599.779,1816.861,487.57z
									 M1629.627,873.122c-251.723-87.344-260.729-279.091-260.729-279.091c177.546-119.562,320.834-106.962,426.635-61.522
									c223.363,95.941,244.095,255.038,244.095,255.038S1868.97,956.178,1629.627,873.122z"/>
							</g>
						</g>
					</g>
				</g>
			</g>
		</g>
	</g>
</g>
<g>
	<linearGradient id="SVGID_6_" gradientUnits="userSpaceOnUse" x1="959.5005" y1="757.5996" x2="959.5004" y2="0.5005">
		<stop  offset="0" style="stop-color:#808080"/>
		<stop  offset="0.2656" style="stop-color:#4D4D4D"/>
		<stop  offset="0.4978" style="stop-color:#333333"/>
		<stop  offset="0.786" style="stop-color:#1B1B1B"/>
		<stop  offset="0.9598" style="stop-color:#1A1A1A"/>
	</linearGradient>
	<path fill="url(#SVGID_6_)" d="M1919.5,757.6c0,0-408.021-166.626-914.85-379.199C364.75,110.015-0.5,290.4-0.5,290.4V0.5h1920
		V757.6z"/>
	<path opacity="0.7" fill="#FFFFFF" enable-background="new    " d="M699.766,110.793c-6.94-2.619-11.188-6.938-12.744-12.956
		c-1.56,6.017-5.803,10.336-12.744,12.956c6.938,2.62,11.184,6.938,12.744,12.956C688.578,117.73,692.825,113.413,699.766,110.793
		L699.766,110.793z"/>
	<linearGradient id="SVGID_7_" gradientUnits="userSpaceOnUse" x1="631.5156" y1="158.752" x2="648.1689" y2="158.752">
		<stop  offset="0" style="stop-color:#F14121"/>
		<stop  offset="0.1147" style="stop-color:#F76320"/>
		<stop  offset="1" style="stop-color:#FA9B23"/>
	</linearGradient>
	<path opacity="0.8" fill="url(#SVGID_7_)" d="M648.169,158.751c-4.535-1.711-7.31-4.532-8.328-8.464
		c-1.019,3.932-3.791,6.753-8.325,8.464c4.531,1.711,7.306,4.533,8.325,8.465C640.859,163.284,643.634,160.462,648.169,158.751
		L648.169,158.751z"/>
	<g>
		<path opacity="0.8" fill="#FA9B23" enable-background="new    " d="M1673.682,343.398c9.334-3.526,15.056-9.339,17.149-17.439
			c2.101,8.1,7.812,13.913,17.153,17.439c-9.341,3.525-15.053,9.338-17.153,17.436
			C1688.737,352.736,1683.016,346.924,1673.682,343.398L1673.682,343.398z"/>
		<path opacity="0.8" fill="#FFFFFF" d="M1840.244,282.939c4.859-1.834,7.834-4.858,8.925-9.073
			c1.091,4.214,4.062,7.239,8.928,9.073c-4.865,1.835-7.837,4.86-8.928,9.074C1848.078,287.8,1845.104,284.774,1840.244,282.939
			L1840.244,282.939z"/>
		<path opacity="0.5" fill="#FA9B23" enable-background="new    " d="M1782.763,159.896c3.469-1.309,5.591-3.467,6.372-6.476
			c0.777,3.009,2.899,5.167,6.368,6.476c-3.469,1.31-5.591,3.469-6.368,6.476C1788.354,163.364,1786.231,161.206,1782.763,159.896
			L1782.763,159.896z"/>
	</g>
	<g>
		<path opacity="0.8" fill="#FFFFFF" d="M102.341,203.002c-3.121,1.178-5.03,3.12-5.73,5.826c-0.702-2.706-2.611-4.647-5.733-5.826
			c3.122-1.178,5.031-3.121,5.733-5.826C97.311,199.881,99.22,201.824,102.341,203.002L102.341,203.002z"/>
		<path opacity="0.5" fill="#FA9B23" enable-background="new    " d="M52.698,238.025c-1.908,0.72-3.076,1.908-3.506,3.564
			c-0.43-1.655-1.597-2.844-3.505-3.564c1.908-0.721,3.075-1.909,3.505-3.564C49.622,236.116,50.791,237.304,52.698,238.025
			L52.698,238.025z"/>
	</g>
	<g>
		<g>
			<path fill="#424242" d="M1013.086,191.733c-0.318,0.82-2.973,9.729-12.426,28.035c0,0-3.971,16.59-9.953,19.323
				c0,0,13.225,36.735,27.715,30.451c0,0,25.861-33.541,13.249-58.134L1013.086,191.733z"/>
			<path fill="#D6907B" d="M1005.93,205.127c0,4.527,3.674,8.199,8.197,8.199c4.529,0,8.198-3.672,8.198-8.199
				c0-4.527-3.669-8.198-8.198-8.198C1009.604,196.93,1005.93,200.601,1005.93,205.127z"/>
			<path fill="#D6907B" d="M968.452,205.127c0,4.527,3.675,8.199,8.197,8.199c4.529,0,8.201-3.672,8.201-8.199
				c0-4.527-3.672-8.198-8.201-8.198C972.127,196.93,968.452,200.601,968.452,205.127z"/>
			<path fill="#424242" d="M964.874,184.9c0,0.824-21.404,36.234-10.475,64.341c0,0,7.642-5.043,29.068-7.227l4.727-0.547
				c0,0,3.005-29.235,0.169-40.439"/>
			<g>
				<g>
					<g>
						<path fill="#D6907B" d="M1005.93,246.119c0,0-5.855-11.711,0-26.936l-24.595-3.514c0,0,7.614,11.711-6.442,22.253"/>
						<path fill="#F9D5BA" d="M1028.18,251.975c0,0-12.879-8.199-22.25-10.542l-29.28-9.369c0,0-24.594,2.343-28.108,5.857
							c0,0-3.513-4.686-10.541,52.701l-2.342,18.739c0,0-11.709,11.713-12.884,64.415l-12.88,14.641c0,0-0.587,2.927-0.587,5.271
							c0,2.342,1.759,9.954,1.759,9.954l10.539,6.441c0,0,3.513-1.171,1.169-2.343c0,0,3.516,2.929,2.344,1.172
							c-1.169-1.758-5.271-11.712-5.271-11.712l4.685-6.441l8.783-14.641c0,0,16.397-67.343,17.569-74.955
							c0,0,9.371-13.469,7.027-30.45c-2.342-16.982,32.208,7.612,32.796,9.369c0.583,1.757,18.735-5.854,18.735-5.854l5.271-1.172
							l8.2,8.783c0,0-18.155,23.424-14.641,36.892c3.511,13.47,22.251,55.632,22.251,55.632l6.442-9.369
							c0,0-11.709-32.793-9.954-39.82C1028.766,318.146,1045.749,251.975,1028.18,251.975z"/>
						<path fill="#F9D5BA" d="M929.8,379.634c0,0,1.175,13.469-2.925,16.982l-5.855,7.026l-1.759-2.342
							c0,0,6.445-5.271,4.102-12.883"/>
					</g>
					<path fill="#D6907B" d="M1001.243,387.44c0,0-4.682,41.382-5.466,43.726c-0.775,2.34-14.049,62.462-14.831,79.641
						c0,0,5.854,85.495,1.168,106.576c0,0,1.957,20.689,1.174,27.717c-0.781,7.028-8.592,9.369-8.592,9.369
						s-3.903,0.783-3.903-5.466c0-6.245,3.276-13.634,1.954-23.422c-1.954-14.445-15.23-86.665-11.323-108.528
						c0,0-11.712-74.175-3.125-98.379"/>
					<path fill="#191E30" d="M982.899,636.513c0,0-5.473,12.209-12.494,8.196l-1.56,12.885c0,0,9.366,18.615,11.713,8.588"/>
					<path fill="#F9D5BA" d="M996.562,405.399c1.169,3.514-10.541,85.494-7.029,115.946c0,0-10.536,56.217-3.512,97.207
						c0,0-4.292,10.932-4.292,22.645c0,11.712-3.906,17.178-3.906,17.178s0.776,12.49,4.685,11.709
						c3.903-0.777,14.83,1.564,14.055-10.148c-0.784-11.711,0-21.863-0.784-36.698c0,0,17.18-58.558,14.836-100.72
						c0,0,22.641-81.98,18.738-117.897"/>
				</g>
				<path fill="#F9D5BA" d="M1007.911,159.297l-27.839,0.479l-9.342,19.375c0.256,17.435,3.126,45.95,22.852,46.886
					c0.411,0.025,2.352,0.016,2.766-0.017c19.16-0.011,22.367-29.435,22.615-46.87L1007.911,159.297z"/>
				<path fill="#232A43" d="M996.171,647.442c0,0-8.591,13.273-15.612-3.124l-2.736,14.057c0,0-1.148,20.072,8.198,18.737
					C1002.418,674.769,996.171,647.442,996.171,647.442z"/>
			</g>
			<g>
				<path fill="#333333" d="M987.333,164.869c13.88-3.381,19.741,5.314,18.597,15.665c-0.673,6.073,1.022,13.972,6.562,17.217
					c0,0,18.016,9.269,6.104,18.279l-5.955,4.636c0,0,25.02-2.059,19.293-16.478c0,0,3.581-45.208-26.591-46.493
					C1005.343,157.695,987.747,158.173,987.333,164.869z"/>
				<path fill="#333333" d="M961.724,192.553c0,0-1.469-48.912,37.763-34.273l-2.474,0.936l11.26,11.168
					c0,0-33.286,10.226-34.552,19.518c0,0-3.806,17.952,9.432,35.442C983.152,225.345,952.271,212.774,961.724,192.553z"/>
			</g>
		</g>
		<linearGradient id="SVGID_8_" gradientUnits="userSpaceOnUse" x1="904.4287" y1="369.4199" x2="1056.832" y2="369.4199">
			<stop  offset="0" style="stop-color:#F14121"/>
			<stop  offset="0.2891" style="stop-color:#F76320"/>
			<stop  offset="1" style="stop-color:#FA9B23"/>
		</linearGradient>
		<path fill="url(#SVGID_8_)" d="M1034.82,260.953c0,0,16.832,13.509,7.809,19.521c-2.343,1.56-7.028,0.78-7.028,0.78
			s-3.901-7.808-10.151,1.562c0,0-4.684,12.493-12.489,35.915c0,0,33.57,46.85,42.157,99.942c0,0,5.466,38.254-3.121,67.145
			c0,0-10.147,13.277-32.793-3.901c0,0-21.082,20.299-37.479,3.122c0,0-32.793,10.15-37.475-9.37c0,0-35.919,9.373-39.82-7.807
			c0,0,18.736-113.993,60.123-147.567c0,0-5.469-30.45-6.248-43.725c0,0-10.932-10.932-16.397-8.59c0,0-3.906,0-2.342-7.808
			l3.905-7.807l0.779-5.467C944.249,246.899,1010.617,264.855,1034.82,260.953z"/>
		<path fill="#232A43" d="M1012.96,318.731c0,0-20.302,12.494-48.408,1.563l-2.347-12.492c0,0,42.943,10.151,53.096,4.685
			C1015.301,312.487,1016.078,314.048,1012.96,318.731z"/>
	</g>
</g>
</svg>
