<?xml version="1.0" encoding="utf-8"?>
<!-- Generator: Adobe Illustrator 16.0.0, SVG Export Plug-In . SVG Version: 6.00 Build 0)  -->
<!DOCTYPE svg PUBLIC "-//W3C//DTD SVG 1.1//EN" "http://www.w3.org/Graphics/SVG/1.1/DTD/svg11.dtd">
<svg version="1.1" id="Layer_1" xmlns="http://www.w3.org/2000/svg" xmlns:xlink="http://www.w3.org/1999/xlink" x="0px" y="0px"
	 width="1920px" height="1080px" viewBox="0 0 1920 1080" enable-background="new 0 0 1920 1080" xml:space="preserve">
<g display="none">
	<g id="Logo_HD_2_" display="inline">
		<g id="Forma_1_4_">
			<g>
				<path fill="#F14121" d="M2080.965,47.391c-6.697-7.843-13.587-5.937-13.587-5.937s-4.268,8.585,1.845,16.269
					c0.562,0.706,1.135,1.328,1.701,1.883c0.529-0.048,1.238-0.025,2.182,0.107c-0.718-0.625-1.438-1.368-2.147-2.263
					c-5.228-6.568-1.821-13.739-1.821-13.739s5.207-1.09,10.66,4.837c2.582,2.808,4.549,7.146,2.756,13.996
					c0,0-0.938,0.271-2.396,0.197c0.002,0.002,0.006,0.004,0.009,0.005c0.714,0.384,1.367,0.666,1.819,0.952
					c0.687-0.09,1.086-0.213,1.086-0.213C2085.6,55.465,2083.861,50.785,2080.965,47.391z"/>
			</g>
		</g>
		<g id="Forma_1_copia_5_4_">
			<g>
				<path fill="#F14121" d="M2097.762,41.464c0,0-6.886-1.909-13.574,5.943c-2.896,3.397-4.631,8.082-2.101,16.109
					c0,0,0.399,0.124,1.087,0.214c0.451-0.286,1.105-0.568,1.821-0.953c0.003-0.001,0.007-0.003,0.009-0.005
					c-1.46,0.075-2.396-0.197-2.396-0.197c-1.793-6.857,0.175-11.2,2.752-14.01c5.447-5.935,10.647-4.843,10.647-4.843
					s3.403,7.179-1.815,13.753c-0.711,0.896-1.433,1.64-2.146,2.265c0.939-0.132,1.646-0.155,2.179-0.106
					c0.571-0.557,1.144-1.179,1.701-1.886C2102.025,50.058,2097.762,41.464,2097.762,41.464z"/>
			</g>
		</g>
		<g id="Forma_1_copia_3_4_">
			<g>
				<path fill="#F76320" d="M2093.593,51.629c-4.323,1.083-8.45,3.888-11.042,11.894c0,0,4.691,6.2,14.604,3.349
					c9.422-2.71,10.932-12.188,10.932-12.188S2103.588,49.128,2093.593,51.629z M2095.902,65.645
					c-8.473,2.437-12.385-2.585-12.385-2.585c2.516-6.625,6.629-9.018,10.354-9.806c7.873-1.664,11.477,2.25,11.477,2.25
					S2103.961,63.327,2095.902,65.645z"/>
			</g>
		</g>
		<g id="Forma_1_copia_4_4_">
			<g>
				<path fill="#F76320" d="M2071.533,51.629c-10.006-2.499-14.508,3.053-14.508,3.053s1.509,9.468,10.939,12.177
					c9.923,2.848,14.619-3.345,14.619-3.345C2079.994,55.512,2075.863,52.711,2071.533,51.629z M2069.223,65.632
					c-8.068-2.315-9.457-10.132-9.457-10.132s3.605-3.91,11.484-2.248c3.73,0.788,7.854,3.178,10.369,9.797
					C2081.619,63.049,2077.704,68.066,2069.223,65.632z"/>
			</g>
		</g>
		<g id="Forma_2_4_">
			<g>
				<path fill="#F14121" d="M2089.881,45.416c-1.356-5.746-7.293-8.939-7.293-8.939s-5.791,3.62-6.979,8.939
					c-0.916,4.105-1.021,7.371-1.021,7.371l2.117,1.333c0,0-0.275-5.405,1.334-9.332c1.296-3.166,4.547-5.331,4.547-5.331
					s2.539,1.256,4.706,5.331c2.054,3.868,1.411,9.568,1.411,9.568l1.803-1.726C2090.508,52.63,2090.842,49.473,2089.881,45.416z"/>
			</g>
		</g>
		<g id="Forma_1_copia_2_4_">
			<g>
				<path fill="#FA9B23" d="M2066.712,60.352c-9.608,3.713-10.077,10.831-10.077,10.831s6.695,6.859,15.957,3.646
					c9.739-3.38,9.996-11.132,9.996-11.132C2075.855,58.657,2070.866,58.746,2066.712,60.352z M2072.904,73.107
					c-7.919,2.748-13.563-2.832-13.563-2.832s0.688-5.263,8.074-8.437c3.502-1.504,8.241-1.92,14.116,2.035
					C2081.531,63.874,2081.232,70.217,2072.904,73.107z"/>
			</g>
		</g>
		<g id="Forma_1_copia_4_">
			<g>
				<path fill="#FA9B23" d="M2098.429,60.314c-4.155-1.609-9.146-1.698-15.88,3.351c0,0,0.258,7.77,9.999,11.157
					c9.265,3.22,15.958-3.654,15.958-3.654S2108.033,64.034,2098.429,60.314z M2092.232,73.096
					c-8.326-2.896-8.625-9.252-8.625-9.252c5.873-3.963,10.609-3.546,14.111-2.04c7.395,3.182,8.075,8.455,8.075,8.455
					S2100.153,75.85,2092.232,73.096z"/>
			</g>
		</g>
	</g>
	<g display="inline">
		
			<linearGradient id="SVGID_1_" gradientUnits="userSpaceOnUse" x1="2391.3838" y1="-646.4482" x2="4039.3574" y2="-646.4482" gradientTransform="matrix(1 0 0 1 -14 1088)">
			<stop  offset="0" style="stop-color:#FFFFFF"/>
			<stop  offset="0.518" style="stop-color:#FA9B23"/>
			<stop  offset="0.8208" style="stop-color:#F76320"/>
			<stop  offset="1" style="stop-color:#F14121"/>
		</linearGradient>
		<path fill="url(#SVGID_1_)" d="M3851.552-0.5H2554.334c31.598,16,69.574,46.921,91.475,99.942
			c30.908,74.834,29.801,160.109,68.438,232.083l2.805,1.036c14.111,24.821,33.242,47.874,60.419,68.26
			c107.11,80.333,242.858,153.717,267.776,287.832c34.959,188.188,354.805,256.604,513.24,131.642
			c49.797-39.279,122.729-90.462,122.729-90.462c67.264-47.836,108.253-63.965,184.979-72.99c8.479-0.998,16.31-2.667,24.31-4.896
			V37.974C3890.5,16.199,3873.32-0.5,3851.552-0.5z"/>
		<circle fill="#F14121" cx="2663.659" cy="166.454" r="29.009"/>
		<circle opacity="0.5" fill="#838383" enable-background="new    " cx="3087.641" cy="864.907" r="29.009"/>
		<circle fill="#838383" cx="2641.345" cy="251.25" r="11.159"/>
		<path fill="#FA9B23" d="M3056.4,795.732c0,6.158-4.996,11.152-11.158,11.152s-11.158-4.994-11.158-11.152
			c0-6.165,4.996-11.157,11.158-11.157C3051.405,784.575,3056.4,789.567,3056.4,795.732z"/>
		<circle fill="#F14121" cx="3815.104" cy="706.472" r="11.158"/>
		<path opacity="0.5" fill="#FA9B23" enable-background="new    " d="M3773.451,344.23c0,3.283-2.668,5.946-5.955,5.946
			c-3.286,0-5.947-2.663-5.947-5.946c0-3.286,2.661-5.951,5.947-5.951C3770.783,338.279,3773.451,340.944,3773.451,344.23z"/>
		<path fill="#FFFFFF" d="M3748.16,457.288c-3.289,0-5.952-2.659-5.952-5.945c0-3.287,2.663-5.955,5.952-5.955
			c3.285,0,5.947,2.668,5.947,5.955C3754.107,454.629,3751.445,457.288,3748.16,457.288z"/>
		<path opacity="0.8" fill="#FA9B23" enable-background="new    " d="M3832.954,557.705c-6.981,0-12.644-5.657-12.644-12.64
			c0-6.987,5.662-12.648,12.644-12.648c6.983,0,12.644,5.662,12.644,12.648C3845.597,552.048,3839.938,557.705,3832.954,557.705z"/>
		<path opacity="0.7" fill="#FFFFFF" enable-background="new    " d="M2746.225,173.892c-6.979,0-12.646-5.661-12.646-12.643
			c0-6.984,5.665-12.646,12.646-12.646c6.981,0,12.648,5.662,12.648,12.646C2758.873,168.23,2753.205,173.892,2746.225,173.892z"/>
	</g>
	<g display="inline">
		<rect x="2116.5" y="80.5" fill="#FFFFFF" width="150" height="12"/>
	</g>
	<rect x="2058.872" y="237.842" display="inline" fill="none" width="631.552" height="126.788"/>
	
		<text transform="matrix(1 0 0 1 2058.8721 280.3301)" display="inline" fill="#FA9B23" font-family="'Poppins-Bold'" font-size="57.4167">Más éxito para </text>
	
		<text transform="matrix(1 0 0 1 2058.8721 349.2295)" display="inline" fill="#FA9B23" font-family="'Poppins-Bold'" font-size="57.4167">tu evento</text>
	<rect x="2058.868" y="414.934" display="inline" fill="none" width="540.646" height="337.311"/>
	
		<text transform="matrix(1 0 0 1 2058.8682 436.1768)" display="inline" fill="#838383" font-family="'Poppins-Light'" font-size="28.7083">Somos una joven agencia de </text>
	
		<text transform="matrix(1 0 0 1 2058.8682 479.2402)" display="inline" fill="#838383" font-family="'Poppins-Light'" font-size="28.7083">modelos y edecanes ubicada en </text>
	
		<text transform="matrix(1 0 0 1 2058.8682 522.3018)" display="inline" fill="#838383" font-family="'Poppins-Light'" font-size="28.7083">Matagalpa, Nicaragua. Te ayudamos </text>
	
		<text transform="matrix(1 0 0 1 2058.8682 565.3652)" display="inline" fill="#838383" font-family="'Poppins-Light'" font-size="28.7083">a presentar tu marca o evento de </text>
	
		<text transform="matrix(1 0 0 1 2058.8682 608.4268)" display="inline" fill="#838383" font-family="'Poppins-Light'" font-size="28.7083">manera exitosa, encantar a tus </text>
	
		<text transform="matrix(1 0 0 1 2058.8682 651.4902)" display="inline" fill="#838383" font-family="'Poppins-Light'" font-size="28.7083">clientes y comunicarles </text>
	
		<text transform="matrix(1 0 0 1 2058.8682 694.5518)" display="inline" fill="#838383" font-family="'Poppins-Light'" font-size="28.7083">correctamente el mensaje de tus </text>
	
		<text transform="matrix(1 0 0 1 2058.8682 737.6152)" display="inline" fill="#838383" font-family="'Poppins-Light'" font-size="28.7083">productos o servicios. </text>
	<path display="inline" fill="#2F45FF" d="M2315.271,863.915c0,8.521-7.875,15.433-17.586,15.433h-221.295
		c-9.711,0-17.586-6.91-17.586-15.433v-32.154c0-8.521,7.875-15.432,17.586-15.432h221.295c9.711,0,17.586,6.909,17.586,15.432
		V863.915z"/>
	<rect x="2082.234" y="833.904" display="inline" fill="none" width="209.914" height="31.913"/>
	
		<text transform="matrix(1 0 0 1 2093.4668 857.7627)" display="inline" fill="#FFFFFF" font-family="'Poppins-Bold'" font-size="32.2416">Conócenos</text>
	<rect x="3188.393" y="41.201" display="inline" fill="none" width="685.67" height="29.518"/>
	
		<text transform="matrix(1 0 0 1 3188.3916 57.7246)" display="inline" fill="#FFFFFF" font-family="'Poppins-Regular'" font-size="22.3287">inicio                servicios                 portafolio</text>
	
		<text transform="matrix(1 0 0 1 3634.2568 57.7246)" display="inline" fill="#FFFFFF" font-family="'Poppins-Bold'" font-size="22.3287"> </text>
	
		<text transform="matrix(1 0 0 1 3638.7227 57.7246)" display="inline" fill="#2F45FF" font-family="'Poppins-Bold'" font-size="22.3287">             </text>
	
		<text transform="matrix(1 0 0 1 3696.7783 57.7246)" display="inline" fill="#F14121" font-family="'Poppins-Bold'" font-size="22.3287"> contacto</text>
	
		<rect x="1976.97" y="-1.45" display="inline" fill="none" stroke="#000000" stroke-miterlimit="10" width="1913.89" height="1076.562"/>
	<g display="inline">
		<g>
			<g>
				<g>
					<g>
						<defs>
							<rect id="SVGID_2_" x="1976.97" y="-1.45" width="1913.89" height="1076.562"/>
						</defs>
						<clipPath id="SVGID_3_">
							<use xlink:href="#SVGID_2_"  overflow="visible"/>
						</clipPath>
						<g id="Logo_HD_1_" opacity="0.2" clip-path="url(#SVGID_3_)">
							<g id="Forma_1_2_">
								<g>
									<path fill="#999999" d="M3767.927-84.864c0,0-207.604-57.447-409.386,178.89
										c-87.298,102.258-139.65,243.285-63.312,484.923c0,0,11.885,3.708,32.523,6.436c13.615-8.606,33.545-17.095,55.088-28.672
										c-43.967,2.224-71.953-6.094-71.953-6.094c-54.064-206.424,5.173-337.12,82.984-421.731
										c164.287-178.619,321.146-145.766,321.146-145.766s102.606,216.088-54.81,413.99
										c-21.312,26.794-42.928,49.224-64.412,67.982c28.39-3.969,49.688-4.605,65.632-3.168
										c17.105-16.674,34.157-35.456,50.979-56.604C3896.539,173.829,3767.927-84.864,3767.927-84.864z"/>
								</g>
							</g>
							<g id="Forma_1_copia_5_2_">
								<g>
									<path fill="#999999" d="M3261.449,94.505c-201.604-236.573-409.055-179.067-409.055-179.067
										s-128.498,258.957,55.471,490.685c16.812,21.176,33.849,39.979,50.945,56.67c15.932-1.443,37.213-0.803,65.578,3.169
										c-21.474-18.781-43.067-41.234-64.363-68.056c-157.289-198.105-54.75-414.412-54.75-414.412
										s156.738-32.894,320.883,145.919c77.749,84.695,136.934,215.518,82.914,422.153c0,0-27.971,8.328-71.911,6.1
										c21.537,11.593,41.456,20.089,55.062,28.71c20.631-2.729,32.504-6.44,32.504-6.44
										C3400.998,338.04,3348.684,196.872,3261.449,94.505z"/>
								</g>
							</g>
							<g id="Forma_1_copia_3_2_">
								<g>
									<path fill="#999999" d="M2978.036,221.748c-301.146-75.37-436.681,92.078-436.681,92.078s45.402,285.555,329.384,367.226
										c298.646,85.899,439.987-100.896,439.987-100.896C3232.684,338.868,3108.327,254.36,2978.036,221.748z M2908.429,644.037
										c-242.778-69.82-284.621-305.547-284.621-305.547s108.527-117.922,345.718-67.801
										c112.347,23.734,236.308,95.83,312.023,295.466C3281.549,566.155,3163.755,717.457,2908.429,644.037z"/>
								</g>
							</g>
							<g id="Forma_1_copia_4_2_">
								<g>
									<path fill="#999999" d="M3642.711,221.728c-130.445,32.579-254.948,117.019-333.074,358.091
										c0,0,141.494,186.633,440.5,100.811c284.301-81.606,329.762-366.904,329.762-366.904S3944.201,146.429,3642.711,221.728z
										 M3712.39,643.646c-255.618,73.356-373.553-77.812-373.553-77.812c75.825-199.462,199.925-271.494,312.399-295.209
										c237.459-50.071,346.106,67.742,346.106,67.742S3955.449,573.885,3712.39,643.646z"/>
								</g>
							</g>
							<g id="Forma_2_2_">
								<g>
									<path fill="#999999" d="M3550.633,256.622c0,0-3.115-98.379-30.715-222.104
										c-35.763-160.273-210.296-269.356-210.296-269.356s-178.733,96.233-219.729,269.356
										c-28.957,122.251-18.902,217.38-18.902,217.38l54.338,51.981c0,0-19.356-171.736,42.529-288.264
										c65.237-122.816,141.769-160.668,141.769-160.668s97.938,65.239,137.051,160.668
										c48.479,118.296,40.159,281.175,40.159,281.175L3550.633,256.622z"/>
								</g>
							</g>
							<g id="Forma_1_copia_2_2_">
								<g>
									<path fill="#999999" d="M3788.048,484.568c-125.241-48.397-275.562-51.062-478.438,100.739
										c0,0,7.745,233.62,301.246,335.453c279.077,96.838,480.831-109.839,480.831-109.839S4077.512,596.42,3788.048,484.568z
										 M3601.409,868.893C3350.488,781.827,3341.51,590.69,3341.51,590.69c176.981-119.183,319.814-106.622,425.277-61.326
										C3989.439,625,4010.104,783.59,4010.104,783.59S3839.99,951.685,3601.409,868.893z"/>
								</g>
							</g>
							<g id="Forma_1_copia_2_">
								<g>
									<path fill="#999999" d="M2832.348,483.446c-289.504,112.088-303.671,327.052-303.671,327.052
										s201.773,207.104,480.882,110.07c293.518-102.057,301.269-336.159,301.269-336.159
										C3107.929,432.287,2957.602,434.954,2832.348,483.446z M3019.005,868.588c-238.612,82.965-408.733-85.484-408.733-85.484
										s20.652-158.932,243.347-254.764c105.462-45.393,248.313-57.975,425.31,61.454
										C3278.924,589.794,3269.938,781.335,3019.005,868.588z"/>
								</g>
							</g>
						</g>
					</g>
				</g>
			</g>
		</g>
	</g>
</g>
<g id="FLORLOTUS" display="none">
	<g display="inline">
		<g>
			<g>
				<g>
					<defs>
						<rect id="SVGID_4_" width="1920" height="1080"/>
					</defs>
					<clipPath id="SVGID_5_">
						<use xlink:href="#SVGID_4_"  overflow="visible"/>
					</clipPath>
					<g id="Logo_HD_3_" opacity="0.13" clip-path="url(#SVGID_5_)">
						<g id="Forma_1_copia_4_5_">
							<g>
								<path fill="#999999" d="M1671.061,223.89c-130.858,32.683-255.763,117.393-334.139,359.235
									c0,0,141.946,187.229,441.907,101.132c285.207-81.867,330.813-368.076,330.813-368.076S1973.514,148.351,1671.061,223.89z
									 M1740.961,647.156c-256.434,73.595-374.745-78.062-374.745-78.062c76.067-200.1,200.563-272.361,313.397-296.152
									c238.217-50.23,347.215,67.958,347.215,67.958S1984.797,577.172,1740.961,647.156z"/>
							</g>
						</g>
						<g id="Forma_1_copia_2_5_">
							<g>
								<path fill="#999999" d="M1816.861,487.57c-125.646-48.556-276.445-51.225-479.971,101.062
									c0,0,7.771,234.365,302.209,336.523c279.973,97.146,482.365-110.189,482.365-110.189S2107.249,599.779,1816.861,487.57z
									 M1629.627,873.122c-251.723-87.344-260.729-279.091-260.729-279.091c177.546-119.562,320.834-106.962,426.635-61.522
									c223.363,95.941,244.095,255.038,244.095,255.038S1868.97,956.178,1629.627,873.122z"/>
							</g>
						</g>
					</g>
				</g>
			</g>
		</g>
	</g>
</g>
<g>
	
		<linearGradient id="SVGID_6_" gradientUnits="userSpaceOnUse" x1="266.5" y1="536.832" x2="2186.5" y2="536.832" gradientTransform="matrix(1 0 0 -1 -266 725)">
		<stop  offset="0.0727" style="stop-color:#FFFFFF"/>
		<stop  offset="0.4712" style="stop-color:#B3B3B3"/>
		<stop  offset="0.6952" style="stop-color:#808080"/>
		<stop  offset="0.8669" style="stop-color:#4D4D4D"/>
		<stop  offset="0.9967" style="stop-color:#1A1A1A"/>
	</linearGradient>
	<path fill="url(#SVGID_6_)" d="M1920.5,265.053c0,0-386.654,210.215-914.85,52.8C342.026,120.077,0.5,159.453,0.5,159.453V0.5
		l1920-0.5V265.053z"/>
	<path fill="#FFFFFF" d="M700.266,110.293c-6.939-2.619-11.188-6.938-12.744-12.956c-1.56,6.017-5.803,10.336-12.743,12.956
		c6.938,2.62,11.184,6.938,12.743,12.956C689.078,117.23,693.325,112.913,700.266,110.293L700.266,110.293z"/>
	
		<linearGradient id="SVGID_7_" gradientUnits="userSpaceOnUse" x1="898.0117" y1="566.748" x2="914.667" y2="566.748" gradientTransform="matrix(1 0 0 -1 -266 725)">
		<stop  offset="0" style="stop-color:#F14121"/>
		<stop  offset="0.1147" style="stop-color:#F76320"/>
		<stop  offset="1" style="stop-color:#FA9B23"/>
	</linearGradient>
	<path opacity="0.8" fill="url(#SVGID_7_)" enable-background="new    " d="M648.667,158.251c-4.533-1.711-7.308-4.532-8.33-8.464
		c-1.016,3.932-3.788,6.753-8.325,8.464c4.534,1.711,7.31,4.533,8.325,8.465C641.359,162.784,644.134,159.962,648.667,158.251
		L648.667,158.251z"/>
	<path opacity="0.5" fill="#838383" enable-background="new    " d="M962.425,91.91c-13.959-5.269-22.509-13.958-25.644-26.07
		c-3.139,12.108-11.682,20.8-25.645,26.07c13.962,5.271,22.506,13.962,25.645,26.07C939.916,105.873,948.466,97.181,962.425,91.91
		L962.425,91.91z"/>
	<g>
		
			<linearGradient id="SVGID_8_" gradientUnits="userSpaceOnUse" x1="12904.1992" y1="432.1431" x2="12938.5059" y2="432.1431" gradientTransform="matrix(-1 0 0 -1 14612.6836 725)">
			<stop  offset="0" style="stop-color:#F14121"/>
			<stop  offset="0.1147" style="stop-color:#F76320"/>
			<stop  offset="1" style="stop-color:#FA9B23"/>
		</linearGradient>
		<path opacity="0.8" fill="url(#SVGID_8_)" enable-background="new    " d="M1674.178,292.859
			c9.338-3.526,15.06-9.339,17.152-17.44c2.098,8.1,7.812,13.914,17.154,17.44c-9.342,3.526-15.058,9.337-17.154,17.436
			C1689.236,302.197,1683.516,296.385,1674.178,292.859L1674.178,292.859z"/>
		<path opacity="0.8" fill="#FFFFFF" enable-background="new    " d="M1840.742,232.401c4.858-1.834,7.834-4.859,8.925-9.074
			c1.091,4.214,4.063,7.239,8.929,9.074c-4.863,1.834-7.838,4.86-8.929,9.073C1848.576,237.261,1845.602,234.235,1840.742,232.401
			L1840.742,232.401z"/>
		<path opacity="0.5" fill="#FA9B23" enable-background="new    " d="M1783.263,109.357c3.47-1.309,5.591-3.467,6.372-6.476
			c0.777,3.009,2.899,5.167,6.368,6.476c-3.469,1.31-5.591,3.469-6.368,6.476C1788.854,112.825,1786.73,110.667,1783.263,109.357
			L1783.263,109.357z"/>
	</g>
	<g>
		<g>
			<path fill="#FAB9AF" d="M167.57,492.809c0,0-15.458,17.789-18.296,20.622c-2.348,2.337-5.672,3.189-8.857,4.085
				c-1.019,0.289-2.348,1.333-3.468,2.215c-0.903,0.708-1.313,1.812-1.294,2.958c0.362,20.027,17.797,34.063,18.725,32.893
				c1.675-2.117,0.398-7.98-2.934-11.852c-3.359-3.891-4.169-9.379-2.672-14.299l0,0c1.188-3.91,3.368-7.452,6.326-10.272
				l13.439-12.583L167.57,492.809z"/>
			<path fill="#CCCCCC" d="M132.812,574.399h252.587c2.05,0,3.711-1.665,3.711-3.717l0,0c0-2.052-1.661-3.718-3.711-3.718H132.812
				c-2.052,0-3.722,1.666-3.722,3.718l0,0C129.09,572.733,130.76,574.399,132.812,574.399z"/>
			<path fill="#FAB9AF" d="M325.572,518.109l12.294,20.542c3.759,6.285,5.142,13.718,3.9,20.935l0,0
				c-0.703,4.036,2.327,7.754,6.421,7.854c13.238,0.328,38.856,0.806,39.589-0.399c3.767-6.143-12.436-8.893-25.157-13.204
				c-8.583-2.908-19.141-26.137-25.835-44.419l-10.034,6.358C325.977,516.294,325.533,517.178,325.572,518.109z"/>
			<path fill="#F14121" d="M362.367,560.911c5.437,0,10.985-1.246,16.117-2.26c0.584-0.118,1.198-0.075,1.758,0.126
				c5.936,2.106,9.532,5.002,7.535,8.265c-0.801,1.309-30.932,0.633-42.7,0.315c-2.465-0.062-4.267-2.298-3.845-4.725l0.773-4.413
				C348.66,559.913,355.48,560.911,362.367,560.911z"/>
			<path fill="#666666" d="M281.578,286.079c-13.594-2.721-29.829,8.414-33.334,25.91c-2.014,10.052-4.979,47.51-4.56,78.078
				c0.164,11.731-5.467,23.019-15.493,29.116c-1.626,0.993-3.129,2.088-4.429,3.279c-6.712,6.123-37.902,45.228-57.458,71.757
				c-0.609,4.147,0.004,9.885,2.322,12.61c25.029-19.61,67.466-56.536,74.6-63.049c3.964-3.62,8.394-7.859,11.996-12.029
				c15.378-10.302,40.329-88.97,43.579-105.206C302.309,309.049,295.171,288.8,281.578,286.079z"/>
			<ellipse fill="#424242" cx="273.096" cy="172.637" rx="21.147" ry="27.279"/>
			<path fill="#424242" d="M268.024,175.453c-0.336-15.1-12.56-27.791-27.638-28.653c-13.38-0.763-24.928,7.433-29.249,19.136
				c-1.515,4.099-5.537,6.771-9.903,6.703c-1.818-0.025-3.687,0.14-5.589,0.53c-11.049,2.264-19.629,11.597-20.792,22.82
				c-1.048,10.121,3.686,19.2,11.297,24.378c3.242,2.211,5.09,5.873,5.628,9.764c2.49,17.996,18.923,31.213,37.669,29.161
				c16.03-1.755,28.862-14.948,30.223-31.019c0.838-9.857-2.543-18.899-8.494-25.611
				C261.317,197.871,268.292,187.475,268.024,175.453z"/>
			
				<linearGradient id="SVGID_9_" gradientUnits="userSpaceOnUse" x1="608.5757" y1="544.7793" x2="730.1377" y2="544.7793" gradientTransform="matrix(1 0 0 -1 -266 725)">
				<stop  offset="0" style="stop-color:#F14121"/>
				<stop  offset="0.1147" style="stop-color:#F76320"/>
				<stop  offset="1" style="stop-color:#FA9B23"/>
			</linearGradient>
			<path fill="url(#SVGID_9_)" d="M454.389,179.265c-5.336-1.144-10.25,1.132-12.994,5.042h-3.17v-29.218
				c0-5.357-4.341-9.699-9.698-9.699h-32.696v-3.246c3.911-2.74,6.187-7.655,5.045-12.999c-0.991-4.598-4.684-8.365-9.27-9.41
				c-8.189-1.869-15.454,4.302-15.454,12.171c0,4.236,2.112,7.978,5.338,10.237v3.246h-29.214c-5.358,0-9.701,4.341-9.701,9.699
				v29.218h2.17c2.744-3.91,7.651-6.183,12.994-5.042c4.601,0.981,8.37,4.676,9.417,9.263c1.872,8.191-4.305,15.457-12.173,15.457
				c-4.238,0-7.977-2.113-10.239-5.337h-2.17v32.694c0,5.355,4.343,9.699,9.701,9.699h29.214v-2.246
				c-3.911-2.745-6.186-7.659-5.045-13c0.987-4.599,4.681-8.365,9.271-9.414c8.186-1.87,15.455,4.302,15.455,12.172
				c0,4.24-2.115,7.975-5.34,10.241v2.246h32.695c5.356,0,9.698-4.342,9.698-9.699v-32.694h3.17c2.264,3.224,6,5.337,10.239,5.337
				c7.87,0,14.04-7.265,12.167-15.454C462.759,183.945,458.99,180.25,454.389,179.265z"/>
			<path fill="#424242" d="M273.095,136.408c0,0,11.898,7.489,10.454,17.575c0,0,6.354-4.498,7.79-20
				C292.336,123.244,273.095,136.408,273.095,136.408z"/>
			<g>
				<path fill="#FAB9AF" d="M292.968,197.825c0,0-0.001,0.525-0.004,1.513c0.002,0.985,0.026,2.249,0.11,4.03
					c0.189,3.489,0.674,8.503,2.034,14.323c0.696,2.896,1.615,5.997,2.909,9.077c1.297,3.054,2.949,6.178,5.15,8.625
					c1.089,1.225,2.319,2.226,3.596,2.837c0.638,0.297,1.281,0.534,1.939,0.616c0.657,0.109,1.326,0.117,2.024-0.008
					c1.389-0.199,2.879-0.9,4.306-1.917c1.434-1.007,2.806-2.313,4.083-3.754c2.563-2.899,4.737-6.346,6.691-9.842
					c1.946-3.514,3.633-7.147,5.158-10.72c1.515-3.578,2.849-7.108,4.057-10.48c1.191-3.38,2.265-6.601,3.19-9.601
					c0.93-2.995,1.774-5.749,2.473-8.206c0.723-2.45,1.295-4.604,1.788-6.372c0.938-3.552,1.476-5.579,1.476-5.579l0.004-0.018
					c0.177-0.668,0.861-1.067,1.529-0.891c0.643,0.171,1.035,0.813,0.907,1.457c0,0-0.414,2.07-1.138,5.694
					c-0.387,1.808-0.83,4.008-1.406,6.521c-0.561,2.515-1.212,5.351-2.01,8.426c-0.78,3.08-1.699,6.401-2.733,9.902
					c-1.054,3.498-2.23,7.173-3.599,10.938c-1.383,3.762-2.936,7.625-4.811,11.464c-1.894,3.829-4.023,7.676-6.857,11.25
					c-1.422,1.779-3.017,3.5-4.939,5.005c-1.916,1.487-4.211,2.801-6.915,3.351c-2.671,0.608-5.65,0.226-8.061-0.825
					c-2.445-1.042-4.412-2.59-6.021-4.232c-3.226-3.315-5.304-6.984-6.959-10.505c-1.637-3.536-2.789-6.979-3.687-10.187
					c-1.771-6.423-2.419-11.919-2.75-15.768c-0.148-1.894-0.222-3.522-0.251-4.508c-0.025-0.986-0.04-1.512-0.04-1.512
					c-0.062-2.417,1.846-4.427,4.261-4.49c2.416-0.063,4.426,1.845,4.489,4.261C292.967,197.734,292.968,197.791,292.968,197.825z"
					/>
			</g>
			<path fill="#FAB9AF" d="M286.412,250.146c4.767-14.345,14.34-44.725,13.52-54.652c-0.524-6.36-5.838-11.232-12.223-11.232
				h-41.411c-6.864,0-12.484,5.444-12.68,12.306c-0.353,11.994,5.175,39.291,8.282,53.579H286.412L286.412,250.146z"/>
			<path fill="#FAB9AF" d="M278.249,314.917c4.764,17.195,43.485,139.439,30.124,143.139
				c-13.36,3.697-86.071-115.651-87.003-133.472c-0.884-16.901,8.913-35.211,22.274-38.912
				C257.006,281.97,273.491,297.719,278.249,314.917z"/>
			<path fill="#808080" d="M338.123,514.288c0.493-0.578,0.604-1.395,0.348-2.111c-10.352-28.658-24.249-64.958-27.211-71.813
				c-0.338-0.786-0.696-1.552-1.07-2.295c-5.062-36.243-28.318-110.073-31.94-123.151c-4.758-17.198-21.242-32.944-34.604-29.244
				c-13.361,3.7-23.158,22.01-22.274,38.912c0.581,11.155,29.283,62.08,53.956,97.716c5.192,7.502,8.455,16.115,10.039,25.1
				c1.101,6.213,2.849,12.411,4.812,16.945c2.914,6.749,20.022,32.506,35.312,54.352c0.438,0.632,1.184,1.003,1.952,0.924
				C331.497,519.209,335.329,517.565,338.123,514.288z"/>
			
				<linearGradient id="SVGID_10_" gradientUnits="userSpaceOnUse" x1="491.6362" y1="475.8833" x2="565.5459" y2="475.8833" gradientTransform="matrix(1 0 0 -1 -266 725)">
				<stop  offset="0" style="stop-color:#F14121"/>
				<stop  offset="0.1147" style="stop-color:#F76320"/>
				<stop  offset="1" style="stop-color:#FA9B23"/>
			</linearGradient>
			<path fill="url(#SVGID_10_)" d="M237.164,268.332c2.142-6.012,2.787-12.447,1.886-18.77c-2.089-14.676-5.739-42.324-5.405-54.059
				c0.181-6.275,5.322-11.241,11.596-11.241h6.142c2.338,5.424,7.294,9.615,15,9.615c7.692,0,12.647-4.19,14.991-9.615h5.768
				c-6.271,13.416-4.013,31.113,6.763,41.438c-2.004,7.08-3.688,14.209-4.947,19.984c-1.708,7.823-0.954,15.973,2.125,23.365
				c5.294,12.702,9.488,33.071,8.241,41.14c-43.56,12.349-73.688-9.503-73.688-9.503L237.164,268.332z"/>
			<path fill="#C63600" d="M288.959,245.686c0.424-1.95,0.916-4.089,1.431-6.293c-6.268-1.567-12.433-3.619-18.446-6.258
				c-12.664-5.55-28.843-14.568-37.936-27.008c0.25,3.575,0.603,7.505,1.03,11.582c4.474,10.429,9.267,20.5,18.062,28.338
				c10.534,9.386,23.361,15.594,36.788,19.661C287.851,259.244,287.506,252.348,288.959,245.686z"/>
			<g>
				<polygon fill="#FAB9AF" points="273.095,187.113 254.308,185.141 260.253,164.583 272.404,166.085 				"/>
			</g>
			<path fill="#FA968C" d="M272.404,166.085l-12.15-1.502l-1.857,6.416c2.719,3.068,6.219,9.694,10.64,9.694
				c1.402,0,2.679-0.397,3.83-1.126L272.404,166.085z"/>
			<path fill="#FAB9AF" d="M272.825,176.026c-4.125-0.004-8.588-2.067-14.734-7.435c-3.531-3.084-6.147-8.463-6.147-12.093v-20.09
				h30.931c0,0,2.321,10.668,0.068,21.253C281.253,165.601,276.07,176.026,272.825,176.026z"/>
			<path fill="#FAB9AF" d="M257.191,152.699c0,3.919-1.877,7.097-4.192,7.097c-2.314,0-4.864-5.137-4.864-9.054
				c0-3.921,2.548-5.136,4.864-5.136C255.314,145.604,257.191,148.779,257.191,152.699z"/>
			<path fill="#424242" d="M248.134,138.843c0-6.274,5.086-11.357,11.356-11.355l10.441,0.003c2.982,0.003,5.879-0.779,8.42-2.22
				c3.683-2.089,8.339-1.396,10.85,2.016c2.718,3.686,3.891,8.618-2.999,13.185c-3.42,2.271-8.429-0.245-11.764,0.845
				c-0.204-0.009-0.39-0.042-0.601-0.042h-9.202c-3.194,0-5.646,2.615-5.735,5.812c-0.061,2.021-1.717,3.642-3.753,3.642h-0.405
				l-1.472-4.722l-5.137,6.924L248.134,138.843L248.134,138.843z"/>
			<path fill="#FAB9AF" d="M349.753,161.027c0,0,2.163,10.678-0.879,12.419c-3.042,1.74-5.4,2.35-8.098-1.981
				s-4.336-11.556-4.452-16.089c-0.112-4.527,2.899-12.202,3.763-12.81c3.15-2.215,2.495,6.011,2.374,10.011
				c-0.122,3.997,0.135,8.527,2.075,8.042c1.944-0.484,1.604-8.161,3.643-9.452C350.218,149.875,349.753,161.027,349.753,161.027z"
				/>
			<path fill="#FAB9AF" d="M395.896,233.647c0,0-10.751-1.755-12.375,1.349c-1.624,3.105-2.146,5.483,2.282,8.018
				c4.428,2.532,11.715,3.895,16.25,3.838c4.525-0.057,12.079-3.358,12.652-4.244c2.099-3.23-6.099-2.266-10.088-1.993
				c-3.995,0.274-8.526,0.183-8.119-1.774c0.413-1.957,8.097-1.906,9.312-3.992C407.021,232.761,395.896,233.647,395.896,233.647z"
				/>
			<path fill="#424242" d="M280.566,136.058c-1.032,4.59,0.495,7.1-14.544,14.262c-15.044,7.164-19.804,4.104-24.504,11.815
				c0,0,2.055-12.774,10.361-17.16c8.307-4.385,22.719-7.25,27.335-17.404C279.214,127.572,281.274,132.92,280.566,136.058z"/>
			<g>
				<path fill="#FAB9AF" d="M246.028,197.075c0-0.001,0.033,0.202,0.059,0.31c0.008,0.054,0.045,0.201,0.089,0.376
					c0.041,0.171,0.087,0.368,0.164,0.609c0.269,0.937,0.745,2.384,1.607,4.168c0.854,1.783,2.071,3.905,3.745,6.189
					c1.661,2.291,3.839,4.698,6.454,7.108c1.281,1.235,2.773,2.366,4.279,3.578c1.592,1.115,3.2,2.32,5,3.372
					c1.731,1.148,3.672,2.093,5.584,3.175c0.985,0.494,2.002,0.959,3.017,1.449c0.509,0.244,1.021,0.489,1.535,0.735
					c0.527,0.218,1.058,0.438,1.591,0.658c1.068,0.439,2.145,0.881,3.229,1.327c1.102,0.413,2.229,0.784,3.354,1.184
					c2.236,0.84,4.586,1.465,6.932,2.167c1.167,0.367,2.37,0.648,3.573,0.935c1.203,0.29,2.409,0.581,3.618,0.874
					c2.43,0.548,4.9,0.992,7.358,1.495c2.474,0.429,4.967,0.778,7.442,1.171c2.485,0.344,4.979,0.576,7.446,0.867
					c1.233,0.157,2.467,0.258,3.699,0.336c1.23,0.09,2.455,0.18,3.671,0.269c1.217,0.084,2.426,0.19,3.629,0.254
					c1.206,0.043,2.403,0.087,3.591,0.13c2.375,0.067,4.709,0.237,7.001,0.242c2.291,0.017,4.535,0.034,6.718,0.05
					c2.185,0.044,4.31-0.035,6.366-0.084c2.059-0.05,4.047-0.099,5.956-0.147c3.818-0.182,7.319-0.349,10.421-0.498
					c3.109-0.115,5.805-0.406,8.035-0.556c4.455-0.346,7.001-0.545,7.001-0.545l0.034-0.002c0.689-0.054,1.291,0.461,1.345,1.151
					c0.053,0.66-0.422,1.242-1.069,1.336c0,0-2.543,0.365-6.99,1.003c-2.229,0.296-4.924,0.764-8.042,1.082
					c-3.114,0.335-6.624,0.81-10.472,1.15c-1.925,0.15-3.932,0.307-6.009,0.47c-2.077,0.16-4.225,0.354-6.441,0.427
					c-2.216,0.102-4.492,0.205-6.819,0.312c-2.328,0.112-4.712,0.085-7.137,0.12c-1.212,0.007-2.436,0.016-3.667,0.023
					c-1.231-0.012-2.473-0.067-3.723-0.099c-1.25-0.038-2.508-0.075-3.771-0.114c-1.265-0.028-2.534-0.076-3.81-0.181
					c-2.549-0.189-5.125-0.318-7.705-0.563c-2.577-0.293-5.17-0.547-7.759-0.879c-2.579-0.417-5.17-0.757-7.735-1.238
					c-1.279-0.266-2.556-0.529-3.828-0.794c-1.275-0.262-2.546-0.516-3.796-0.864c-2.507-0.657-5.011-1.244-7.435-2.062
					c-1.215-0.387-2.431-0.749-3.626-1.154c-1.185-0.442-2.362-0.881-3.53-1.316c-0.582-0.221-1.163-0.44-1.741-0.659
					c-0.57-0.249-1.135-0.496-1.698-0.742c-1.125-0.498-2.247-0.973-3.344-1.479c-2.156-1.105-4.292-2.128-6.266-3.364
					c-2.022-1.133-3.878-2.45-5.698-3.681c-1.751-1.34-3.471-2.603-4.992-4c-3.09-2.721-5.717-5.513-7.726-8.271
					c-2.037-2.736-3.556-5.338-4.651-7.587c-1.1-2.246-1.755-4.149-2.155-5.513c-0.389-1.292-0.572-2.408-0.548-2.279
					c-0.396-2.385,1.218-4.639,3.602-5.034C243.377,193.078,245.632,194.69,246.028,197.075z"/>
			</g>
			<path fill="#424242" d="M277.673,136.914c0,0,0.573,15.457,14.081,22.88c0,0-5.952-11.682-5.549-19.323
				C286.61,132.834,276.783,131.633,277.673,136.914z"/>
			<path fill="#F14121" d="M129.199,526.126c-0.509-1.261-0.029-2.704,1.142-3.396c0.954-0.575,3.525-2.153,5.452-3.342
				c0.837-0.514,1.888,0.036,2,1.013c1.252,11.062,6.264,21.085,15.671,25.867c2.458,3.276,2.809,8.876,1.481,10.546
				c-0.308,0.393-4.718-1.062-8.41-5.293C130.12,532.718,129.199,526.126,129.199,526.126z"/>
		</g>
	</g>
	<rect x="0.5" y="0.5" fill="none" width="1920" height="1080"/>
</g>
</svg>
