<?xml version="1.0" encoding="utf-8"?>
<!-- Generator: Adobe Illustrator 16.0.0, SVG Export Plug-In . SVG Version: 6.00 Build 0)  -->
<!DOCTYPE svg PUBLIC "-//W3C//DTD SVG 1.1//EN" "http://www.w3.org/Graphics/SVG/1.1/DTD/svg11.dtd">
<svg version="1.1" id="Layer_1" xmlns="http://www.w3.org/2000/svg" xmlns:xlink="http://www.w3.org/1999/xlink" x="0px" y="0px"
	 width="1920px" height="1080px" viewBox="0 0 1920 1080" enable-background="new 0 0 1920 1080" xml:space="preserve">
<g display="none">
	<g id="Logo_HD_2_" display="inline">
		<g id="Forma_1_4_">
			<g>
				<path fill="#F14121" d="M2080.965,47.391c-6.697-7.843-13.587-5.937-13.587-5.937s-4.268,8.585,1.845,16.269
					c0.562,0.706,1.134,1.328,1.701,1.883c0.529-0.048,1.238-0.025,2.182,0.107c-0.718-0.625-1.438-1.368-2.148-2.263
					c-5.227-6.568-1.821-13.739-1.821-13.739s5.207-1.09,10.66,4.837c2.582,2.808,4.549,7.146,2.756,13.996
					c0,0-0.938,0.271-2.396,0.197c0.002,0.002,0.006,0.004,0.009,0.005c0.714,0.384,1.367,0.666,1.819,0.952
					c0.687-0.09,1.086-0.213,1.086-0.213C2085.6,55.465,2083.861,50.785,2080.965,47.391z"/>
			</g>
		</g>
		<g id="Forma_1_copia_5_4_">
			<g>
				<path fill="#F14121" d="M2097.762,41.464c0,0-6.886-1.909-13.574,5.943c-2.896,3.397-4.631,8.082-2.101,16.109
					c0,0,0.399,0.124,1.087,0.214c0.451-0.286,1.105-0.568,1.821-0.953c0.003-0.001,0.007-0.003,0.009-0.005
					c-1.46,0.075-2.396-0.197-2.396-0.197c-1.793-6.857,0.174-11.2,2.752-14.01c5.447-5.935,10.647-4.843,10.647-4.843
					s3.403,7.179-1.815,13.753c-0.711,0.896-1.433,1.64-2.147,2.265c0.94-0.132,1.647-0.155,2.179-0.106
					c0.571-0.557,1.143-1.179,1.701-1.886C2102.025,50.058,2097.762,41.464,2097.762,41.464z"/>
			</g>
		</g>
		<g id="Forma_1_copia_3_4_">
			<g>
				<path fill="#F76320" d="M2093.593,51.629c-4.323,1.083-8.45,3.888-11.042,11.894c0,0,4.691,6.2,14.604,3.349
					c9.422-2.71,10.932-12.188,10.932-12.188S2103.588,49.128,2093.593,51.629z M2095.902,65.645
					c-8.473,2.437-12.385-2.585-12.385-2.585c2.516-6.625,6.629-9.018,10.354-9.806c7.873-1.664,11.476,2.25,11.476,2.25
					S2103.961,63.327,2095.902,65.645z"/>
			</g>
		</g>
		<g id="Forma_1_copia_4_4_">
			<g>
				<path fill="#F76320" d="M2071.533,51.629c-10.006-2.499-14.508,3.053-14.508,3.053s1.509,9.468,10.94,12.177
					c9.923,2.848,14.619-3.345,14.619-3.345C2079.994,55.512,2075.863,52.711,2071.533,51.629z M2069.223,65.632
					c-8.068-2.315-9.457-10.132-9.457-10.132s3.605-3.91,11.484-2.248c3.731,0.788,7.854,3.178,10.369,9.797
					C2081.619,63.049,2077.704,68.066,2069.223,65.632z"/>
			</g>
		</g>
		<g id="Forma_2_4_">
			<g>
				<path fill="#F14121" d="M2089.881,45.416c-1.357-5.746-7.293-8.939-7.293-8.939s-5.791,3.62-6.979,8.939
					c-0.916,4.105-1.021,7.371-1.021,7.371l2.117,1.333c0,0-0.275-5.405,1.334-9.332c1.296-3.166,4.547-5.331,4.547-5.331
					s2.539,1.256,4.706,5.331c2.054,3.868,1.411,9.568,1.411,9.568l1.803-1.726C2090.508,52.63,2090.842,49.473,2089.881,45.416z"/>
			</g>
		</g>
		<g id="Forma_1_copia_2_4_">
			<g>
				<path fill="#FA9B23" d="M2066.712,60.352c-9.608,3.713-10.077,10.831-10.077,10.831s6.695,6.859,15.957,3.646
					c9.739-3.38,9.996-11.132,9.996-11.132C2075.855,58.657,2070.866,58.746,2066.712,60.352z M2072.904,73.107
					c-7.919,2.748-13.563-2.832-13.563-2.832s0.688-5.263,8.074-8.437c3.502-1.504,8.241-1.92,14.116,2.035
					C2081.531,63.874,2081.232,70.217,2072.904,73.107z"/>
			</g>
		</g>
		<g id="Forma_1_copia_4_">
			<g>
				<path fill="#FA9B23" d="M2098.429,60.314c-4.155-1.609-9.146-1.698-15.88,3.351c0,0,0.258,7.77,9.999,11.157
					c9.265,3.22,15.958-3.654,15.958-3.654S2108.033,64.034,2098.429,60.314z M2092.232,73.096
					c-8.326-2.896-8.625-9.252-8.625-9.252c5.873-3.963,10.61-3.546,14.112-2.04c7.394,3.182,8.075,8.455,8.075,8.455
					S2100.153,75.85,2092.232,73.096z"/>
			</g>
		</g>
	</g>
	<g display="inline">
		
			<linearGradient id="SVGID_1_" gradientUnits="userSpaceOnUse" x1="2125.3838" y1="1082.4492" x2="3773.3574" y2="1082.4492" gradientTransform="matrix(1 0 0 -1 252 1524)">
			<stop  offset="0" style="stop-color:#FFFFFF"/>
			<stop  offset="0.518" style="stop-color:#FA9B23"/>
			<stop  offset="0.8208" style="stop-color:#F76320"/>
			<stop  offset="1" style="stop-color:#F14121"/>
		</linearGradient>
		<path fill="url(#SVGID_1_)" d="M3851.552-0.5H2554.334c31.598,16,69.574,46.921,91.475,99.942
			c30.908,74.834,29.8,160.109,68.437,232.083l2.805,1.036c14.111,24.821,33.242,47.874,60.419,68.26
			c107.11,80.333,242.858,153.717,267.776,287.832c34.959,188.188,354.805,256.604,513.24,131.642
			c49.797-39.279,122.729-90.462,122.729-90.462c67.263-47.836,108.253-63.965,184.979-72.99c8.479-0.998,16.31-2.667,24.31-4.896
			V37.974C3890.5,16.199,3873.32-0.5,3851.552-0.5z"/>
		<circle fill="#F14121" cx="2663.659" cy="166.454" r="29.009"/>
		<circle opacity="0.5" fill="#838383" enable-background="new    " cx="3087.641" cy="864.907" r="29.009"/>
		<circle fill="#838383" cx="2641.345" cy="251.25" r="11.159"/>
		<path fill="#FA9B23" d="M3056.4,795.732c0,6.159-4.996,11.153-11.158,11.153s-11.158-4.994-11.158-11.153
			c0-6.165,4.996-11.157,11.158-11.157C3051.405,784.575,3056.4,789.567,3056.4,795.732z"/>
		<circle fill="#F14121" cx="3815.104" cy="706.472" r="11.158"/>
		<path opacity="0.5" fill="#FA9B23" enable-background="new    " d="M3773.451,344.23c0,3.283-2.668,5.946-5.955,5.946
			c-3.286,0-5.947-2.663-5.947-5.946c0-3.286,2.661-5.951,5.947-5.951C3770.783,338.279,3773.451,340.944,3773.451,344.23z"/>
		<path fill="#FFFFFF" d="M3748.16,457.288c-3.289,0-5.952-2.659-5.952-5.945c0-3.287,2.663-5.955,5.952-5.955
			c3.285,0,5.947,2.668,5.947,5.955C3754.107,454.629,3751.445,457.288,3748.16,457.288z"/>
		<path opacity="0.8" fill="#FA9B23" enable-background="new    " d="M3832.954,557.705c-6.981,0-12.644-5.657-12.644-12.64
			c0-6.987,5.662-12.648,12.644-12.648c6.983,0,12.644,5.662,12.644,12.648C3845.597,552.048,3839.938,557.705,3832.954,557.705z"/>
		<path opacity="0.7" fill="#FFFFFF" enable-background="new    " d="M2746.225,173.892c-6.98,0-12.646-5.661-12.646-12.643
			c0-6.984,5.665-12.646,12.646-12.646s12.648,5.662,12.648,12.646C2758.873,168.23,2753.205,173.892,2746.225,173.892z"/>
	</g>
	<g display="inline">
		
			<image overflow="visible" enable-background="new    " width="805" height="306" id="GLAMMY_1_" xlink:href="1187936C1F3B88DF.png"  transform="matrix(0.1753 0 0 0.1753 2120.7656 39.5312)">
		</image>
		<rect x="2116.5" y="80.5" fill="#FFFFFF" width="150" height="12"/>
	</g>
	<rect x="2058.872" y="237.842" display="inline" fill="none" width="631.552" height="126.788"/>
	
		<text transform="matrix(1 0 0 1 2058.8721 280.3301)" display="inline" fill="#FA9B23" font-family="'Poppins-Bold'" font-size="57.4167">Más éxito para </text>
	
		<text transform="matrix(1 0 0 1 2058.8721 349.2295)" display="inline" fill="#FA9B23" font-family="'Poppins-Bold'" font-size="57.4167">tu evento</text>
	<rect x="2058.868" y="414.934" display="inline" fill="none" width="540.646" height="337.31"/>
	
		<text transform="matrix(1 0 0 1 2058.8682 436.1768)" display="inline" fill="#838383" font-family="'Poppins-Light'" font-size="28.7083">Somos una joven agencia de </text>
	
		<text transform="matrix(1 0 0 1 2058.8682 479.2402)" display="inline" fill="#838383" font-family="'Poppins-Light'" font-size="28.7083">modelos y edecanes ubicada en </text>
	
		<text transform="matrix(1 0 0 1 2058.8682 522.3018)" display="inline" fill="#838383" font-family="'Poppins-Light'" font-size="28.7083">Matagalpa, Nicaragua. Te ayudamos </text>
	
		<text transform="matrix(1 0 0 1 2058.8682 565.3652)" display="inline" fill="#838383" font-family="'Poppins-Light'" font-size="28.7083">a presentar tu marca o evento de </text>
	
		<text transform="matrix(1 0 0 1 2058.8682 608.4268)" display="inline" fill="#838383" font-family="'Poppins-Light'" font-size="28.7083">manera exitosa, encantar a tus </text>
	
		<text transform="matrix(1 0 0 1 2058.8682 651.4902)" display="inline" fill="#838383" font-family="'Poppins-Light'" font-size="28.7083">clientes y comunicarles </text>
	
		<text transform="matrix(1 0 0 1 2058.8682 694.5518)" display="inline" fill="#838383" font-family="'Poppins-Light'" font-size="28.7083">correctamente el mensaje de tus </text>
	
		<text transform="matrix(1 0 0 1 2058.8682 737.6152)" display="inline" fill="#838383" font-family="'Poppins-Light'" font-size="28.7083">productos o servicios. </text>
	<path display="inline" fill="#2F45FF" d="M2315.271,863.915c0,8.521-7.875,15.433-17.586,15.433h-221.295
		c-9.711,0-17.586-6.91-17.586-15.433v-32.154c0-8.521,7.875-15.432,17.586-15.432h221.295c9.711,0,17.586,6.909,17.586,15.432
		V863.915z"/>
	<rect x="2082.234" y="833.904" display="inline" fill="none" width="209.914" height="31.913"/>
	
		<text transform="matrix(1 0 0 1 2093.4668 857.7627)" display="inline" fill="#FFFFFF" font-family="'Poppins-Bold'" font-size="32.2416">Conócenos</text>
	<rect x="3188.393" y="41.201" display="inline" fill="none" width="685.67" height="29.518"/>
	
		<text transform="matrix(1 0 0 1 3188.3916 57.7246)" display="inline" fill="#FFFFFF" font-family="'Poppins-Regular'" font-size="22.3287">inicio                servicios                 portafolio</text>
	
		<text transform="matrix(1 0 0 1 3634.2568 57.7246)" display="inline" fill="#FFFFFF" font-family="'Poppins-Bold'" font-size="22.3287"> </text>
	
		<text transform="matrix(1 0 0 1 3638.7227 57.7246)" display="inline" fill="#2F45FF" font-family="'Poppins-Bold'" font-size="22.3287">             </text>
	
		<text transform="matrix(1 0 0 1 3696.7783 57.7246)" display="inline" fill="#F14121" font-family="'Poppins-Bold'" font-size="22.3287"> contacto</text>
	
		<rect x="1976.97" y="-1.45" display="inline" fill="none" stroke="#000000" stroke-miterlimit="10" width="1913.89" height="1076.562"/>
	<g display="inline">
		<g>
			<g>
				<g>
					<defs>
						<rect id="SVGID_2_" x="1976.97" y="-1.45" width="1913.89" height="1076.562"/>
					</defs>
					<clipPath id="SVGID_3_">
						<use xlink:href="#SVGID_2_"  overflow="visible"/>
					</clipPath>
					<g id="Logo_HD_1_" opacity="0.2" clip-path="url(#SVGID_3_)">
						<g id="Forma_1_2_">
							<g>
								<path fill="#999999" d="M3767.927-84.864c0,0-207.604-57.447-409.386,178.89c-87.298,102.258-139.65,243.285-63.312,484.923
									c0,0,11.884,3.708,32.523,6.436c13.615-8.607,33.545-17.095,55.088-28.672c-43.967,2.224-71.953-6.094-71.953-6.094
									c-54.064-206.424,5.173-337.12,82.984-421.731c164.287-178.619,321.146-145.766,321.146-145.766
									s102.606,216.088-54.81,413.99c-21.312,26.794-42.927,49.224-64.412,67.983c28.39-3.969,49.688-4.606,65.632-3.168
									c17.106-16.674,34.157-35.456,50.98-56.605C3896.539,173.829,3767.927-84.864,3767.927-84.864z"/>
							</g>
						</g>
						<g id="Forma_1_copia_5_2_">
							<g>
								<path fill="#999999" d="M3261.449,94.505c-201.604-236.573-409.055-179.067-409.055-179.067
									s-128.498,258.957,55.471,490.685c16.812,21.176,33.849,39.979,50.945,56.67c15.932-1.443,37.213-0.803,65.578,3.169
									c-21.473-18.781-43.067-41.234-64.363-68.056c-157.289-198.105-54.75-414.412-54.75-414.412s156.738-32.894,320.883,145.919
									c77.749,84.695,136.934,215.518,82.914,422.153c0,0-27.971,8.328-71.911,6.1c21.537,11.593,41.456,20.089,55.062,28.71
									c20.631-2.729,32.504-6.44,32.504-6.44C3400.998,338.04,3348.684,196.872,3261.449,94.505z"/>
							</g>
						</g>
						<g id="Forma_1_copia_3_2_">
							<g>
								<path fill="#999999" d="M2978.036,221.748c-301.146-75.37-436.681,92.078-436.681,92.078s45.403,285.555,329.384,367.226
									c298.646,85.899,439.987-100.896,439.987-100.896C3232.684,338.868,3108.327,254.36,2978.036,221.748z M2908.429,644.037
									c-242.778-69.82-284.621-305.547-284.621-305.547s108.527-117.922,345.718-67.801
									c112.346,23.734,236.307,95.83,312.023,295.466C3281.549,566.155,3163.755,717.457,2908.429,644.037z"/>
							</g>
						</g>
						<g id="Forma_1_copia_4_2_">
							<g>
								<path fill="#999999" d="M3642.711,221.728c-130.445,32.579-254.948,117.019-333.074,358.091
									c0,0,141.494,186.633,440.5,100.811c284.301-81.606,329.762-366.904,329.762-366.904S3944.201,146.429,3642.711,221.728z
									 M3712.39,643.646c-255.618,73.357-373.553-77.812-373.553-77.812c75.825-199.462,199.925-271.494,312.399-295.209
									c237.459-50.071,346.107,67.742,346.107,67.742S3955.449,573.885,3712.39,643.646z"/>
							</g>
						</g>
						<g id="Forma_2_2_">
							<g>
								<path fill="#999999" d="M3550.633,256.622c0,0-3.115-98.379-30.715-222.104
									c-35.763-160.273-210.296-269.356-210.296-269.356s-178.733,96.233-219.729,269.356
									c-28.957,122.251-18.903,217.38-18.903,217.38l54.338,51.981c0,0-19.356-171.736,42.53-288.264
									c65.237-122.816,141.768-160.668,141.768-160.668s97.938,65.239,137.051,160.668
									c48.479,118.296,40.159,281.175,40.159,281.175L3550.633,256.622z"/>
							</g>
						</g>
						<g id="Forma_1_copia_2_2_">
							<g>
								<path fill="#999999" d="M3788.048,484.568c-125.241-48.397-275.562-51.061-478.438,100.74c0,0,7.745,233.62,301.246,335.453
									c279.077,96.838,480.831-109.839,480.831-109.839S4077.512,596.42,3788.048,484.568z M3601.409,868.893
									C3350.488,781.827,3341.51,590.69,3341.51,590.69c176.981-119.182,319.814-106.622,425.277-61.326
									C3989.439,625,4010.104,783.59,4010.104,783.59S3839.99,951.685,3601.409,868.893z"/>
							</g>
						</g>
						<g id="Forma_1_copia_2_">
							<g>
								<path fill="#999999" d="M2832.348,483.446c-289.504,112.088-303.671,327.052-303.671,327.052
									s201.773,207.104,480.882,110.07c293.517-102.056,301.268-336.159,301.268-336.159
									C3107.929,432.287,2957.602,434.954,2832.348,483.446z M3019.005,868.588c-238.612,82.965-408.733-85.484-408.733-85.484
									s20.652-158.932,243.346-254.764c105.462-45.393,248.314-57.975,425.31,61.454
									C3278.924,589.794,3269.938,781.335,3019.005,868.588z"/>
							</g>
						</g>
					</g>
				</g>
			</g>
		</g>
	</g>
</g>
<g id="FLORLOTUS" display="none">
	<g display="inline">
		<g>
			<g>
				<defs>
					<rect id="SVGID_4_" width="1920" height="1080"/>
				</defs>
				<clipPath id="SVGID_5_">
					<use xlink:href="#SVGID_4_"  overflow="visible"/>
				</clipPath>
				<g id="Logo_HD_3_" opacity="0.13" clip-path="url(#SVGID_5_)">
					<g id="Forma_1_copia_4_5_">
						<g>
							<path fill="#999999" d="M1671.061,223.89c-130.859,32.683-255.763,117.393-334.139,359.235
								c0,0,141.946,187.229,441.907,101.132c285.207-81.867,330.813-368.076,330.813-368.076S1973.514,148.351,1671.061,223.89z
								 M1740.961,647.156c-256.434,73.595-374.745-78.062-374.745-78.062c76.067-200.1,200.563-272.361,313.397-296.152
								c238.217-50.23,347.215,67.958,347.215,67.958S1984.797,577.172,1740.961,647.156z"/>
						</g>
					</g>
					<g id="Forma_1_copia_2_5_">
						<g>
							<path fill="#999999" d="M1816.861,487.57c-125.646-48.555-276.445-51.224-479.97,101.062c0,0,7.771,234.365,302.209,336.523
								c279.972,97.146,482.365-110.189,482.365-110.189S2107.249,599.779,1816.861,487.57z M1629.627,873.122
								c-251.723-87.344-260.729-279.091-260.729-279.091c177.546-119.562,320.834-106.962,426.635-61.522
								c223.363,95.941,244.095,255.038,244.095,255.038S1868.97,956.178,1629.627,873.122z"/>
						</g>
					</g>
				</g>
			</g>
		</g>
	</g>
</g>
<g>
	<linearGradient id="SVGID_6_" gradientUnits="userSpaceOnUse" x1="0.5" y1="218.4414" x2="1920.5" y2="218.4414">
		<stop  offset="0.0727" style="stop-color:#FFFFFF"/>
		<stop  offset="0.4712" style="stop-color:#B3B3B3"/>
		<stop  offset="0.6952" style="stop-color:#808080"/>
		<stop  offset="0.8669" style="stop-color:#4D4D4D"/>
		<stop  offset="0.9967" style="stop-color:#1A1A1A"/>
	</linearGradient>
	<path fill="url(#SVGID_6_)" d="M1920.5,325.1c0,0-386.654,210.215-914.85,52.8C342.026,180.124,0.5,219.5,0.5,219.5V0.5h1920V325.1
		z"/>
	<path fill="#FFFFFF" enable-background="new    " d="M700.266,110.293c-6.94-2.619-11.188-6.938-12.744-12.956
		c-1.56,6.017-5.803,10.336-12.744,12.956c6.938,2.62,11.184,6.938,12.744,12.956C689.078,117.23,693.325,112.913,700.266,110.293
		L700.266,110.293z"/>
	<linearGradient id="SVGID_7_" gradientUnits="userSpaceOnUse" x1="632.0127" y1="158.252" x2="648.667" y2="158.252">
		<stop  offset="0" style="stop-color:#F14121"/>
		<stop  offset="0.1147" style="stop-color:#F76320"/>
		<stop  offset="1" style="stop-color:#FA9B23"/>
	</linearGradient>
	<path opacity="0.8" fill="url(#SVGID_7_)" d="M648.667,158.251c-4.533-1.711-7.308-4.532-8.33-8.464
		c-1.016,3.932-3.788,6.753-8.325,8.464c4.534,1.711,7.309,4.533,8.325,8.465C641.359,162.784,644.134,159.962,648.667,158.251
		L648.667,158.251z"/>
	<path opacity="0.5" fill="#838383" enable-background="new    " d="M962.425,91.91c-13.959-5.269-22.509-13.958-25.644-26.07
		c-3.138,12.108-11.681,20.8-25.644,26.07c13.962,5.271,22.506,13.962,25.644,26.07C939.916,105.873,948.466,97.181,962.425,91.91
		L962.425,91.91z"/>
	<g>
		
			<linearGradient id="SVGID_8_" gradientUnits="userSpaceOnUse" x1="11329.1992" y1="342.8965" x2="11363.5059" y2="342.8965" gradientTransform="matrix(-1 0 0 1 13037.6836 0)">
			<stop  offset="0" style="stop-color:#F14121"/>
			<stop  offset="0.1147" style="stop-color:#F76320"/>
			<stop  offset="1" style="stop-color:#FA9B23"/>
		</linearGradient>
		<path opacity="0.8" fill="url(#SVGID_8_)" enable-background="new    " d="M1674.178,342.898
			c9.338-3.526,15.059-9.339,17.152-17.44c2.098,8.1,7.813,13.914,17.154,17.44c-9.341,3.526-15.057,9.337-17.154,17.436
			C1689.236,352.236,1683.516,346.424,1674.178,342.898L1674.178,342.898z"/>
		<path opacity="0.8" fill="#FFFFFF" d="M1840.742,282.44c4.859-1.834,7.834-4.859,8.925-9.074c1.091,4.214,4.064,7.239,8.929,9.074
			c-4.864,1.834-7.838,4.86-8.929,9.073C1848.576,287.3,1845.602,284.274,1840.742,282.44L1840.742,282.44z"/>
		<path opacity="0.5" fill="#FA9B23" enable-background="new    " d="M1783.263,159.396c3.469-1.309,5.591-3.467,6.372-6.476
			c0.777,3.009,2.899,5.167,6.368,6.476c-3.469,1.31-5.591,3.469-6.368,6.476C1788.854,162.864,1786.731,160.706,1783.263,159.396
			L1783.263,159.396z"/>
	</g>
	<g>
		<g>
			<path fill="#FAB9AF" d="M136.156,551.459c0,0-16.052,18.473-18.999,21.414c-2.438,2.427-5.891,3.312-9.197,4.242
				c-1.058,0.299-2.438,1.385-3.602,2.3c-0.938,0.735-1.364,1.881-1.344,3.071c0.376,20.797,18.481,35.371,19.445,34.158
				c1.739-2.2,0.413-8.289-3.047-12.307c-3.489-4.041-4.33-9.74-2.775-14.849l0,0c1.233-4.06,3.497-7.738,6.569-10.667
				l13.955-13.066L136.156,551.459z"/>
			<path fill="#CCCCCC" d="M100.061,636.186h262.295c2.129,0,3.854-1.73,3.854-3.861l0,0c0-2.13-1.725-3.86-3.854-3.86H100.061
				c-2.131,0-3.864,1.73-3.864,3.86l0,0C96.197,634.455,97.93,636.186,100.061,636.186z"/>
			<path fill="#FAB9AF" d="M300.231,577.731l12.766,21.333c3.904,6.525,5.34,14.245,4.051,21.738l0,0
				c-0.731,4.192,2.416,8.053,6.667,8.158c13.747,0.339,40.35,0.836,41.111-0.416c3.911-6.379-12.913-9.234-26.124-13.711
				c-8.913-3.021-19.876-27.143-26.827-46.126l-10.42,6.602C300.651,575.847,300.19,576.765,300.231,577.731z"/>
			<path fill="#F14121" d="M338.44,622.179c5.646,0,11.408-1.294,16.736-2.346c0.606-0.124,1.244-0.079,1.826,0.13
				c6.164,2.187,9.898,5.195,7.824,8.582c-0.832,1.359-32.121,0.657-44.341,0.328c-2.559-0.065-4.43-2.386-3.992-4.905l0.803-4.584
				C324.206,621.143,331.289,622.179,338.44,622.179z"/>
			<path fill="#666666" d="M254.545,336.783c-14.116-2.825-30.975,8.738-34.616,26.906c-2.091,10.439-5.17,49.337-4.734,81.08
				c0.169,12.182-5.678,23.903-16.089,30.235c-1.689,1.031-3.25,2.169-4.599,3.405c-6.97,6.358-39.359,46.965-59.666,74.515
				c-0.633,4.307,0.004,10.266,2.411,13.095c25.991-20.364,70.06-58.708,77.467-65.473c4.117-3.759,8.716-8.16,12.457-12.49
				c15.969-10.699,41.879-92.391,45.254-109.25C276.073,360.636,268.661,339.609,254.545,336.783z"/>
			<ellipse fill="#424242" cx="245.738" cy="218.981" rx="21.959" ry="28.327"/>
			<path fill="#424242" d="M240.47,221.905c-0.348-15.68-13.042-28.859-28.7-29.754c-13.894-0.793-25.886,7.718-30.372,19.871
				c-1.573,4.257-5.75,7.031-10.284,6.961c-1.888-0.026-3.828,0.145-5.803,0.55c-11.474,2.352-20.384,12.043-21.591,23.698
				c-1.089,10.509,3.828,19.938,11.731,25.314c3.367,2.297,5.286,6.098,5.845,10.139c2.586,18.688,19.65,32.413,39.117,30.282
				c16.646-1.822,29.972-15.522,31.384-32.211c0.871-10.237-2.641-19.625-8.82-26.596
				C233.506,245.185,240.749,234.389,240.47,221.905z"/>
			<linearGradient id="SVGID_9_" gradientUnits="userSpaceOnUse" x1="317.8877" y1="226.8569" x2="444.123" y2="226.8569">
				<stop  offset="0" style="stop-color:#F14121"/>
				<stop  offset="0.1147" style="stop-color:#F76320"/>
				<stop  offset="1" style="stop-color:#FA9B23"/>
			</linearGradient>
			<path fill="url(#SVGID_9_)" d="M433.999,225.864c-5.542-1.187-10.644,1.176-13.494,5.236h-3.291v-30.341
				c0-5.562-4.509-10.072-10.07-10.072H373.19v-3.37c4.062-2.846,6.424-7.949,5.239-13.499c-1.03-4.774-4.864-8.686-9.626-9.771
				c-8.505-1.941-16.048,4.466-16.048,12.639c0,4.399,2.193,8.284,5.543,10.631v3.37h-30.337c-5.564,0-10.073,4.509-10.073,10.072
				V231.1h2.254c2.849-4.06,7.945-6.421,13.494-5.236c4.777,1.019,8.691,4.857,9.778,9.62c1.944,8.505-4.47,16.051-12.641,16.051
				c-4.4,0-8.283-2.194-10.631-5.542h-2.254v33.95c0,5.562,4.509,10.072,10.073,10.072h30.337v-2.333
				c-4.061-2.85-6.423-7.953-5.239-13.499c1.026-4.776,4.861-8.687,9.628-9.775c8.5-1.941,16.048,4.467,16.048,12.64
				c0,4.402-2.197,8.281-5.545,10.634v2.333h33.953c5.561,0,10.07-4.509,10.07-10.072v-33.95h3.291
				c2.352,3.348,6.231,5.542,10.633,5.542c8.173,0,14.58-7.545,12.634-16.048C442.69,230.724,438.776,226.887,433.999,225.864z"/>
			<path fill="#424242" d="M245.737,181.36c0,0,12.355,7.776,10.855,18.25c0,0,6.598-4.671,8.089-20.768
				C265.717,167.69,245.737,181.36,245.737,181.36z"/>
			<g>
				<path fill="#FAB9AF" d="M266.374,245.137c0,0-0.001,0.546-0.004,1.571c0.002,1.023,0.026,2.336,0.114,4.185
					c0.196,3.623,0.7,8.83,2.112,14.873c0.723,3.008,1.677,6.227,3.02,9.426c1.348,3.172,3.063,6.415,5.348,8.956
					c1.131,1.272,2.409,2.312,3.734,2.946c0.663,0.309,1.331,0.554,2.014,0.64c0.682,0.114,1.377,0.122,2.101-0.008
					c1.443-0.206,2.99-0.935,4.471-1.991c1.49-1.046,2.914-2.402,4.241-3.899c2.662-3.011,4.92-6.59,6.949-10.22
					c2.021-3.649,3.773-7.422,5.356-11.131c1.573-3.716,2.958-7.382,4.213-10.884c1.237-3.51,2.352-6.855,3.313-9.969
					c0.966-3.111,1.843-5.971,2.569-8.522c0.75-2.544,1.345-4.781,1.856-6.617c0.975-3.688,1.532-5.794,1.532-5.794l0.004-0.018
					c0.184-0.694,0.895-1.108,1.589-0.925c0.667,0.176,1.074,0.844,0.942,1.512c0,0-0.43,2.15-1.182,5.913
					c-0.401,1.877-0.861,4.163-1.459,6.771c-0.583,2.612-1.259,5.557-2.087,8.75c-0.81,3.198-1.764,6.647-2.839,10.283
					c-1.094,3.631-2.315,7.448-3.737,11.359c-1.436,3.907-3.049,7.917-4.995,11.904c-1.967,3.976-4.178,7.972-7.121,11.683
					c-1.478,1.848-3.132,3.634-5.129,5.198c-1.99,1.544-4.373,2.909-7.18,3.479c-2.774,0.632-5.868,0.235-8.371-0.856
					c-2.539-1.082-4.581-2.69-6.252-4.395c-3.35-3.442-5.508-7.253-7.227-10.909c-1.7-3.672-2.896-7.248-3.828-10.578
					c-1.839-6.67-2.512-12.378-2.855-16.374c-0.154-1.967-0.231-3.658-0.261-4.682c-0.026-1.024-0.041-1.57-0.041-1.57
					c-0.065-2.509,1.916-4.596,4.425-4.662s4.596,1.916,4.662,4.425C266.373,245.043,266.374,245.101,266.374,245.137z"/>
			</g>
			<path fill="#FAB9AF" d="M259.565,299.47c4.949-14.896,14.891-46.444,14.039-56.753c-0.543-6.605-6.062-11.664-12.693-11.664
				h-43.002c-7.128,0-12.964,5.653-13.167,12.779c-0.366,12.455,5.375,40.801,8.6,55.637H259.565z"/>
			<path fill="#FAB9AF" d="M251.089,366.729c4.947,17.856,45.156,144.798,31.281,148.641
				c-13.873,3.839-89.379-120.096-90.347-138.602c-0.917-17.551,9.256-36.565,23.131-40.408S246.147,348.87,251.089,366.729z"/>
			<path fill="#808080" d="M313.264,573.764c0.511-0.601,0.628-1.449,0.361-2.193c-10.749-29.758-25.181-67.454-28.258-74.574
				c-0.35-0.815-0.722-1.611-1.111-2.383C279,456.978,254.85,380.31,251.089,366.729c-4.942-17.859-22.059-34.21-35.934-30.368
				s-24.048,22.856-23.131,40.408c0.603,11.584,30.409,64.465,56.03,101.471c5.392,7.791,8.78,16.736,10.425,26.065
				c1.142,6.452,2.958,12.887,4.996,17.595c3.026,7.009,20.792,33.756,36.67,56.441c0.455,0.657,1.229,1.042,2.027,0.96
				C306.383,578.874,310.362,577.167,313.264,573.764z"/>
			<linearGradient id="SVGID_10_" gradientUnits="userSpaceOnUse" x1="196.4531" y1="298.4014" x2="273.2036" y2="298.4014">
				<stop  offset="0" style="stop-color:#F14121"/>
				<stop  offset="0.1147" style="stop-color:#F76320"/>
				<stop  offset="1" style="stop-color:#FA9B23"/>
			</linearGradient>
			<path fill="url(#SVGID_10_)" d="M208.425,318.354c2.224-6.244,2.894-12.926,1.958-19.492c-2.169-15.24-5.959-43.95-5.612-56.136
				c0.188-6.516,5.526-11.673,12.042-11.673h6.378c2.428,5.633,7.574,9.984,15.577,9.984c7.988,0,13.133-4.351,15.567-9.984h5.989
				c-6.511,13.932-4.168,32.309,7.023,43.031c-2.081,7.353-3.83,14.756-5.136,20.753c-1.775,8.123-0.992,16.587,2.205,24.263
				c5.499,13.19,9.853,34.342,8.558,42.722c-45.234,12.823-76.521-9.869-76.521-9.869L208.425,318.354z"/>
			<path fill="#C63600" d="M262.211,294.838c0.44-2.025,0.95-4.246,1.486-6.535c-6.509-1.627-12.911-3.758-19.155-6.498
				c-13.151-5.763-29.951-15.128-39.394-28.046c0.259,3.712,0.626,7.793,1.07,12.026c4.646,10.83,9.624,21.288,18.756,29.428
				c10.939,9.747,24.258,16.193,38.202,20.417C261.06,308.917,260.702,301.756,262.211,294.838z"/>
			<g>
				<polygon fill="#FAB9AF" points="245.737,234.013 226.228,231.966 232.401,210.618 245.019,212.178 				"/>
			</g>
			<path fill="#FA968C" d="M245.019,212.178l-12.617-1.56l-1.928,6.662c2.823,3.186,6.458,10.066,11.048,10.066
				c1.456,0,2.781-0.412,3.977-1.169L245.019,212.178z"/>
			<path fill="#FAB9AF" d="M245.456,222.5c-4.283-0.004-8.918-2.146-15.3-7.72c-3.667-3.203-6.384-8.788-6.384-12.558V181.36h32.12
				c0,0,2.41,11.078,0.07,22.07C254.208,211.675,248.825,222.5,245.456,222.5z"/>
			<path fill="#FAB9AF" d="M229.222,198.276c0,4.071-1.95,7.37-4.354,7.37c-2.403,0-5.05-5.334-5.05-9.403
				c0-4.071,2.646-5.333,5.05-5.333C227.272,190.909,229.222,194.206,229.222,198.276z"/>
			<path fill="#424242" d="M219.817,183.889c0-6.516,5.281-11.794,11.792-11.792l10.842,0.003c3.097,0.003,6.106-0.808,8.745-2.305
				c3.824-2.169,8.66-1.449,11.267,2.093c2.822,3.827,4.041,8.949-3.114,13.691c-3.552,2.358-8.753-0.254-12.216,0.878
				c-0.212-0.009-0.405-0.044-0.624-0.044h-9.556c-3.317,0-5.862,2.716-5.956,6.035c-0.062,2.099-1.783,3.782-3.897,3.782h-0.422
				l-1.528-4.903l-5.334,7.19V183.889z"/>
			<path fill="#FAB9AF" d="M325.342,206.925c0,0,2.245,11.088-0.913,12.896c-3.159,1.807-5.609,2.44-8.409-2.057
				c-2.802-4.498-4.503-12-4.624-16.707c-0.117-4.701,3.011-12.671,3.908-13.303c3.271-2.3,2.591,6.243,2.466,10.396
				c-0.127,4.151,0.139,8.855,2.154,8.351c2.018-0.503,1.666-8.475,3.783-9.815C325.823,195.344,325.342,206.925,325.342,206.925z"
				/>
			<path fill="#FAB9AF" d="M373.258,282.336c0,0-11.164-1.822-12.85,1.401c-1.686,3.224-2.229,5.693,2.369,8.326
				c4.599,2.629,12.166,4.045,16.875,3.985c4.7-0.059,12.544-3.487,13.139-4.407c2.18-3.355-6.334-2.353-10.477-2.069
				c-4.147,0.284-8.853,0.19-8.43-1.843c0.428-2.032,8.408-1.979,9.669-4.146C384.811,281.416,373.258,282.336,373.258,282.336z"/>
			<path fill="#424242" d="M253.495,180.996c-1.072,4.766,0.514,7.373-15.104,14.81c-15.622,7.439-20.565,4.262-25.445,12.27
				c0,0,2.133-13.266,10.759-17.819c8.626-4.554,23.592-7.53,28.386-18.073C252.091,172.184,254.231,177.738,253.495,180.996z"/>
			<g>
				<path fill="#FAB9AF" d="M217.629,244.358c0-0.001,0.034,0.21,0.062,0.322c0.008,0.056,0.047,0.209,0.092,0.391
					c0.042,0.177,0.091,0.382,0.169,0.632c0.279,0.973,0.774,2.476,1.669,4.328c0.888,1.852,2.151,4.056,3.889,6.427
					c1.724,2.379,3.986,4.879,6.702,7.382c1.33,1.282,2.879,2.457,4.443,3.715c1.653,1.158,3.323,2.409,5.193,3.502
					c1.798,1.193,3.814,2.173,5.799,3.297c1.023,0.512,2.079,0.996,3.133,1.505c0.528,0.253,1.06,0.507,1.593,0.762
					c0.548,0.227,1.099,0.455,1.653,0.684c1.109,0.456,2.227,0.915,3.354,1.378c1.143,0.429,2.314,0.815,3.482,1.23
					c2.321,0.873,4.762,1.522,7.198,2.249c1.212,0.382,2.46,0.674,3.71,0.971c1.249,0.301,2.502,0.604,3.758,0.907
					c2.523,0.569,5.088,1.03,7.64,1.553c2.569,0.444,5.158,0.807,7.729,1.215c2.58,0.358,5.17,0.598,7.732,0.901
					c1.28,0.163,2.562,0.267,3.841,0.349c1.277,0.094,2.549,0.187,3.812,0.279c1.265,0.087,2.52,0.198,3.77,0.264
					c1.252,0.045,2.495,0.091,3.728,0.136c2.467,0.069,4.891,0.246,7.27,0.251c2.38,0.018,4.709,0.035,6.977,0.051
					c2.269,0.047,4.476-0.035,6.611-0.086c2.137-0.053,4.202-0.104,6.184-0.153c3.965-0.189,7.601-0.363,10.822-0.517
					c3.228-0.119,6.028-0.421,8.343-0.577c4.627-0.36,7.271-0.567,7.271-0.567l0.035-0.002c0.716-0.056,1.341,0.479,1.397,1.195
					c0.054,0.686-0.44,1.29-1.111,1.388c0,0-2.64,0.379-7.26,1.042c-2.314,0.308-5.112,0.793-8.35,1.124
					c-3.235,0.348-6.879,0.84-10.874,1.194c-2,0.156-4.083,0.319-6.24,0.488c-2.158,0.166-4.387,0.368-6.689,0.443
					c-2.301,0.105-4.665,0.213-7.081,0.324c-2.417,0.117-4.894,0.089-7.411,0.125c-1.259,0.008-2.529,0.016-3.808,0.024
					c-1.279-0.012-2.568-0.069-3.866-0.102c-1.298-0.039-2.604-0.078-3.916-0.118c-1.313-0.029-2.632-0.079-3.956-0.188
					c-2.647-0.197-5.322-0.331-8.001-0.585c-2.676-0.305-5.369-0.567-8.057-0.913c-2.678-0.432-5.37-0.786-8.033-1.285
					c-1.328-0.276-2.654-0.55-3.976-0.825c-1.323-0.271-2.643-0.536-3.941-0.897c-2.604-0.683-5.204-1.292-7.72-2.141
					c-1.262-0.402-2.525-0.777-3.766-1.198c-1.231-0.459-2.453-0.915-3.665-1.367c-0.605-0.229-1.208-0.457-1.809-0.684
					c-0.591-0.258-1.178-0.515-1.763-0.771c-1.168-0.517-2.333-1.009-3.472-1.535c-2.239-1.148-4.458-2.21-6.507-3.493
					c-2.1-1.177-4.027-2.544-5.917-3.822c-1.819-1.392-3.604-2.703-5.184-4.154c-3.208-2.826-5.936-5.725-8.023-8.59
					c-2.114-2.841-3.693-5.543-4.829-7.878c-1.143-2.333-1.824-4.309-2.239-5.725c-0.403-1.341-0.594-2.501-0.569-2.368
					c-0.411-2.476,1.264-4.816,3.74-5.227C214.877,240.208,217.218,241.882,217.629,244.358z"/>
			</g>
			<path fill="#424242" d="M250.491,181.885c0,0,0.594,16.051,14.622,23.76c0,0-6.181-12.131-5.762-20.066
				C259.772,177.648,249.567,176.401,250.491,181.885z"/>
			<path fill="#F14121" d="M96.31,586.057c-0.528-1.31-0.03-2.808,1.186-3.527c0.991-0.596,3.66-2.235,5.661-3.469
				c0.869-0.535,1.961,0.037,2.077,1.051c1.3,11.487,6.504,21.896,16.273,26.861c2.553,3.402,2.916,9.216,1.538,10.952
				c-0.32,0.408-4.9-1.103-8.734-5.497C97.266,592.902,96.31,586.057,96.31,586.057z"/>
		</g>
	</g>
	<rect x="0.5" y="0.5" fill="none" width="1920" height="1080"/>
</g>
</svg>
