<?xml version="1.0" encoding="utf-8"?>
<!-- Generator: Adobe Illustrator 16.0.0, SVG Export Plug-In . SVG Version: 6.00 Build 0)  -->
<!DOCTYPE svg PUBLIC "-//W3C//DTD SVG 1.1//EN" "http://www.w3.org/Graphics/SVG/1.1/DTD/svg11.dtd">
<svg version="1.1" id="Layer_1" xmlns="http://www.w3.org/2000/svg" xmlns:xlink="http://www.w3.org/1999/xlink" x="0px" y="0px"
	 width="1920px" height="1080px" viewBox="0 0 1920 1080" enable-background="new 0 0 1920 1080" xml:space="preserve">
<g display="none">
	<g id="Logo_HD_2_" display="inline">
		<g id="Forma_1_4_">
			<g>
				<path fill="#F14121" d="M2080.965,47.391c-6.697-7.843-13.587-5.937-13.587-5.937s-4.268,8.585,1.845,16.269
					c0.562,0.706,1.135,1.328,1.701,1.883c0.529-0.048,1.238-0.025,2.182,0.107c-0.718-0.625-1.438-1.368-2.147-2.263
					c-5.228-6.568-1.821-13.739-1.821-13.739s5.207-1.09,10.66,4.837c2.582,2.808,4.549,7.146,2.756,13.996
					c0,0-0.938,0.271-2.396,0.197c0.002,0.002,0.006,0.004,0.009,0.005c0.714,0.384,1.367,0.666,1.819,0.952
					c0.687-0.09,1.086-0.213,1.086-0.213C2085.6,55.465,2083.861,50.785,2080.965,47.391z"/>
			</g>
		</g>
		<g id="Forma_1_copia_5_4_">
			<g>
				<path fill="#F14121" d="M2097.762,41.464c0,0-6.886-1.909-13.574,5.943c-2.896,3.397-4.631,8.082-2.101,16.109
					c0,0,0.399,0.124,1.087,0.214c0.451-0.286,1.105-0.568,1.821-0.953c0.003-0.001,0.007-0.003,0.009-0.005
					c-1.46,0.075-2.396-0.197-2.396-0.197c-1.793-6.857,0.175-11.2,2.752-14.01c5.447-5.935,10.647-4.843,10.647-4.843
					s3.403,7.179-1.815,13.753c-0.711,0.896-1.433,1.64-2.146,2.265c0.939-0.132,1.646-0.155,2.179-0.106
					c0.571-0.557,1.144-1.179,1.701-1.886C2102.025,50.058,2097.762,41.464,2097.762,41.464z"/>
			</g>
		</g>
		<g id="Forma_1_copia_3_4_">
			<g>
				<path fill="#F76320" d="M2093.593,51.629c-4.323,1.083-8.45,3.888-11.042,11.894c0,0,4.691,6.2,14.604,3.349
					c9.422-2.71,10.932-12.188,10.932-12.188S2103.588,49.128,2093.593,51.629z M2095.902,65.645
					c-8.473,2.437-12.385-2.585-12.385-2.585c2.516-6.625,6.629-9.018,10.354-9.806c7.873-1.664,11.477,2.25,11.477,2.25
					S2103.961,63.327,2095.902,65.645z"/>
			</g>
		</g>
		<g id="Forma_1_copia_4_4_">
			<g>
				<path fill="#F76320" d="M2071.533,51.629c-10.006-2.499-14.508,3.053-14.508,3.053s1.509,9.468,10.939,12.177
					c9.923,2.848,14.619-3.345,14.619-3.345C2079.994,55.512,2075.863,52.711,2071.533,51.629z M2069.223,65.632
					c-8.068-2.315-9.457-10.132-9.457-10.132s3.605-3.91,11.484-2.248c3.73,0.788,7.854,3.178,10.369,9.797
					C2081.619,63.049,2077.704,68.066,2069.223,65.632z"/>
			</g>
		</g>
		<g id="Forma_2_4_">
			<g>
				<path fill="#F14121" d="M2089.881,45.416c-1.356-5.746-7.293-8.939-7.293-8.939s-5.791,3.62-6.979,8.939
					c-0.916,4.105-1.021,7.371-1.021,7.371l2.117,1.333c0,0-0.275-5.405,1.334-9.332c1.296-3.166,4.547-5.331,4.547-5.331
					s2.539,1.256,4.706,5.331c2.054,3.868,1.411,9.568,1.411,9.568l1.803-1.726C2090.508,52.63,2090.842,49.473,2089.881,45.416z"/>
			</g>
		</g>
		<g id="Forma_1_copia_2_4_">
			<g>
				<path fill="#FA9B23" d="M2066.712,60.352c-9.608,3.713-10.077,10.831-10.077,10.831s6.695,6.859,15.957,3.646
					c9.739-3.38,9.996-11.132,9.996-11.132C2075.855,58.657,2070.866,58.746,2066.712,60.352z M2072.904,73.107
					c-7.919,2.748-13.563-2.832-13.563-2.832s0.688-5.263,8.074-8.437c3.502-1.504,8.241-1.92,14.116,2.035
					C2081.531,63.874,2081.232,70.217,2072.904,73.107z"/>
			</g>
		</g>
		<g id="Forma_1_copia_4_">
			<g>
				<path fill="#FA9B23" d="M2098.429,60.314c-4.155-1.609-9.146-1.698-15.88,3.351c0,0,0.258,7.77,9.999,11.157
					c9.265,3.22,15.958-3.654,15.958-3.654S2108.033,64.034,2098.429,60.314z M2092.232,73.096
					c-8.326-2.896-8.625-9.252-8.625-9.252c5.873-3.963,10.609-3.546,14.111-2.04c7.395,3.182,8.075,8.455,8.075,8.455
					S2100.153,75.85,2092.232,73.096z"/>
			</g>
		</g>
	</g>
	<g display="inline">
		
			<linearGradient id="SVGID_1_" gradientUnits="userSpaceOnUse" x1="2041.3838" y1="-496.4482" x2="3689.3574" y2="-496.4482" gradientTransform="matrix(1 0 0 1 336 938)">
			<stop  offset="0" style="stop-color:#FFFFFF"/>
			<stop  offset="0.518" style="stop-color:#FA9B23"/>
			<stop  offset="0.8208" style="stop-color:#F76320"/>
			<stop  offset="1" style="stop-color:#F14121"/>
		</linearGradient>
		<path fill="url(#SVGID_1_)" d="M3851.552-0.5H2554.334c31.598,16,69.574,46.921,91.475,99.942
			c30.908,74.834,29.801,160.109,68.438,232.083l2.805,1.035c14.111,24.821,33.242,47.874,60.419,68.261
			c107.11,80.333,242.858,153.717,267.776,287.832c34.959,188.188,354.805,256.604,513.24,131.642
			c49.797-39.279,122.729-90.462,122.729-90.462c67.264-47.836,108.253-63.965,184.979-72.99c8.479-0.998,16.31-2.667,24.31-4.896
			V37.974C3890.5,16.199,3873.32-0.5,3851.552-0.5z"/>
		<circle fill="#F14121" cx="2663.659" cy="166.454" r="29.009"/>
		<circle opacity="0.5" fill="#838383" enable-background="new    " cx="3087.641" cy="864.907" r="29.009"/>
		<circle fill="#838383" cx="2641.345" cy="251.25" r="11.159"/>
		<path fill="#FA9B23" d="M3056.4,795.732c0,6.158-4.996,11.152-11.158,11.152s-11.158-4.994-11.158-11.152
			c0-6.165,4.996-11.157,11.158-11.157C3051.405,784.575,3056.4,789.567,3056.4,795.732z"/>
		<circle fill="#F14121" cx="3815.104" cy="706.472" r="11.158"/>
		<path opacity="0.5" fill="#FA9B23" enable-background="new    " d="M3773.451,344.23c0,3.282-2.668,5.945-5.955,5.945
			c-3.286,0-5.947-2.663-5.947-5.945c0-3.286,2.661-5.951,5.947-5.951C3770.783,338.279,3773.451,340.944,3773.451,344.23z"/>
		<path fill="#FFFFFF" d="M3748.16,457.288c-3.289,0-5.952-2.659-5.952-5.945c0-3.287,2.663-5.955,5.952-5.955
			c3.285,0,5.947,2.668,5.947,5.955C3754.107,454.629,3751.445,457.288,3748.16,457.288z"/>
		<path opacity="0.8" fill="#FA9B23" enable-background="new    " d="M3832.954,557.705c-6.981,0-12.644-5.657-12.644-12.64
			c0-6.987,5.662-12.648,12.644-12.648c6.983,0,12.644,5.662,12.644,12.648C3845.597,552.048,3839.938,557.705,3832.954,557.705z"/>
		<path opacity="0.7" fill="#FFFFFF" enable-background="new    " d="M2746.225,173.892c-6.979,0-12.646-5.661-12.646-12.643
			c0-6.984,5.665-12.646,12.646-12.646c6.981,0,12.648,5.662,12.648,12.646C2758.873,168.23,2753.205,173.892,2746.225,173.892z"/>
	</g>
	<g display="inline">
		
			<image overflow="visible" enable-background="new    " width="805" height="306" id="GLAMMY_1_" xlink:href="1187936C1F3B88DF.png"  transform="matrix(0.1753 0 0 0.1753 2120.7656 39.5312)">
		</image>
		<rect x="2116.5" y="80.5" fill="#FFFFFF" width="150" height="12"/>
	</g>
	<rect x="2058.872" y="237.842" display="inline" fill="none" width="631.552" height="126.788"/>
	
		<text transform="matrix(1 0 0 1 2058.8721 280.3301)" display="inline" fill="#FA9B23" font-family="'Poppins-Bold'" font-size="57.4167">Más éxito para </text>
	
		<text transform="matrix(1 0 0 1 2058.8721 349.2295)" display="inline" fill="#FA9B23" font-family="'Poppins-Bold'" font-size="57.4167">tu evento</text>
	<rect x="2058.868" y="414.934" display="inline" fill="none" width="540.646" height="337.311"/>
	
		<text transform="matrix(1 0 0 1 2058.8682 436.1768)" display="inline" fill="#838383" font-family="'Poppins-Light'" font-size="28.7083">Somos una joven agencia de </text>
	
		<text transform="matrix(1 0 0 1 2058.8682 479.2402)" display="inline" fill="#838383" font-family="'Poppins-Light'" font-size="28.7083">modelos y edecanes ubicada en </text>
	
		<text transform="matrix(1 0 0 1 2058.8682 522.3018)" display="inline" fill="#838383" font-family="'Poppins-Light'" font-size="28.7083">Matagalpa, Nicaragua. Te ayudamos </text>
	
		<text transform="matrix(1 0 0 1 2058.8682 565.3652)" display="inline" fill="#838383" font-family="'Poppins-Light'" font-size="28.7083">a presentar tu marca o evento de </text>
	
		<text transform="matrix(1 0 0 1 2058.8682 608.4268)" display="inline" fill="#838383" font-family="'Poppins-Light'" font-size="28.7083">manera exitosa, encantar a tus </text>
	
		<text transform="matrix(1 0 0 1 2058.8682 651.4902)" display="inline" fill="#838383" font-family="'Poppins-Light'" font-size="28.7083">clientes y comunicarles </text>
	
		<text transform="matrix(1 0 0 1 2058.8682 694.5518)" display="inline" fill="#838383" font-family="'Poppins-Light'" font-size="28.7083">correctamente el mensaje de tus </text>
	
		<text transform="matrix(1 0 0 1 2058.8682 737.6152)" display="inline" fill="#838383" font-family="'Poppins-Light'" font-size="28.7083">productos o servicios. </text>
	<path display="inline" fill="#2F45FF" d="M2315.271,863.915c0,8.521-7.875,15.433-17.586,15.433h-221.295
		c-9.711,0-17.586-6.91-17.586-15.433v-32.154c0-8.521,7.875-15.432,17.586-15.432h221.295c9.711,0,17.586,6.909,17.586,15.432
		V863.915z"/>
	<rect x="2082.234" y="833.904" display="inline" fill="none" width="209.914" height="31.913"/>
	
		<text transform="matrix(1 0 0 1 2093.4668 857.7627)" display="inline" fill="#FFFFFF" font-family="'Poppins-Bold'" font-size="32.2416">Conócenos</text>
	<rect x="3188.393" y="41.201" display="inline" fill="none" width="685.67" height="29.518"/>
	
		<text transform="matrix(1 0 0 1 3188.3916 57.7246)" display="inline" fill="#FFFFFF" font-family="'Poppins-Regular'" font-size="22.3287">inicio                servicios                 portafolio</text>
	
		<text transform="matrix(1 0 0 1 3634.2568 57.7246)" display="inline" fill="#FFFFFF" font-family="'Poppins-Bold'" font-size="22.3287"> </text>
	
		<text transform="matrix(1 0 0 1 3638.7227 57.7246)" display="inline" fill="#2F45FF" font-family="'Poppins-Bold'" font-size="22.3287">             </text>
	
		<text transform="matrix(1 0 0 1 3696.7783 57.7246)" display="inline" fill="#F14121" font-family="'Poppins-Bold'" font-size="22.3287"> contacto</text>
	
		<rect x="1976.97" y="-1.45" display="inline" fill="none" stroke="#000000" stroke-miterlimit="10" width="1913.89" height="1076.562"/>
	<g display="inline">
		<g>
			<g>
				<g>
					<g>
						<defs>
							<rect id="SVGID_2_" x="1976.97" y="-1.45" width="1913.89" height="1076.562"/>
						</defs>
						<clipPath id="SVGID_3_">
							<use xlink:href="#SVGID_2_"  overflow="visible"/>
						</clipPath>
						<g id="Logo_HD_1_" opacity="0.2" clip-path="url(#SVGID_3_)">
							<g id="Forma_1_2_">
								<g>
									<path fill="#999999" d="M3767.927-84.864c0,0-207.604-57.447-409.386,178.89
										c-87.298,102.258-139.65,243.285-63.312,484.923c0,0,11.885,3.708,32.523,6.436c13.615-8.606,33.545-17.095,55.088-28.672
										c-43.967,2.224-71.953-6.094-71.953-6.094c-54.064-206.424,5.173-337.12,82.984-421.731
										c164.287-178.619,321.146-145.766,321.146-145.766s102.606,216.088-54.81,413.99
										c-21.312,26.794-42.928,49.224-64.412,67.982c28.39-3.969,49.688-4.605,65.632-3.168
										c17.105-16.674,34.157-35.456,50.979-56.604C3896.539,173.829,3767.927-84.864,3767.927-84.864z"/>
								</g>
							</g>
							<g id="Forma_1_copia_5_2_">
								<g>
									<path fill="#999999" d="M3261.449,94.505c-201.604-236.573-409.055-179.067-409.055-179.067
										s-128.498,258.957,55.471,490.685c16.812,21.176,33.849,39.979,50.945,56.67c15.932-1.443,37.213-0.803,65.578,3.169
										c-21.474-18.781-43.067-41.234-64.363-68.056c-157.289-198.105-54.75-414.412-54.75-414.412
										s156.738-32.894,320.883,145.919c77.749,84.695,136.934,215.518,82.914,422.153c0,0-27.971,8.328-71.911,6.1
										c21.537,11.593,41.456,20.089,55.062,28.71c20.631-2.729,32.504-6.44,32.504-6.44
										C3400.998,338.04,3348.684,196.872,3261.449,94.505z"/>
								</g>
							</g>
							<g id="Forma_1_copia_3_2_">
								<g>
									<path fill="#999999" d="M2978.036,221.748c-301.146-75.37-436.681,92.078-436.681,92.078s45.402,285.555,329.384,367.226
										c298.646,85.899,439.987-100.896,439.987-100.896C3232.684,338.868,3108.327,254.36,2978.036,221.748z M2908.429,644.037
										c-242.778-69.82-284.621-305.547-284.621-305.547s108.527-117.922,345.718-67.801
										c112.347,23.734,236.308,95.83,312.023,295.466C3281.549,566.155,3163.755,717.457,2908.429,644.037z"/>
								</g>
							</g>
							<g id="Forma_1_copia_4_2_">
								<g>
									<path fill="#999999" d="M3642.711,221.728c-130.445,32.579-254.948,117.019-333.074,358.091
										c0,0,141.494,186.633,440.5,100.811c284.301-81.606,329.762-366.904,329.762-366.904S3944.201,146.429,3642.711,221.728z
										 M3712.39,643.646c-255.618,73.356-373.553-77.812-373.553-77.812c75.825-199.462,199.925-271.494,312.399-295.209
										c237.459-50.071,346.106,67.742,346.106,67.742S3955.449,573.885,3712.39,643.646z"/>
								</g>
							</g>
							<g id="Forma_2_2_">
								<g>
									<path fill="#999999" d="M3550.633,256.622c0,0-3.115-98.379-30.715-222.104
										c-35.763-160.273-210.296-269.356-210.296-269.356s-178.733,96.233-219.729,269.356
										c-28.957,122.251-18.902,217.38-18.902,217.38l54.338,51.981c0,0-19.356-171.736,42.529-288.264
										c65.237-122.816,141.769-160.668,141.769-160.668s97.938,65.239,137.051,160.668
										c48.479,118.296,40.159,281.175,40.159,281.175L3550.633,256.622z"/>
								</g>
							</g>
							<g id="Forma_1_copia_2_2_">
								<g>
									<path fill="#999999" d="M3788.048,484.568c-125.241-48.397-275.562-51.062-478.438,100.739
										c0,0,7.745,233.62,301.246,335.453c279.077,96.838,480.831-109.839,480.831-109.839S4077.512,596.42,3788.048,484.568z
										 M3601.409,868.893C3350.488,781.827,3341.51,590.69,3341.51,590.69c176.981-119.183,319.814-106.622,425.277-61.326
										C3989.439,625,4010.104,783.59,4010.104,783.59S3839.99,951.685,3601.409,868.893z"/>
								</g>
							</g>
							<g id="Forma_1_copia_2_">
								<g>
									<path fill="#999999" d="M2832.348,483.446c-289.504,112.088-303.671,327.052-303.671,327.052
										s201.773,207.104,480.882,110.07c293.518-102.057,301.269-336.159,301.269-336.159
										C3107.929,432.287,2957.602,434.954,2832.348,483.446z M3019.005,868.588c-238.612,82.965-408.733-85.484-408.733-85.484
										s20.652-158.932,243.347-254.764c105.462-45.393,248.313-57.975,425.31,61.454
										C3278.924,589.794,3269.938,781.335,3019.005,868.588z"/>
								</g>
							</g>
						</g>
					</g>
				</g>
			</g>
		</g>
	</g>
</g>
<g id="FLORLOTUS" display="none">
	<g display="inline">
		<g>
			<g>
				<g>
					<defs>
						<rect id="SVGID_4_" width="1920" height="1080"/>
					</defs>
					<clipPath id="SVGID_5_">
						<use xlink:href="#SVGID_4_"  overflow="visible"/>
					</clipPath>
					<g id="Logo_HD_3_" opacity="0.13" clip-path="url(#SVGID_5_)">
						<g id="Forma_1_copia_4_5_">
							<g>
								<path fill="#999999" d="M1671.061,223.89c-130.858,32.683-255.763,117.393-334.139,359.235
									c0,0,141.946,187.229,441.907,101.132c285.207-81.867,330.813-368.076,330.813-368.076S1973.514,148.351,1671.061,223.89z
									 M1740.961,647.156c-256.434,73.595-374.745-78.062-374.745-78.062c76.067-200.1,200.563-272.361,313.397-296.152
									c238.217-50.23,347.215,67.958,347.215,67.958S1984.797,577.172,1740.961,647.156z"/>
							</g>
						</g>
						<g id="Forma_1_copia_2_5_">
							<g>
								<path fill="#999999" d="M1816.861,487.57c-125.646-48.556-276.445-51.225-479.971,101.062
									c0,0,7.771,234.365,302.209,336.523c279.973,97.146,482.365-110.189,482.365-110.189S2107.249,599.779,1816.861,487.57z
									 M1629.627,873.122c-251.723-87.344-260.729-279.091-260.729-279.091c177.546-119.562,320.834-106.962,426.635-61.522
									c223.363,95.941,244.095,255.038,244.095,255.038S1868.97,956.178,1629.627,873.122z"/>
							</g>
						</g>
					</g>
				</g>
			</g>
		</g>
	</g>
</g>
<g>
	<g>
		<path fill="#FAB9AF" d="M283.078,429.992c0,0,19.562-55.906,18.328-70.883c-0.594-7.234-6.641-12.773-13.906-12.773h-12.211
			c-2.516,0-4.578-1.992-4.664-4.508l-0.531-16.164l-13.812-1.711l-5.5,19.016c-0.578,1.992-2.406,3.367-4.484,3.367h-5.898
			c-7.805,0-14.195,6.195-14.422,14c-0.555,18.914,11.75,71.297,11.75,71.297s-25.531,72.57-20.055,78.93
			c0,0,74.227-6.164,87.086-20.914C315.875,476.898,283.078,429.992,283.078,429.992z"/>
		<path fill="#424242" d="M253.133,324.25h-4.742c-6.023,0-10.914-4.891-10.914-10.914v-13.281h15.656V324.25z"/>
		<path fill="#424242" d="M256.602,304.523c-8.539,8.539-21.172,9.758-28.211,2.719c-7.039-7.047-5.828-19.68,2.719-28.219
			c8.531-8.539,21.172-9.758,28.211-2.711C266.359,283.352,265.141,295.984,256.602,304.523z"/>
		<path fill="#838383" d="M284.086,298.125c0,0-3.188,7.188-0.828,14.516c2.359,7.336,0.898,16.414-5.203,23.055
			c0,0-1.18-10.375-3.25-15.352C272.742,315.375,274.102,300.75,284.086,298.125z"/>
		<path fill="#424242" d="M270.883,291.906c0,0,13.531,8.516,11.891,19.992c0,0,7.227-5.117,8.859-22.75
			C292.766,276.93,270.883,291.906,270.883,291.906z"/>
		<path fill="#FAB9AF" d="M303.266,361.82c-1.359,27.492,9.102,38.852,9.102,38.852c-0.188,0.141-0.312,0.578,0.938,0.148
			c1.133-0.164,3.797-2.508,4.625-3.312c16.133-16.305,31.906-68.648,30.828-65.352c1.594-4.867,8.898-3.172,8.219,1.883
			c-1.703,12.805-3.836,25.617-7.094,38.406c-0.742,3.203-1.766,6.391-2.641,9.602c-24.711,73.188-70.656,40.938-73.492-20.227
			c-0.383-8.367,6.055-15.125,14.07-15.492c8.156-0.383,15.07,5.922,15.453,14.078C303.289,360.875,303.289,361.359,303.266,361.82z
			"/>
		<path fill="#FA968C" d="M243.938,736.938l1.336,30.219c0.008,0.195,0,0.391-0.039,0.586l-1.891,10.844
			c-0.711,4.094,2.367,7.875,6.523,7.977c13.445,0.328,39.461,0.812,40.211-0.414c3.828-6.234-13.398-9.062-26.32-13.43
			c-8.719-2.953-7.531-29.211-6.539-40.977c0.195-2.266-2.328-3.727-4.211-2.469l-7.875,5.297
			C244.352,735.094,243.898,735.992,243.938,736.938z"/>
		<path fill="#424242" d="M264.273,779.93c5.844,0,11.484-0.609,16.938-1.664c6.547,2.156,10.992,4.414,8.867,7.883
			c-0.812,1.336-31.422,0.648-43.375,0.328c-2.492-0.062-4.328-2.336-3.898-4.797l0.781-4.492
			C250.344,778.914,257.273,779.93,264.273,779.93z"/>
		<path fill="#FA968C" d="M251.766,742.594c2.562,0.328,4.836-1.562,5.039-4.133c3.492-43.961,19.891-91.281,21.633-101.078
			c2.719-15.289-2.312-28.969-11.242-30.555c-8.922-1.586-18.367,9.516-21.086,24.805c-1.836,10.32-2.898,68.68-2.094,106.117
			c0.047,2.227,1.719,4.062,3.922,4.344L251.766,742.594z"/>
		<path fill="#FA968C" d="M303.352,502.266c-1.156,20.266-19.391,147.953-35.133,147.047
			c-15.734-0.898-23.031-130.047-21.875-150.312c1.164-20.258,14.859-35.961,30.609-35.055
			C292.695,464.844,304.508,482,303.352,502.266z"/>
		<path fill="#FAB9AF" d="M279.148,497.469c-0.352,20.289-16.961,132.766-32.734,132.492
			c-15.758-0.273-27.539-113.641-27.195-133.93c0.352-20.297,16.25-36.07,32.016-35.797C267,460.5,279.492,477.172,279.148,497.469z
			"/>
		
			<linearGradient id="SVGID_6_" gradientUnits="userSpaceOnUse" x1="5602.4658" y1="428.4492" x2="5692.6221" y2="428.4492" gradientTransform="matrix(-1 0 0 1 5909.5234 0)">
			<stop  offset="0" style="stop-color:#FA9B23"/>
			<stop  offset="0.8853" style="stop-color:#F76320"/>
			<stop  offset="1" style="stop-color:#F14121"/>
		</linearGradient>
		<path fill="url(#SVGID_6_)" d="M237.727,431.633c0,0-12.25-53.914-11.719-72.508c0.211-7.141,6.055-12.789,13.195-12.789h6.984
			c2.656,6.172,8.289,10.938,17.062,10.938c8.742,0,14.383-4.766,17.047-10.938h6.562c-7.133,15.258-4.57,35.391,7.688,47.133
			c-5.203,18.414-11.469,36.523-11.469,36.523s32.797,46.906,21.68,59.656c-12.859,14.75-87.086,20.914-87.086,20.914
			C212.195,502.562,237.727,431.633,237.727,431.633z"/>
		<path fill="#FA968C" d="M270.094,325.664l-13.812-1.711l-2.117,7.297c3.094,3.492,7.07,11.023,12.094,11.023
			c1.602,0,3.055-0.445,4.367-1.281L270.094,325.664z"/>
		<path fill="#FAB9AF" d="M270.805,337.25c-4.219,2.055-15.578-0.523-19.43-8.758c-2.258-4.82-4.547-9.609-4.547-13.734v-22.852H282
			c0,0,2.648,12.133,0.086,24.172C280.164,325.109,274.883,335.258,270.805,337.25z"/>
		<rect x="244.945" y="300.672" fill="#FF640A" width="6.609" height="3"/>
		<path fill="#FAB9AF" d="M252.789,310.438c0,4.453-2.133,8.07-4.766,8.07s-5.539-5.844-5.539-10.305s2.906-5.844,5.539-5.844
			S252.789,305.977,252.789,310.438z"/>
		<path fill="#424242" d="M255.406,281.758l11.875,0.008c3.398,0,6.688-0.891,9.578-2.531c4.188-2.375,9.484-1.586,12.344,2.297
			c3.094,4.188,4.43,9.797-3.406,14.992c-3.898,2.586-9.586-0.273-13.383,0.969c-0.234-0.016-0.438-0.055-0.688-0.055h-10.461
			c-3.633,0-6.422,2.977-6.531,6.609c-0.062,2.305-1.945,4.141-4.266,4.141h-0.461l-1.68-5.367l-5.375-4.945
			c-0.297-0.273-0.469-0.664-0.469-1.07v-2.133C242.484,287.539,248.273,281.758,255.406,281.758z"/>
		<path fill="#FAB9AF" d="M357.164,320.016c0,0,2.125,12.211-1.391,14.094c-3.508,1.883-6.211,2.5-9.141-2.508
			c-2.938-5.008-4.57-13.273-4.555-18.43c0.008-5.156,3.672-13.781,4.68-14.445c3.648-2.422,2.641,6.906,2.383,11.453
			c-0.266,4.547-0.117,9.703,2.109,9.211s2.078-9.234,4.438-10.633C358.047,307.352,357.164,320.016,357.164,320.016z"/>
		<path fill="#FAB9AF" d="M411.211,405.586c0,0-12-3.094-14.156,0.258c-2.156,3.344-2.992,5.992,1.758,9.32
			c4.758,3.32,12.875,5.617,18.016,6.016c5.133,0.406,14.031-2.562,14.773-3.508c2.703-3.438-6.68-3.188-11.234-3.297
			c-4.547-0.094-9.672-0.664-9.008-2.836c0.672-2.18,9.367-1.328,10.961-3.57C423.906,405.727,411.211,405.586,411.211,405.586z"/>
		
			<linearGradient id="SVGID_7_" gradientUnits="userSpaceOnUse" x1="5587.5391" y1="498.5337" x2="5706.6797" y2="498.5337" gradientTransform="matrix(-1 0 0 1 5909.5234 0)">
			<stop  offset="0" style="stop-color:#FA9B23"/>
			<stop  offset="0.8853" style="stop-color:#F76320"/>
			<stop  offset="1" style="stop-color:#F14121"/>
		</linearGradient>
		<path fill="url(#SVGID_7_)" d="M203.891,568.523c-0.656-7.43-1.047-15.062-1.047-22.891c0-68.711,26.664-124.414,59.562-124.414
			c32.906,0,59.578,55.703,59.578,124.414c0,7.828-0.391,15.461-1.047,22.891C283.688,577.852,244.836,578.719,203.891,568.523z"/>
		<path fill="#DF5735" d="M282.844,419.773L282.844,419.773c2.438-0.539,4.406-2.336,5.172-4.719l0.039-0.109
			c-28.336-1.438-52.883-21.148-61.688-47.289c0.781,8.922,2.695,20.68,4.734,31.664c2.07,11.188,11.016,19.781,22.258,21.477
			c0.117,0.016,0.234,0.039,0.344,0.055C261.766,422.055,274.883,421.531,282.844,419.773z"/>
		<path fill="#838383" d="M271.273,312.672c-17.789,8.305-28.469-0.062-34.078,8.773c0,0-3.828-17.758,6.625-21.383
			c11.836-4.094,32.586-6.75,38.125-18.367C281.945,281.695,289.07,304.367,271.273,312.672z"/>
		<path fill="#FAB9AF" d="M249.789,359.586c-0.008-0.125-0.031-0.25-0.062-0.367c16.625,49.305,128.461,45.422,151.969,45.781
			c5.016,0.07,5.719,7.344,0.805,8.375c-28.219,5.922-53.758,9.742-82.945,8.523c-95.938-5.211-115.047-70.594-86.516-74.781
			C241.109,345.938,248.602,351.516,249.789,359.586z"/>
		<path fill="#FAB9AF" d="M248.07,603.109c-8.102-4.078-27.344,10.164-34.336,24.031c-5.352,10.625-21.625,70.852-30.117,104.469
			c2.078,2.016,4.234,3.953,6.461,5.82c17.633-27.797,53.438-94.727,58.867-105.492C255.93,618.062,256.164,607.195,248.07,603.109z
			"/>
		<path fill="#FAB9AF" d="M187.562,716.797l-12.727,30.047c-1.18,2.781-3.156,5.141-5.703,6.773c-1.102,0.703-2.742,2.43-4.031,3.93
			c-1.023,1.18-1.094,2.898-0.18,4.164c4.438,6.062,16.766,17.578,18.617,19.195c2.07,1.812,16.836,5.086,17.328,3.883
			c0.812-1.953-0.844-3.727-3.617-5.562c-3.047-2.016-5.391-4.945-6.891-8.273c-2.023-4.492-3.805-8.422-5.141-11.359
			c-1.578-3.469-1.539-7.445,0.102-10.891l7.344-15.414L187.562,716.797z"/>
		<path fill="#424242" d="M181.008,785.281l-19.938-19.648c-1.047-1.133-1.125-2.867-0.164-4.078
			c0.82-1.023,1.805-2.281,2.773-3.531c0.508-0.648,1.5-0.672,2.055-0.07c16.531,17.758,20.922,22.961,29.289,19.258
			c3.938,2.492,7.242,5.352,6.516,7.672C201.008,786.562,181.008,785.281,181.008,785.281z"/>
	</g>
	
		<linearGradient id="SVGID_8_" gradientUnits="userSpaceOnUse" x1="4.4531" y1="867.4902" x2="1356" y2="867.4902" gradientTransform="matrix(1 0 0 -1 564 1315)">
		<stop  offset="0" style="stop-color:#FFFFFF"/>
		<stop  offset="0.4422" style="stop-color:#B3B3B3"/>
		<stop  offset="0.6896" style="stop-color:#808080"/>
		<stop  offset="0.8471" style="stop-color:#626262"/>
		<stop  offset="0.9786" style="stop-color:#4D4D4D"/>
	</linearGradient>
	<path fill="url(#SVGID_8_)" d="M1880.312,0H568.453c31.953,17.188,70.359,47.93,92.508,101.547
		c31.258,75.68,25.117,165.086,69.203,234.945c12.68,20.086,36.453,49.648,63.938,70.258
		c108.32,81.242,245.602,155.484,270.805,291.109C1100.25,888.172,1423.711,957.375,1583.93,831
		c50.367-39.719,124.117-91.477,124.117-91.477c68.023-48.375,109.633-64.68,187.219-73.805c8.578-1.008,16.695-2.695,24.734-4.953
		V39.867c0-11.008,0-26.656,0-39.867C1907.469,0,1891.32,0,1880.312,0z"/>
	<radialGradient id="SVGID_9_" cx="455.4219" cy="194.0781" r="23.3836" gradientUnits="userSpaceOnUse">
		<stop  offset="0" style="stop-color:#FA9B23"/>
		<stop  offset="0.8853" style="stop-color:#F76320"/>
		<stop  offset="1" style="stop-color:#F14121"/>
	</radialGradient>
	<path opacity="0.9" fill="url(#SVGID_9_)" d="M478.609,194.078c-12.617-4.766-20.352-12.625-23.188-23.578
		c-2.836,10.953-10.57,18.812-23.188,23.578c12.617,4.766,20.352,12.625,23.188,23.578
		C458.258,206.703,465.992,198.844,478.609,194.078L478.609,194.078z"/>
	<path opacity="0.9" fill="#FA9B23" enable-background="new    " d="M539.164,175.57c-4.789-1.805-7.719-4.789-8.789-8.945
		c-1.078,4.156-4.008,7.141-8.797,8.945c4.789,1.805,7.719,4.789,8.797,8.945C531.445,180.359,534.375,177.375,539.164,175.57
		L539.164,175.57z"/>
	<radialGradient id="SVGID_10_" cx="406.3711" cy="258.7266" r="12.0961" gradientUnits="userSpaceOnUse">
		<stop  offset="0.0056" style="stop-color:#C4C6C8"/>
		<stop  offset="0.2978" style="stop-color:#BCBEC0"/>
		<stop  offset="0.6573" style="stop-color:#A7A9AC"/>
		<stop  offset="1" style="stop-color:#9B9DA0"/>
	</radialGradient>
	<path opacity="0.8" fill="url(#SVGID_10_)" d="M418.367,258.727c-6.531-2.461-10.531-6.531-12-12.195
		c-1.461,5.664-5.461,9.734-11.992,12.195c6.531,2.469,10.531,6.531,11.992,12.195C407.836,265.258,411.836,261.195,418.367,258.727
		L418.367,258.727z"/>
	<g>
		<radialGradient id="SVGID_11_" cx="1726.582" cy="463.4062" r="14.5142" gradientUnits="userSpaceOnUse">
			<stop  offset="0" style="stop-color:#FA9B23"/>
			<stop  offset="0.8853" style="stop-color:#F76320"/>
			<stop  offset="1" style="stop-color:#F14121"/>
		</radialGradient>
		<path opacity="0.8" fill="url(#SVGID_11_)" enable-background="new    " d="M1740.977,463.406
			c-7.828-2.961-12.633-7.836-14.391-14.633c-1.758,6.797-6.555,11.672-14.398,14.633c7.844,2.961,12.641,7.836,14.398,14.633
			C1728.344,471.242,1733.148,466.367,1740.977,463.406L1740.977,463.406z"/>
		<path opacity="0.8" fill="#FFFFFF" d="M1650.32,371.43c-4.18-1.57-6.742-4.172-7.672-7.797c-0.938,3.625-3.492,6.227-7.672,7.797
			c4.18,1.578,6.734,4.18,7.672,7.805C1643.578,375.609,1646.141,373.008,1650.32,371.43L1650.32,371.43z"/>
		<path opacity="0.5" fill="#FA9B23" enable-background="new    " d="M1676.07,278.938c-2.984-1.125-4.805-2.977-5.477-5.562
			c-0.672,2.586-2.492,4.438-5.477,5.562c2.984,1.125,4.805,2.984,5.477,5.57C1671.266,281.922,1673.086,280.062,1676.07,278.938
			L1676.07,278.938z"/>
	</g>
</g>
</svg>
