<?xml version="1.0" encoding="utf-8"?>
<!-- Generator: Adobe Illustrator 16.0.0, SVG Export Plug-In . SVG Version: 6.00 Build 0)  -->
<!DOCTYPE svg PUBLIC "-//W3C//DTD SVG 1.1//EN" "http://www.w3.org/Graphics/SVG/1.1/DTD/svg11.dtd">
<svg version="1.1" id="Layer_1" xmlns="http://www.w3.org/2000/svg" xmlns:xlink="http://www.w3.org/1999/xlink" x="0px" y="0px"
	 width="1920px" height="1080px" viewBox="0 0 1920 1080" enable-background="new 0 0 1920 1080" xml:space="preserve">
<g display="none">
	<g id="Logo_HD_2_" display="inline">
		<g id="Forma_1_4_">
			<g>
				<path fill="#F14121" d="M2080.965,47.391c-6.697-7.843-13.587-5.937-13.587-5.937s-4.268,8.585,1.845,16.269
					c0.562,0.706,1.135,1.328,1.701,1.883c0.529-0.048,1.238-0.025,2.182,0.107c-0.718-0.625-1.438-1.368-2.147-2.263
					c-5.228-6.568-1.821-13.739-1.821-13.739s5.207-1.09,10.66,4.837c2.582,2.808,4.549,7.146,2.756,13.996
					c0,0-0.938,0.271-2.396,0.197c0.002,0.002,0.006,0.004,0.009,0.005c0.714,0.384,1.367,0.666,1.819,0.952
					c0.687-0.09,1.086-0.213,1.086-0.213C2085.6,55.465,2083.861,50.785,2080.965,47.391z"/>
			</g>
		</g>
		<g id="Forma_1_copia_5_4_">
			<g>
				<path fill="#F14121" d="M2097.762,41.464c0,0-6.886-1.909-13.574,5.943c-2.896,3.397-4.631,8.082-2.101,16.109
					c0,0,0.399,0.124,1.087,0.214c0.451-0.286,1.105-0.568,1.821-0.953c0.003-0.001,0.007-0.003,0.009-0.005
					c-1.46,0.075-2.396-0.197-2.396-0.197c-1.793-6.857,0.175-11.2,2.752-14.01c5.447-5.935,10.647-4.843,10.647-4.843
					s3.403,7.179-1.815,13.753c-0.711,0.896-1.433,1.64-2.146,2.265c0.939-0.132,1.646-0.155,2.179-0.106
					c0.571-0.557,1.144-1.179,1.701-1.886C2102.025,50.058,2097.762,41.464,2097.762,41.464z"/>
			</g>
		</g>
		<g id="Forma_1_copia_3_4_">
			<g>
				<path fill="#F76320" d="M2093.593,51.629c-4.323,1.083-8.45,3.888-11.042,11.894c0,0,4.691,6.2,14.604,3.349
					c9.422-2.71,10.932-12.188,10.932-12.188S2103.588,49.128,2093.593,51.629z M2095.902,65.645
					c-8.473,2.437-12.385-2.585-12.385-2.585c2.516-6.625,6.629-9.018,10.354-9.806c7.873-1.664,11.477,2.25,11.477,2.25
					S2103.961,63.327,2095.902,65.645z"/>
			</g>
		</g>
		<g id="Forma_1_copia_4_4_">
			<g>
				<path fill="#F76320" d="M2071.533,51.629c-10.006-2.499-14.508,3.053-14.508,3.053s1.509,9.468,10.939,12.177
					c9.923,2.848,14.619-3.345,14.619-3.345C2079.994,55.512,2075.863,52.711,2071.533,51.629z M2069.223,65.632
					c-8.068-2.315-9.457-10.132-9.457-10.132s3.605-3.91,11.484-2.248c3.73,0.788,7.854,3.178,10.369,9.797
					C2081.619,63.049,2077.704,68.066,2069.223,65.632z"/>
			</g>
		</g>
		<g id="Forma_2_4_">
			<g>
				<path fill="#F14121" d="M2089.881,45.416c-1.356-5.746-7.293-8.939-7.293-8.939s-5.791,3.62-6.979,8.939
					c-0.916,4.105-1.021,7.371-1.021,7.371l2.117,1.333c0,0-0.275-5.405,1.334-9.332c1.296-3.166,4.547-5.331,4.547-5.331
					s2.539,1.256,4.706,5.331c2.054,3.868,1.411,9.568,1.411,9.568l1.803-1.726C2090.508,52.63,2090.842,49.473,2089.881,45.416z"/>
			</g>
		</g>
		<g id="Forma_1_copia_2_4_">
			<g>
				<path fill="#FA9B23" d="M2066.712,60.352c-9.608,3.713-10.077,10.831-10.077,10.831s6.695,6.859,15.957,3.646
					c9.739-3.38,9.996-11.132,9.996-11.132C2075.855,58.657,2070.866,58.746,2066.712,60.352z M2072.904,73.107
					c-7.919,2.748-13.563-2.832-13.563-2.832s0.688-5.263,8.074-8.437c3.502-1.504,8.241-1.92,14.116,2.035
					C2081.531,63.874,2081.232,70.217,2072.904,73.107z"/>
			</g>
		</g>
		<g id="Forma_1_copia_4_">
			<g>
				<path fill="#FA9B23" d="M2098.429,60.314c-4.155-1.609-9.146-1.698-15.88,3.351c0,0,0.258,7.77,9.999,11.157
					c9.265,3.22,15.958-3.654,15.958-3.654S2108.033,64.034,2098.429,60.314z M2092.232,73.096
					c-8.326-2.896-8.625-9.252-8.625-9.252c5.873-3.963,10.609-3.546,14.111-2.04c7.395,3.182,8.075,8.455,8.075,8.455
					S2100.153,75.85,2092.232,73.096z"/>
			</g>
		</g>
	</g>
	<g display="inline">
		
			<linearGradient id="SVGID_1_" gradientUnits="userSpaceOnUse" x1="2391.3838" y1="-646.4482" x2="4039.3574" y2="-646.4482" gradientTransform="matrix(1 0 0 1 -14 1088)">
			<stop  offset="0" style="stop-color:#FFFFFF"/>
			<stop  offset="0.518" style="stop-color:#FA9B23"/>
			<stop  offset="0.8208" style="stop-color:#F76320"/>
			<stop  offset="1" style="stop-color:#F14121"/>
		</linearGradient>
		<path fill="url(#SVGID_1_)" d="M3851.552-0.5H2554.334c31.598,16,69.574,46.921,91.475,99.942
			c30.908,74.834,29.801,160.109,68.438,232.083l2.805,1.036c14.111,24.821,33.242,47.874,60.419,68.26
			c107.11,80.333,242.858,153.717,267.776,287.832c34.959,188.188,354.805,256.604,513.24,131.642
			c49.797-39.279,122.729-90.462,122.729-90.462c67.264-47.836,108.253-63.965,184.979-72.99c8.479-0.998,16.31-2.667,24.31-4.896
			V37.974C3890.5,16.199,3873.32-0.5,3851.552-0.5z"/>
		<circle fill="#F14121" cx="2663.659" cy="166.454" r="29.009"/>
		<circle opacity="0.5" fill="#838383" enable-background="new    " cx="3087.641" cy="864.907" r="29.009"/>
		<circle fill="#838383" cx="2641.345" cy="251.25" r="11.159"/>
		<path fill="#FA9B23" d="M3056.4,795.732c0,6.158-4.996,11.152-11.158,11.152s-11.158-4.994-11.158-11.152
			c0-6.165,4.996-11.157,11.158-11.157C3051.405,784.575,3056.4,789.567,3056.4,795.732z"/>
		<circle fill="#F14121" cx="3815.104" cy="706.472" r="11.158"/>
		<path opacity="0.5" fill="#FA9B23" enable-background="new    " d="M3773.451,344.23c0,3.283-2.668,5.946-5.955,5.946
			c-3.286,0-5.947-2.663-5.947-5.946c0-3.286,2.661-5.951,5.947-5.951C3770.783,338.279,3773.451,340.944,3773.451,344.23z"/>
		<path fill="#FFFFFF" d="M3748.16,457.288c-3.289,0-5.952-2.659-5.952-5.945c0-3.287,2.663-5.955,5.952-5.955
			c3.285,0,5.947,2.668,5.947,5.955C3754.107,454.629,3751.445,457.288,3748.16,457.288z"/>
		<path opacity="0.8" fill="#FA9B23" enable-background="new    " d="M3832.954,557.705c-6.981,0-12.644-5.657-12.644-12.64
			c0-6.987,5.662-12.648,12.644-12.648c6.983,0,12.644,5.662,12.644,12.648C3845.597,552.048,3839.938,557.705,3832.954,557.705z"/>
		<path opacity="0.7" fill="#FFFFFF" enable-background="new    " d="M2746.225,173.892c-6.979,0-12.646-5.661-12.646-12.643
			c0-6.984,5.665-12.646,12.646-12.646c6.981,0,12.648,5.662,12.648,12.646C2758.873,168.23,2753.205,173.892,2746.225,173.892z"/>
	</g>
	<g display="inline">
		<rect x="2116.5" y="80.5" fill="#FFFFFF" width="150" height="12"/>
	</g>
	<rect x="2058.872" y="237.842" display="inline" fill="none" width="631.552" height="126.788"/>
	
		<text transform="matrix(1 0 0 1 2058.8721 280.3301)" display="inline" fill="#FA9B23" font-family="'Poppins-Bold'" font-size="57.4167">Más éxito para </text>
	
		<text transform="matrix(1 0 0 1 2058.8721 349.2295)" display="inline" fill="#FA9B23" font-family="'Poppins-Bold'" font-size="57.4167">tu evento</text>
	<rect x="2058.868" y="414.934" display="inline" fill="none" width="540.646" height="337.311"/>
	
		<text transform="matrix(1 0 0 1 2058.8682 436.1768)" display="inline" fill="#838383" font-family="'Poppins-Light'" font-size="28.7083">Somos una joven agencia de </text>
	
		<text transform="matrix(1 0 0 1 2058.8682 479.2402)" display="inline" fill="#838383" font-family="'Poppins-Light'" font-size="28.7083">modelos y edecanes ubicada en </text>
	
		<text transform="matrix(1 0 0 1 2058.8682 522.3018)" display="inline" fill="#838383" font-family="'Poppins-Light'" font-size="28.7083">Matagalpa, Nicaragua. Te ayudamos </text>
	
		<text transform="matrix(1 0 0 1 2058.8682 565.3652)" display="inline" fill="#838383" font-family="'Poppins-Light'" font-size="28.7083">a presentar tu marca o evento de </text>
	
		<text transform="matrix(1 0 0 1 2058.8682 608.4268)" display="inline" fill="#838383" font-family="'Poppins-Light'" font-size="28.7083">manera exitosa, encantar a tus </text>
	
		<text transform="matrix(1 0 0 1 2058.8682 651.4902)" display="inline" fill="#838383" font-family="'Poppins-Light'" font-size="28.7083">clientes y comunicarles </text>
	
		<text transform="matrix(1 0 0 1 2058.8682 694.5518)" display="inline" fill="#838383" font-family="'Poppins-Light'" font-size="28.7083">correctamente el mensaje de tus </text>
	
		<text transform="matrix(1 0 0 1 2058.8682 737.6152)" display="inline" fill="#838383" font-family="'Poppins-Light'" font-size="28.7083">productos o servicios. </text>
	<path display="inline" fill="#2F45FF" d="M2315.271,863.915c0,8.521-7.875,15.433-17.586,15.433h-221.295
		c-9.711,0-17.586-6.91-17.586-15.433v-32.154c0-8.521,7.875-15.432,17.586-15.432h221.295c9.711,0,17.586,6.909,17.586,15.432
		V863.915z"/>
	<rect x="2082.234" y="833.904" display="inline" fill="none" width="209.914" height="31.913"/>
	
		<text transform="matrix(1 0 0 1 2093.4668 857.7627)" display="inline" fill="#FFFFFF" font-family="'Poppins-Bold'" font-size="32.2416">Conócenos</text>
	<rect x="3188.393" y="41.201" display="inline" fill="none" width="685.67" height="29.518"/>
	
		<text transform="matrix(1 0 0 1 3188.3916 57.7246)" display="inline" fill="#FFFFFF" font-family="'Poppins-Regular'" font-size="22.3287">inicio                servicios                 portafolio</text>
	
		<text transform="matrix(1 0 0 1 3634.2568 57.7246)" display="inline" fill="#FFFFFF" font-family="'Poppins-Bold'" font-size="22.3287"> </text>
	
		<text transform="matrix(1 0 0 1 3638.7227 57.7246)" display="inline" fill="#2F45FF" font-family="'Poppins-Bold'" font-size="22.3287">             </text>
	
		<text transform="matrix(1 0 0 1 3696.7783 57.7246)" display="inline" fill="#F14121" font-family="'Poppins-Bold'" font-size="22.3287"> contacto</text>
	
		<rect x="1976.97" y="-1.45" display="inline" fill="none" stroke="#000000" stroke-miterlimit="10" width="1913.89" height="1076.562"/>
	<g display="inline">
		<g>
			<g>
				<g>
					<g>
						<defs>
							<rect id="SVGID_2_" x="1976.97" y="-1.45" width="1913.89" height="1076.562"/>
						</defs>
						<clipPath id="SVGID_3_">
							<use xlink:href="#SVGID_2_"  overflow="visible"/>
						</clipPath>
						<g id="Logo_HD_1_" opacity="0.2" clip-path="url(#SVGID_3_)">
							<g id="Forma_1_2_">
								<g>
									<path fill="#999999" d="M3767.927-84.864c0,0-207.604-57.447-409.386,178.89
										c-87.298,102.258-139.65,243.285-63.312,484.923c0,0,11.885,3.708,32.523,6.436c13.615-8.606,33.545-17.095,55.088-28.672
										c-43.967,2.224-71.953-6.094-71.953-6.094c-54.064-206.424,5.173-337.12,82.984-421.731
										c164.287-178.619,321.146-145.766,321.146-145.766s102.606,216.088-54.81,413.99
										c-21.312,26.794-42.928,49.224-64.412,67.982c28.39-3.969,49.688-4.605,65.632-3.168
										c17.105-16.674,34.157-35.456,50.979-56.604C3896.539,173.829,3767.927-84.864,3767.927-84.864z"/>
								</g>
							</g>
							<g id="Forma_1_copia_5_2_">
								<g>
									<path fill="#999999" d="M3261.449,94.505c-201.604-236.573-409.055-179.067-409.055-179.067
										s-128.498,258.957,55.471,490.685c16.812,21.176,33.849,39.979,50.945,56.67c15.932-1.443,37.213-0.803,65.578,3.169
										c-21.474-18.781-43.067-41.234-64.363-68.056c-157.289-198.105-54.75-414.412-54.75-414.412
										s156.738-32.894,320.883,145.919c77.749,84.695,136.934,215.518,82.914,422.153c0,0-27.971,8.328-71.911,6.1
										c21.537,11.593,41.456,20.089,55.062,28.71c20.631-2.729,32.504-6.44,32.504-6.44
										C3400.998,338.04,3348.684,196.872,3261.449,94.505z"/>
								</g>
							</g>
							<g id="Forma_1_copia_3_2_">
								<g>
									<path fill="#999999" d="M2978.036,221.748c-301.146-75.37-436.681,92.078-436.681,92.078s45.402,285.555,329.384,367.226
										c298.646,85.899,439.987-100.896,439.987-100.896C3232.684,338.868,3108.327,254.36,2978.036,221.748z M2908.429,644.037
										c-242.778-69.82-284.621-305.547-284.621-305.547s108.527-117.922,345.718-67.801
										c112.347,23.734,236.308,95.83,312.023,295.466C3281.549,566.155,3163.755,717.457,2908.429,644.037z"/>
								</g>
							</g>
							<g id="Forma_1_copia_4_2_">
								<g>
									<path fill="#999999" d="M3642.711,221.728c-130.445,32.579-254.948,117.019-333.074,358.091
										c0,0,141.494,186.633,440.5,100.811c284.301-81.606,329.762-366.904,329.762-366.904S3944.201,146.429,3642.711,221.728z
										 M3712.39,643.646c-255.618,73.356-373.553-77.812-373.553-77.812c75.825-199.462,199.925-271.494,312.399-295.209
										c237.459-50.071,346.106,67.742,346.106,67.742S3955.449,573.885,3712.39,643.646z"/>
								</g>
							</g>
							<g id="Forma_2_2_">
								<g>
									<path fill="#999999" d="M3550.633,256.622c0,0-3.115-98.379-30.715-222.104
										c-35.763-160.273-210.296-269.356-210.296-269.356s-178.733,96.233-219.729,269.356
										c-28.957,122.251-18.902,217.38-18.902,217.38l54.338,51.981c0,0-19.356-171.736,42.529-288.264
										c65.237-122.816,141.769-160.668,141.769-160.668s97.938,65.239,137.051,160.668
										c48.479,118.296,40.159,281.175,40.159,281.175L3550.633,256.622z"/>
								</g>
							</g>
							<g id="Forma_1_copia_2_2_">
								<g>
									<path fill="#999999" d="M3788.048,484.568c-125.241-48.397-275.562-51.062-478.438,100.739
										c0,0,7.745,233.62,301.246,335.453c279.077,96.838,480.831-109.839,480.831-109.839S4077.512,596.42,3788.048,484.568z
										 M3601.409,868.893C3350.488,781.827,3341.51,590.69,3341.51,590.69c176.981-119.183,319.814-106.622,425.277-61.326
										C3989.439,625,4010.104,783.59,4010.104,783.59S3839.99,951.685,3601.409,868.893z"/>
								</g>
							</g>
							<g id="Forma_1_copia_2_">
								<g>
									<path fill="#999999" d="M2832.348,483.446c-289.504,112.088-303.671,327.052-303.671,327.052
										s201.773,207.104,480.882,110.07c293.518-102.057,301.269-336.159,301.269-336.159
										C3107.929,432.287,2957.602,434.954,2832.348,483.446z M3019.005,868.588c-238.612,82.965-408.733-85.484-408.733-85.484
										s20.652-158.932,243.347-254.764c105.462-45.393,248.313-57.975,425.31,61.454
										C3278.924,589.794,3269.938,781.335,3019.005,868.588z"/>
								</g>
							</g>
						</g>
					</g>
				</g>
			</g>
		</g>
	</g>
</g>
<g id="FLORLOTUS" display="none">
	<g display="inline">
		<g>
			<g>
				<g>
					<defs>
						<rect id="SVGID_4_" width="1920" height="1080"/>
					</defs>
					<clipPath id="SVGID_5_">
						<use xlink:href="#SVGID_4_"  overflow="visible"/>
					</clipPath>
					<g id="Logo_HD_3_" opacity="0.13" clip-path="url(#SVGID_5_)">
						<g id="Forma_1_copia_4_5_">
							<g>
								<path fill="#999999" d="M1671.061,223.89c-130.858,32.683-255.763,117.393-334.139,359.235
									c0,0,141.946,187.229,441.907,101.132c285.207-81.867,330.813-368.076,330.813-368.076S1973.514,148.351,1671.061,223.89z
									 M1740.961,647.156c-256.434,73.595-374.745-78.062-374.745-78.062c76.067-200.1,200.563-272.361,313.397-296.152
									c238.217-50.23,347.215,67.958,347.215,67.958S1984.797,577.172,1740.961,647.156z"/>
							</g>
						</g>
						<g id="Forma_1_copia_2_5_">
							<g>
								<path fill="#999999" d="M1816.861,487.57c-125.646-48.556-276.445-51.225-479.971,101.062
									c0,0,7.771,234.365,302.209,336.523c279.973,97.146,482.365-110.189,482.365-110.189S2107.249,599.779,1816.861,487.57z
									 M1629.627,873.122c-251.723-87.344-260.729-279.091-260.729-279.091c177.546-119.562,320.834-106.962,426.635-61.522
									c223.363,95.941,244.095,255.038,244.095,255.038S1868.97,956.178,1629.627,873.122z"/>
							</g>
						</g>
					</g>
				</g>
			</g>
		</g>
	</g>
</g>
<g>
	
		<linearGradient id="SVGID_6_" gradientUnits="userSpaceOnUse" x1="266.5" y1="566.8555" x2="2186.5" y2="566.8555" gradientTransform="matrix(1 0 0 -1 -266 725)">
		<stop  offset="0.0727" style="stop-color:#FFFFFF"/>
		<stop  offset="0.4712" style="stop-color:#B3B3B3"/>
		<stop  offset="0.6952" style="stop-color:#808080"/>
		<stop  offset="0.8669" style="stop-color:#4D4D4D"/>
		<stop  offset="0.9967" style="stop-color:#1A1A1A"/>
	</linearGradient>
	<path fill="url(#SVGID_6_)" d="M1920.5,205.006c0,0-386.654,210.215-914.85,52.8C342.026,60.03,0.5,99.406,0.5,99.406V0.5l1920-0.5
		V205.006z"/>
	<path fill="#FFFFFF" d="M695.319,81.429c-6.437-2.43-10.377-6.436-11.821-12.017c-1.446,5.581-5.382,9.586-11.819,12.017
		c6.435,2.43,10.373,6.435,11.819,12.017C684.942,87.863,688.882,83.859,695.319,81.429L695.319,81.429z"/>
	
		<linearGradient id="SVGID_7_" gradientUnits="userSpaceOnUse" x1="898.0117" y1="599.0889" x2="913.46" y2="599.0889" gradientTransform="matrix(1 0 0 -1 -266 725)">
		<stop  offset="0" style="stop-color:#F14121"/>
		<stop  offset="0.1147" style="stop-color:#F76320"/>
		<stop  offset="1" style="stop-color:#FA9B23"/>
	</linearGradient>
	<path opacity="0.8" fill="url(#SVGID_7_)" enable-background="new    " d="M647.46,125.911c-4.205-1.587-6.778-4.204-7.727-7.851
		c-0.942,3.646-3.513,6.264-7.722,7.851c4.206,1.587,6.78,4.205,7.722,7.851C640.682,130.116,643.255,127.498,647.46,125.911
		L647.46,125.911z"/>
	<path opacity="0.5" fill="#838383" enable-background="new    " d="M938.479,82.943c-12.947-4.887-20.877-12.946-23.785-24.181
		c-2.911,11.23-10.835,19.292-23.786,24.181c12.95,4.889,20.875,12.95,23.786,24.181C917.602,95.894,925.532,87.832,938.479,82.943
		L938.479,82.943z"/>
	<g>
		
			<linearGradient id="SVGID_8_" gradientUnits="userSpaceOnUse" x1="12905.9512" y1="471.2842" x2="12938.5059" y2="471.2842" gradientTransform="matrix(-1 0 0 -1 14612.6836 725)">
			<stop  offset="0" style="stop-color:#F14121"/>
			<stop  offset="0.1147" style="stop-color:#F76320"/>
			<stop  offset="1" style="stop-color:#FA9B23"/>
		</linearGradient>
		<path opacity="0.8" fill="url(#SVGID_8_)" enable-background="new    " d="M1674.178,253.718
			c8.861-3.346,14.291-8.862,16.276-16.549c1.99,7.687,7.413,13.204,16.278,16.549c-8.865,3.346-14.289,8.86-16.278,16.546
			C1688.467,262.579,1683.039,257.064,1674.178,253.718L1674.178,253.718z"/>
		<path opacity="0.8" fill="#FFFFFF" enable-background="new    " d="M1832.236,196.348c4.61-1.741,7.434-4.611,8.469-8.61
			c1.035,3.999,3.855,6.869,8.473,8.61c-4.615,1.74-7.438,4.611-8.473,8.61C1839.67,200.959,1836.848,198.088,1832.236,196.348
			L1832.236,196.348z"/>
		<path opacity="0.5" fill="#FA9B23" enable-background="new    " d="M1777.691,79.587c3.293-1.242,5.306-3.29,6.047-6.146
			c0.738,2.855,2.752,4.903,6.043,6.146c-3.291,1.243-5.305,3.292-6.043,6.145C1782.997,82.878,1780.982,80.831,1777.691,79.587
			L1777.691,79.587z"/>
	</g>
	<g>
		<g>
			<path fill="#FAB9AF" d="M190.383,471.577c0,0-14.269,16.42-16.889,19.035c-2.167,2.158-5.236,2.943-8.175,3.771
				c-0.941,0.267-2.167,1.231-3.202,2.045c-0.834,0.654-1.212,1.672-1.194,2.73c0.334,18.486,16.428,31.443,17.284,30.363
				c1.546-1.954,0.367-7.366-2.708-10.939c-3.101-3.592-3.849-8.658-2.467-13.199l0,0c1.097-3.609,3.109-6.878,5.84-9.482
				l12.405-11.615L190.383,471.577z"/>
			<path fill="#CCCCCC" d="M158.298,546.892h233.157c1.893,0,3.426-1.537,3.426-3.431l0,0c0-1.895-1.533-3.432-3.426-3.432H158.298
				c-1.894,0-3.436,1.537-3.436,3.432l0,0C154.863,545.354,156.404,546.892,158.298,546.892z"/>
			<path fill="#FAB9AF" d="M336.231,494.931l11.348,18.962c3.47,5.801,4.747,12.662,3.6,19.324l0,0
				c-0.649,3.726,2.148,7.157,5.927,7.25c12.22,0.303,35.867,0.744,36.544-0.368c3.477-5.671-11.479-8.209-23.222-12.189
				c-7.923-2.685-17.668-24.126-23.848-41.002l-9.262,5.869C336.604,493.256,336.195,494.072,336.231,494.931z"/>
			<path fill="#F14121" d="M370.196,534.44c5.019,0,10.14-1.149,14.877-2.086c0.539-0.108,1.106-0.069,1.623,0.116
				c5.479,1.945,8.799,4.617,6.955,7.629c-0.739,1.208-28.553,0.585-39.415,0.292c-2.275-0.058-3.938-2.121-3.549-4.361l0.714-4.074
				C357.543,533.52,363.839,534.44,370.196,534.44z"/>
			<path fill="#666666" d="M295.621,280.75c-12.548-2.512-27.534,7.766-30.77,23.917c-1.859,9.278-4.596,43.855-4.209,72.072
				c0.151,10.829-5.046,21.248-14.301,26.876c-1.501,0.917-2.889,1.928-4.088,3.027c-6.196,5.652-34.987,41.749-53.038,66.237
				c-0.562,3.828,0.004,9.125,2.144,11.641c23.104-18.102,62.276-52.187,68.861-58.2c3.659-3.341,7.748-7.254,11.073-11.104
				c14.195-9.51,37.227-82.126,40.227-97.113C314.757,301.953,308.169,283.262,295.621,280.75z"/>
			<ellipse fill="#424242" cx="287.792" cy="176.034" rx="19.521" ry="25.18"/>
			<path fill="#424242" d="M283.11,178.633c-0.31-13.939-11.594-25.653-25.512-26.449c-12.351-0.704-23.011,6.861-26.999,17.664
				c-1.398,3.783-5.111,6.25-9.141,6.188c-1.679-0.023-3.403,0.129-5.159,0.489c-10.199,2.09-18.12,10.705-19.192,21.064
				c-0.968,9.343,3.402,17.724,10.428,22.503c2.992,2.041,4.699,5.421,5.195,9.013c2.298,16.612,17.467,28.812,34.772,26.918
				c14.796-1.62,26.642-13.798,27.897-28.633c0.774-9.099-2.348-17.445-7.84-23.641C276.919,199.327,283.357,189.73,283.11,178.633z
				"/>
			
				<linearGradient id="SVGID_9_" gradientUnits="userSpaceOnUse" x1="617.9268" y1="541.9658" x2="730.1372" y2="541.9658" gradientTransform="matrix(1 0 0 -1 -266 725)">
				<stop  offset="0" style="stop-color:#F14121"/>
				<stop  offset="0.1147" style="stop-color:#F76320"/>
				<stop  offset="1" style="stop-color:#FA9B23"/>
			</linearGradient>
			<path fill="url(#SVGID_9_)" d="M455.139,182.152c-4.926-1.056-9.461,1.045-11.995,4.654h-2.926v-26.97
				c0-4.945-4.007-8.953-8.952-8.953h-30.181v-2.996c3.61-2.529,5.71-7.066,4.657-11.999c-0.915-4.244-4.323-7.721-8.557-8.686
				c-7.56-1.725-14.265,3.971-14.265,11.235c0,3.91,1.95,7.364,4.927,9.45v2.996h-26.966c-4.946,0-8.955,4.007-8.955,8.953v26.97
				h2.003c2.533-3.609,7.063-5.708,11.995-4.654c4.247,0.905,7.726,4.316,8.693,8.551c1.728,7.561-3.974,14.268-11.236,14.268
				c-3.912,0-7.363-1.951-9.451-4.927h-2.003v30.179c0,4.943,4.009,8.953,8.955,8.953h26.966v-2.073
				c-3.61-2.534-5.709-7.07-4.657-12c0.911-4.246,4.321-7.722,8.558-8.689c7.556-1.726,14.266,3.971,14.266,11.235
				c0,3.914-1.953,7.362-4.929,9.454v2.073h30.18c4.944,0,8.952-4.008,8.952-8.953v-30.179h2.926
				c2.09,2.976,5.539,4.927,9.451,4.927c7.265,0,12.96-6.707,11.23-14.265C462.865,186.472,459.386,183.062,455.139,182.152z"/>
			<path fill="#424242" d="M287.791,142.592c0,0,10.983,6.913,9.649,16.223c0,0,5.865-4.152,7.191-18.461
				C305.552,130.44,287.791,142.592,287.791,142.592z"/>
			<g>
				<path fill="#FAB9AF" d="M306.135,199.285c0,0-0.001,0.485-0.003,1.396c0.001,0.909,0.023,2.076,0.102,3.72
					c0.174,3.221,0.623,7.849,1.877,13.221c0.642,2.673,1.491,5.535,2.685,8.378c1.197,2.819,2.722,5.703,4.753,7.961
					c1.005,1.13,2.141,2.054,3.319,2.619c0.588,0.274,1.183,0.493,1.79,0.569c0.606,0.101,1.224,0.108,1.868-0.007
					c1.282-0.184,2.658-0.831,3.975-1.77c1.323-0.929,2.59-2.135,3.77-3.465c2.366-2.677,4.373-5.858,6.177-9.085
					c1.796-3.244,3.354-6.598,4.761-9.895c1.398-3.303,2.629-6.562,3.745-9.674c1.1-3.121,2.09-6.093,2.945-8.862
					c0.859-2.765,1.638-5.307,2.283-7.575c0.667-2.262,1.195-4.25,1.65-5.882c0.866-3.278,1.362-5.15,1.362-5.15l0.003-0.017
					c0.163-0.617,0.794-0.985,1.412-0.823c0.594,0.158,0.955,0.751,0.837,1.345c0,0-0.382,1.911-1.05,5.256
					c-0.357,1.668-0.766,3.7-1.297,6.019c-0.518,2.322-1.119,4.939-1.855,7.778c-0.72,2.843-1.568,5.909-2.523,9.141
					c-0.973,3.229-2.059,6.621-3.322,10.097c-1.276,3.473-2.71,7.038-4.44,10.582c-1.748,3.534-3.713,7.085-6.33,10.385
					c-1.313,1.643-2.785,3.23-4.559,4.621c-1.769,1.373-3.887,2.585-6.383,3.093c-2.466,0.562-5.215,0.208-7.44-0.761
					c-2.257-0.961-4.072-2.391-5.558-3.906c-2.978-3.06-4.896-6.447-6.424-9.697c-1.511-3.264-2.574-6.443-3.403-9.403
					c-1.635-5.929-2.233-11.002-2.538-14.555c-0.137-1.748-0.205-3.251-0.232-4.161c-0.023-0.911-0.037-1.396-0.037-1.396
					c-0.058-2.23,1.704-4.086,3.934-4.145c2.23-0.059,4.085,1.703,4.144,3.934C306.134,199.201,306.135,199.253,306.135,199.285z"/>
			</g>
			<path fill="#FAB9AF" d="M300.083,247.581c4.4-13.241,13.237-41.285,12.48-50.448c-0.484-5.871-5.389-10.368-11.283-10.368
				h-38.226c-6.336,0-11.524,5.025-11.704,11.359c-0.326,11.072,4.777,36.269,7.645,49.457H300.083L300.083,247.581z"/>
			<path fill="#FAB9AF" d="M292.548,307.369c4.397,15.872,40.14,128.712,27.807,132.128c-12.333,3.413-79.45-106.755-80.311-123.205
				c-0.815-15.601,8.227-32.502,20.561-35.919C272.939,276.957,288.156,291.494,292.548,307.369z"/>
			<path fill="#808080" d="M347.816,491.404c0.456-0.534,0.558-1.288,0.322-1.949c-9.556-26.453-22.384-59.96-25.119-66.289
				c-0.312-0.726-0.643-1.433-0.988-2.119c-4.672-33.455-26.14-101.605-29.483-113.678c-4.393-15.875-19.608-30.41-31.942-26.995
				c-12.333,3.416-21.376,20.317-20.561,35.918c0.536,10.297,27.031,57.305,49.806,90.199c4.792,6.925,7.805,14.876,9.267,23.169
				c1.016,5.735,2.629,11.456,4.441,15.642c2.69,6.229,18.482,30.005,32.596,50.17c0.405,0.584,1.093,0.926,1.801,0.853
				C341.7,495.946,345.237,494.429,347.816,491.404z"/>
			
				<linearGradient id="SVGID_10_" gradientUnits="userSpaceOnUse" x1="509.9824" y1="478.3691" x2="578.207" y2="478.3691" gradientTransform="matrix(1 0 0 -1 -266 725)">
				<stop  offset="0" style="stop-color:#F14121"/>
				<stop  offset="0.1147" style="stop-color:#F76320"/>
				<stop  offset="1" style="stop-color:#FA9B23"/>
			</linearGradient>
			<path fill="url(#SVGID_10_)" d="M254.624,264.367c1.978-5.549,2.572-11.49,1.741-17.326c-1.928-13.547-5.297-39.068-4.989-49.9
				c0.167-5.792,4.912-10.376,10.704-10.376h5.669c2.158,5.007,6.733,8.875,13.846,8.875c7.101,0,11.675-3.868,13.838-8.875h5.324
				c-5.788,12.383-3.705,28.719,6.243,38.251c-1.85,6.535-3.405,13.116-4.566,18.447c-1.577,7.221-0.881,14.744,1.961,21.568
				c4.887,11.725,8.758,30.527,7.607,37.976c-40.209,11.399-68.02-8.772-68.02-8.772L254.624,264.367z"/>
			<path fill="#C63600" d="M302.435,243.464c0.392-1.8,0.845-3.774,1.321-5.809c-5.786-1.446-11.476-3.34-17.027-5.776
				c-11.69-5.123-26.624-13.447-35.018-24.93c0.231,3.3,0.557,6.928,0.951,10.691c4.129,9.627,8.554,18.922,16.672,26.158
				c9.724,8.664,21.563,14.395,33.958,18.148C301.412,255.979,301.093,249.613,302.435,243.464z"/>
			<g>
				<polygon fill="#FAB9AF" points="287.791,189.396 270.449,187.576 275.937,168.6 287.153,169.986 				"/>
			</g>
			<path fill="#FA968C" d="M287.153,169.986l-11.215-1.386l-1.714,5.922c2.51,2.832,5.741,8.948,9.821,8.948
				c1.294,0,2.473-0.367,3.536-1.04L287.153,169.986z"/>
			<path fill="#FAB9AF" d="M287.542,179.162c-3.808-0.003-7.927-1.908-13.601-6.862c-3.259-2.848-5.674-7.812-5.674-11.163v-18.544
				h28.551c0,0,2.143,9.847,0.062,19.618C295.321,169.54,290.537,179.162,287.542,179.162z"/>
			<path fill="#FAB9AF" d="M273.11,157.629c0,3.618-1.733,6.551-3.87,6.551s-4.49-4.742-4.49-8.357c0-3.62,2.352-4.741,4.49-4.741
				C271.377,151.081,273.11,154.012,273.11,157.629z"/>
			<path fill="#424242" d="M264.75,144.84c0-5.792,4.695-10.483,10.483-10.481l9.638,0.002c2.752,0.003,5.427-0.719,7.773-2.049
				c3.399-1.928,7.698-1.288,10.015,1.861c2.509,3.402,3.592,7.955-2.768,12.17c-3.157,2.096-7.78-0.226-10.859,0.78
				c-0.188-0.008-0.36-0.039-0.554-0.039h-8.495c-2.948,0-5.211,2.414-5.294,5.364c-0.056,1.865-1.585,3.362-3.465,3.362h-0.374
				l-1.359-4.358l-4.742,6.391L264.75,144.84L264.75,144.84z"/>
			<path fill="#FAB9AF" d="M358.552,165.317c0,0,1.996,9.857-0.811,11.464c-2.809,1.606-4.985,2.169-7.476-1.829
				s-4.002-10.667-4.109-14.852c-0.104-4.178,2.676-11.263,3.474-11.824c2.908-2.045,2.303,5.549,2.191,9.24
				c-0.113,3.69,0.125,7.871,1.916,7.424c1.794-0.447,1.481-7.534,3.363-8.725C358.981,155.022,358.552,165.317,358.552,165.317z"/>
			<path fill="#FAB9AF" d="M401.146,232.351c0,0-9.924-1.62-11.423,1.245c-1.499,2.867-1.981,5.061,2.106,7.401
				c4.087,2.337,10.814,3.595,15,3.542c4.177-0.053,11.15-3.1,11.678-3.917c1.938-2.982-5.629-2.091-9.312-1.839
				c-3.688,0.253-7.871,0.169-7.495-1.638c0.381-1.807,7.474-1.759,8.595-3.686C411.415,231.533,401.146,232.351,401.146,232.351z"
				/>
			<path fill="#424242" d="M294.687,142.269c-0.953,4.237,0.457,6.554-13.426,13.165c-13.887,6.612-18.281,3.788-22.619,10.907
				c0,0,1.897-11.792,9.564-15.84c7.667-4.047,20.971-6.693,25.233-16.065C293.439,134.436,295.341,139.373,294.687,142.269z"/>
			<g>
				<path fill="#FAB9AF" d="M262.806,198.592c0-0.001,0.03,0.187,0.055,0.286c0.007,0.05,0.042,0.186,0.082,0.347
					c0.037,0.158,0.081,0.34,0.151,0.562c0.248,0.865,0.688,2.201,1.483,3.848c0.789,1.646,1.912,3.604,3.457,5.713
					c1.533,2.114,3.543,4.336,5.958,6.562c1.182,1.14,2.56,2.184,3.95,3.302c1.469,1.029,2.954,2.142,4.616,3.113
					c1.598,1.06,3.39,1.932,5.154,2.931c0.91,0.456,1.849,0.885,2.785,1.337c0.47,0.226,0.943,0.451,1.417,0.679
					c0.487,0.201,0.977,0.404,1.469,0.607c0.985,0.405,1.98,0.813,2.981,1.225c1.017,0.381,2.057,0.724,3.096,1.093
					c2.063,0.776,4.233,1.353,6.398,2c1.078,0.338,2.187,0.599,3.298,0.863c1.11,0.267,2.223,0.536,3.34,0.806
					c2.243,0.506,4.523,0.916,6.792,1.38c2.284,0.396,4.585,0.718,6.87,1.081c2.294,0.318,4.596,0.532,6.874,0.801
					c1.138,0.145,2.277,0.238,3.414,0.311c1.135,0.083,2.266,0.166,3.389,0.248c1.124,0.078,2.239,0.176,3.35,0.235
					c1.113,0.04,2.218,0.081,3.314,0.121c2.193,0.062,4.347,0.219,6.462,0.224c2.115,0.016,4.186,0.031,6.202,0.046
					c2.017,0.041,3.979-0.032,5.876-0.078c1.901-0.046,3.736-0.091,5.498-0.136c3.524-0.168,6.756-0.322,9.62-0.459
					c2.87-0.105,5.358-0.375,7.417-0.513c4.112-0.319,6.462-0.503,6.462-0.503l0.031-0.002c0.636-0.05,1.192,0.426,1.241,1.062
					c0.049,0.609-0.39,1.146-0.987,1.233c0,0-2.348,0.337-6.453,0.926c-2.058,0.274-4.545,0.705-7.423,0.999
					c-2.875,0.309-6.115,0.747-9.666,1.062c-1.777,0.139-3.629,0.283-5.547,0.434c-1.917,0.148-3.899,0.327-5.945,0.394
					c-2.045,0.094-4.146,0.189-6.294,0.288c-2.148,0.104-4.35,0.079-6.587,0.111c-1.119,0.007-2.249,0.015-3.385,0.022
					c-1.137-0.011-2.282-0.062-3.436-0.091c-1.154-0.035-2.315-0.069-3.481-0.105c-1.167-0.025-2.339-0.07-3.517-0.167
					c-2.353-0.175-4.73-0.294-7.112-0.52c-2.378-0.271-4.773-0.504-7.163-0.811c-2.38-0.385-4.772-0.699-7.14-1.143
					c-1.181-0.245-2.359-0.489-3.534-0.733c-1.177-0.242-2.35-0.477-3.504-0.798c-2.314-0.606-4.626-1.148-6.863-1.903
					c-1.122-0.357-2.244-0.691-3.348-1.065c-1.094-0.408-2.18-0.813-3.258-1.215c-0.537-0.204-1.073-0.406-1.606-0.608
					c-0.526-0.23-1.048-0.458-1.568-0.685c-1.039-0.46-2.074-0.898-3.086-1.365c-1.99-1.021-3.962-1.964-5.784-3.105
					c-1.866-1.046-3.58-2.262-5.26-3.398c-1.616-1.237-3.204-2.403-4.608-3.692c-2.852-2.512-5.277-5.089-7.131-7.635
					c-1.88-2.526-3.282-4.927-4.293-7.003c-1.016-2.073-1.62-3.83-1.989-5.089c-0.359-1.192-0.528-2.223-0.506-2.104
					c-0.365-2.202,1.124-4.282,3.325-4.647C260.359,194.903,262.44,196.391,262.806,198.592z"/>
			</g>
			<path fill="#424242" d="M292.017,143.059c0,0,0.529,14.268,12.998,21.12c0,0-5.494-10.783-5.123-17.836
				C300.267,139.293,291.195,138.185,292.017,143.059z"/>
			<path fill="#F14121" d="M154.964,502.332c-0.47-1.164-0.026-2.496,1.054-3.134c0.881-0.531,3.254-1.988,5.032-3.085
				c0.772-0.474,1.743,0.033,1.846,0.935c1.156,10.21,5.782,19.463,14.465,23.877c2.27,3.024,2.593,8.193,1.367,9.734
				c-0.284,0.362-4.355-0.98-7.763-4.886C155.813,508.416,154.964,502.332,154.964,502.332z"/>
		</g>
	</g>
	<rect x="0.5" y="0.5" fill="none" width="1920" height="1080"/>
</g>
</svg>
