<?xml version="1.0" encoding="utf-8"?>
<!-- Generator: Adobe Illustrator 16.0.0, SVG Export Plug-In . SVG Version: 6.00 Build 0)  -->
<!DOCTYPE svg PUBLIC "-//W3C//DTD SVG 1.1//EN" "http://www.w3.org/Graphics/SVG/1.1/DTD/svg11.dtd">
<svg version="1.1" id="Layer_1" xmlns="http://www.w3.org/2000/svg" xmlns:xlink="http://www.w3.org/1999/xlink" x="0px" y="0px"
	 width="32px" height="32px" viewBox="0 0 32 32" enable-background="new 0 0 32 32" xml:space="preserve">
<g id="Logo_HD">
	<g id="Forma_1">
		<g>
			<path fill="#F14121" d="M15.018,10.673c-4.106-4.809-8.33-3.64-8.33-3.64s-2.616,5.264,1.129,9.973
				c0.349,0.438,0.702,0.811,1.057,1.154c0.323-0.027,0.753-0.013,1.323,0.066c-0.44-0.384-0.883-0.839-1.319-1.388
				c-3.201-4.026-1.114-8.423-1.114-8.423s3.191-0.668,6.535,2.966c1.583,1.722,2.787,4.38,1.688,8.581c0,0-0.573,0.166-1.468,0.121
				c0.002,0.001,0.003,0.001,0.004,0.002c0.438,0.236,0.837,0.408,1.114,0.583c0.419-0.056,0.669-0.13,0.669-0.13
				C17.858,15.622,16.793,12.753,15.018,10.673z"/>
		</g>
	</g>
	<g id="Forma_1_copia_5">
		<g>
			<path fill="#F14121" d="M25.314,7.039c0,0-4.222-1.17-8.322,3.644c-1.776,2.083-2.84,4.954-1.288,9.877
				c0,0,0.249,0.074,0.668,0.13c0.277-0.175,0.677-0.348,1.114-0.583c0.002-0.001,0.005-0.003,0.008-0.004
				c-0.897,0.046-1.473-0.121-1.473-0.121c-1.097-4.204,0.106-6.866,1.689-8.589c3.338-3.638,6.528-2.968,6.528-2.968
				s2.086,4.4-1.114,8.432c-0.436,0.549-0.877,1.004-1.316,1.388c0.568-0.08,0.998-0.095,1.32-0.066
				c0.354-0.345,0.707-0.718,1.056-1.156C27.928,12.309,25.314,7.039,25.314,7.039z"/>
		</g>
	</g>
	<g id="Forma_1_copia_3">
		<g>
			<path fill="#F76320" d="M22.757,13.271c-2.65,0.664-5.181,2.383-6.769,7.292c0,0,2.876,3.802,8.952,2.053
				c5.777-1.661,6.701-7.472,6.701-7.472S28.884,11.738,22.757,13.271z M24.174,21.864c-5.194,1.492-7.591-1.586-7.591-1.586
				c1.541-4.062,4.062-5.528,6.348-6.011c4.825-1.021,7.033,1.379,7.033,1.379S29.114,20.443,24.174,21.864z"/>
		</g>
	</g>
	<g id="Forma_1_copia_4">
		<g>
			<path fill="#F76320" d="M9.234,13.271C3.1,11.738,0.34,15.143,0.34,15.143s0.926,5.807,6.71,7.465
				c6.082,1.747,8.962-2.052,8.962-2.052C14.422,15.651,11.888,13.935,9.234,13.271z M7.817,21.855
				c-4.944-1.419-5.797-6.211-5.797-6.211s2.21-2.398,7.04-1.379c2.29,0.483,4.813,1.947,6.356,6.006
				C15.417,20.271,13.018,23.347,7.817,21.855z"/>
		</g>
	</g>
	<g id="Forma_2">
		<g>
			<path fill="#F14121" d="M20.482,9.462c-0.834-3.521-4.471-5.48-4.471-5.48s-3.551,2.22-4.279,5.48
				c-0.562,2.518-0.624,4.52-0.624,4.52l1.298,0.816c0,0-0.169-3.313,0.815-5.721c0.797-1.941,2.79-3.27,2.79-3.27
				s1.557,0.771,2.884,3.27c1.26,2.37,0.866,5.866,0.866,5.866l1.104-1.06C20.866,13.884,21.072,11.95,20.482,9.462z"/>
		</g>
	</g>
	<g id="Forma_1_copia_2">
		<g>
			<path fill="#FA9B23" d="M6.277,18.618C0.39,20.895,0.1,25.258,0.1,25.258s4.104,4.205,9.784,2.235
				c5.972-2.07,6.128-6.824,6.128-6.824C11.885,17.579,8.825,17.634,6.277,18.618z M10.075,26.438
				c-4.854,1.685-8.314-1.736-8.314-1.736s0.421-3.226,4.949-5.172c2.146-0.921,5.052-1.177,8.653,1.248
				C15.363,20.778,15.18,24.668,10.075,26.438z"/>
		</g>
	</g>
	<g id="Forma_1_copia">
		<g>
			<path fill="#FA9B23" d="M25.723,18.596c-2.55-0.986-5.607-1.04-9.736,2.055c0,0,0.157,4.763,6.13,6.839
				c5.68,1.974,9.784-2.239,9.784-2.239S31.611,20.877,25.723,18.596z M21.924,26.433c-5.104-1.777-5.288-5.673-5.288-5.673
				c3.602-2.429,6.508-2.174,8.654-1.249c4.531,1.948,4.949,5.182,4.949,5.182S26.779,28.119,21.924,26.433z"/>
		</g>
	</g>
</g>
</svg>
