<?xml version="1.0" encoding="utf-8"?>
<!-- Generator: Adobe Illustrator 16.0.0, SVG Export Plug-In . SVG Version: 6.00 Build 0)  -->
<!DOCTYPE svg PUBLIC "-//W3C//DTD SVG 1.1//EN" "http://www.w3.org/Graphics/SVG/1.1/DTD/svg11.dtd">
<svg version="1.1" id="Layer_1" xmlns="http://www.w3.org/2000/svg" xmlns:xlink="http://www.w3.org/1999/xlink" x="0px" y="0px"
	 width="1920px" height="1080px" viewBox="0 0 1920 1080" enable-background="new 0 0 1920 1080" xml:space="preserve">
<g>
	
		<linearGradient id="SVGID_1_" gradientUnits="userSpaceOnUse" x1="11.4424" y1="869.8047" x2="1356" y2="869.8047" gradientTransform="matrix(1 0 0 -1 564 1315)">
		<stop  offset="0" style="stop-color:#FFFFFF"/>
		<stop  offset="0.518" style="stop-color:#FA9B23"/>
		<stop  offset="0.8208" style="stop-color:#F76320"/>
		<stop  offset="1" style="stop-color:#F14121"/>
	</linearGradient>
	<path fill="url(#SVGID_1_)" d="M1880.516,0H575.442c31.788,17.1,69.995,47.683,92.027,101.025
		c31.097,75.288,24.985,164.229,68.85,233.727c12.61,19.979,36.266,49.389,63.605,69.895
		c107.761,80.819,244.33,154.677,269.398,289.604c35.17,189.327,356.954,258.172,516.349,132.453
		c50.1-39.517,123.475-91.001,123.475-91.001c67.67-48.126,109.06-64.349,186.246-73.43c8.533-1.004,16.607-2.681,24.607-4.926
		V39.663c0-10.952,0-26.52,0-39.663C1907.532,0,1891.467,0,1880.516,0z"/>
	<circle display="none" fill="#FA9B23" cx="685.429" cy="168.921" r="29.185"/>
	<circle display="none" opacity="0.5" fill="#838383" enable-background="new    " cx="1111.979" cy="871.604" r="29.185"/>
	<circle display="none" fill="#838383" cx="662.98" cy="254.231" r="11.226"/>
	<path display="none" fill="#FA9B23" d="M1080.549,802.011c0,6.198-5.025,11.225-11.226,11.225c-6.199,0-11.226-5.025-11.226-11.225
		c0-6.202,5.025-11.226,11.226-11.226S1080.549,795.809,1080.549,802.011z"/>
	<circle display="none" fill="#F14121" cx="1843.848" cy="712.21" r="11.225"/>
	<circle display="none" opacity="0.5" fill="#FA9B23" enable-background="new    " cx="1795.955" cy="347.774" r="5.987"/>
	<path display="none" fill="#FFFFFF" d="M1776.498,461.517c-3.309,0-5.987-2.675-5.987-5.98s2.681-5.99,5.987-5.99
		c3.305,0,5.984,2.685,5.984,5.99S1779.803,461.517,1776.498,461.517z"/>
	<path display="none" opacity="0.8" fill="#FA9B23" enable-background="new    " d="M1861.807,562.541
		c-7.024,0-12.721-5.69-12.721-12.716c0-7.029,5.695-12.726,12.721-12.726c7.024,0,12.719,5.695,12.719,12.726
		C1874.525,556.851,1868.831,562.541,1861.807,562.541z"/>
	<path display="none" opacity="0.7" fill="#FFFFFF" enable-background="new    " d="M768.495,176.403
		c-7.025,0-12.726-5.695-12.726-12.719c0-7.027,5.7-12.723,12.726-12.723c7.022,0,12.725,5.696,12.725,12.723
		C781.22,170.708,775.518,176.403,768.495,176.403z"/>
	<linearGradient id="SVGID_2_" gradientUnits="userSpaceOnUse" x1="656.7373" y1="169.1924" x2="715.1074" y2="169.1924">
		<stop  offset="0" style="stop-color:#F14121"/>
		<stop  offset="0.1147" style="stop-color:#F76320"/>
		<stop  offset="1" style="stop-color:#FA9B23"/>
	</linearGradient>
	<path fill="url(#SVGID_2_)" d="M715.107,169.193c-15.889-5.999-25.618-15.89-29.185-29.672
		c-3.567,13.781-13.295,23.672-29.185,29.672c15.889,5.999,25.618,15.889,29.185,29.671
		C689.49,185.082,699.218,175.192,715.107,169.193L715.107,169.193z"/>
	<path opacity="0.8" fill="#FFFFFF" enable-background="new    " d="M781.12,163.52c-6.899-2.604-11.123-6.899-12.672-12.883
		c-1.549,5.983-5.772,10.278-12.672,12.883c6.899,2.605,11.123,6.899,12.672,12.883C769.997,170.419,774.221,166.125,781.12,163.52
		L781.12,163.52z"/>
	<path opacity="0.8" fill="#838383" d="M673.648,249.432c-6.009-2.268-9.688-6.009-11.038-11.222
		c-1.35,5.212-5.028,8.953-11.038,11.222c6.009,2.269,9.688,6.01,11.038,11.222C663.959,255.441,667.639,251.701,673.648,249.432
		L673.648,249.432z"/>
	<path opacity="0.5" fill="#838383" enable-background="new    " d="M1137.22,891.403c-13.882-5.239-22.381-13.881-25.5-25.925
		c-3.117,12.041-11.614,20.685-25.5,25.925c13.884,5.242,22.383,13.885,25.5,25.925
		C1114.839,905.288,1123.338,896.646,1137.22,891.403L1137.22,891.403z"/>
	<linearGradient id="SVGID_3_" gradientUnits="userSpaceOnUse" x1="1058.3398" y1="802.2188" x2="1080.6816" y2="802.2188">
		<stop  offset="0" style="stop-color:#F14121"/>
		<stop  offset="0.1147" style="stop-color:#F76320"/>
		<stop  offset="1" style="stop-color:#FA9B23"/>
	</linearGradient>
	<path fill="url(#SVGID_3_)" d="M1080.682,802.219c-6.081-2.295-9.805-6.081-11.171-11.357c-1.365,5.275-5.088,9.062-11.171,11.357
		c6.082,2.297,9.806,6.082,11.171,11.357C1070.877,808.301,1074.601,804.516,1080.682,802.219L1080.682,802.219z"/>
	<linearGradient id="SVGID_4_" gradientUnits="userSpaceOnUse" x1="1832.6992" y1="712.5801" x2="1854.0537" y2="712.5801">
		<stop  offset="0" style="stop-color:#F14121"/>
		<stop  offset="0.1147" style="stop-color:#F76320"/>
		<stop  offset="1" style="stop-color:#FA9B23"/>
	</linearGradient>
	<path fill="url(#SVGID_4_)" d="M1854.054,712.58c-5.812-2.194-9.372-5.812-10.678-10.855c-1.305,5.042-4.863,8.661-10.677,10.855
		c5.813,2.195,9.372,5.812,10.677,10.854C1844.682,718.393,1848.241,714.775,1854.054,712.58L1854.054,712.58z"/>
	<path opacity="0.8" fill="#FA9B23" enable-background="new    " d="M1874.064,549.625c-6.388-2.411-10.299-6.387-11.733-11.929
		c-1.434,5.541-5.345,9.518-11.732,11.929c6.388,2.412,10.299,6.388,11.732,11.928
		C1863.766,556.013,1867.677,552.037,1874.064,549.625L1874.064,549.625z"/>
	<path opacity="0.8" fill="#FFFFFF" d="M1783.869,455.497c-4.155-1.568-6.699-4.154-7.632-7.758
		c-0.932,3.604-3.476,6.19-7.631,7.758c4.155,1.569,6.699,4.155,7.631,7.758C1777.17,459.652,1779.714,457.066,1783.869,455.497
		L1783.869,455.497z"/>
	<path opacity="0.5" fill="#FA9B23" enable-background="new    " d="M1801.523,347.556c-2.965-1.119-4.78-2.964-5.446-5.537
		c-0.665,2.572-2.48,4.417-5.445,5.537c2.965,1.12,4.78,2.965,5.445,5.536C1796.743,350.521,1798.559,348.676,1801.523,347.556
		L1801.523,347.556z"/>
</g>
<g id="FLORLOTUS" display="none">
	<defs>
		<rect id="SVGID_8_" width="1920" height="1080"/>
	</defs>
	<clipPath id="SVGID_5_" display="inline">
		<use xlink:href="#SVGID_8_"  overflow="visible"/>
	</clipPath>
	<g id="Logo_HD_3_" display="inline" opacity="0.13" clip-path="url(#SVGID_5_)">
		<g id="Forma_1_5_">
			<g>
				<path fill="#999999" d="M1796.676-83.68c0,0-208.271-57.631-410.693,179.46c-87.576,102.584-140.096,244.062-63.514,486.472
					c0,0,11.918,3.72,32.627,6.456c13.658-8.638,33.652-17.149,55.264-28.764c-44.107,2.23-72.184-6.113-72.184-6.113
					c-54.236-207.083,5.189-338.196,83.25-423.078c164.812-179.189,322.173-146.231,322.173-146.231s102.937,216.778-54.982,415.312
					c-21.38,26.88-43.063,49.381-64.617,68.204c28.478-3.982,49.844-4.624,65.839-3.178c17.164-16.727,34.269-35.569,51.146-56.79
					C1925.699,175.838,1796.676-83.68,1796.676-83.68z"/>
			</g>
		</g>
		<g id="Forma_1_copia_5_5_">
			<g>
				<path fill="#999999" d="M1288.581,96.262C1086.334-141.067,878.22-83.377,878.22-83.377s-128.908,259.784,55.648,492.251
					c16.865,21.244,33.957,40.106,51.108,56.851c15.982-1.447,37.331-0.805,65.786,3.18c-21.538-18.841-43.204-41.365-64.568-68.273
					C828.403,201.894,931.27-15.104,931.27-15.104s157.239-32.999,321.908,146.385c77.997,84.965,137.37,216.206,83.179,423.5
					c0,0-28.06,8.354-72.141,6.119c21.605,11.63,41.588,20.153,55.235,28.802c20.696-2.738,32.607-6.462,32.607-6.462
					C1428.575,340.574,1376.094,198.956,1288.581,96.262z"/>
			</g>
		</g>
		<g id="Forma_1_copia_3_5_">
			<g>
				<path fill="#999999" d="M1004.263,223.911c-302.105-75.61-438.074,92.372-438.074,92.372s45.55,286.466,330.435,368.399
					c299.601,86.173,441.392-101.22,441.392-101.22C1259.724,341.404,1134.97,256.627,1004.263,223.911z M934.433,647.548
					c-243.553-70.043-285.53-306.522-285.53-306.522s108.874-118.298,346.82-68.017c112.703,23.81,237.06,96.135,313.021,296.41
					C1308.745,569.418,1190.574,721.203,934.433,647.548z"/>
			</g>
		</g>
		<g id="Forma_1_copia_4_5_">
			<g>
				<path fill="#999999" d="M1671.061,223.89c-130.862,32.683-255.763,117.393-334.139,359.235c0,0,141.946,187.229,441.907,101.132
					c285.207-81.867,330.813-368.076,330.813-368.076S1973.514,148.351,1671.061,223.89z M1740.961,647.156
					c-256.434,73.595-374.745-78.06-374.745-78.06c76.067-200.1,200.563-272.361,313.397-296.152
					c238.217-50.23,347.215,67.958,347.215,67.958S1984.797,577.172,1740.961,647.156z"/>
			</g>
		</g>
		<g id="Forma_2_5_">
			<g>
				<path fill="#999999" d="M1578.688,258.896c0,0-3.125-98.694-30.812-222.813c-35.877-160.785-210.967-270.216-210.967-270.216
					s-179.305,96.54-220.432,270.216c-29.05,122.642-18.967,218.075-18.967,218.075l54.512,52.147
					c0,0-19.418-172.285,42.669-289.184c65.445-123.208,142.218-161.182,142.218-161.182s98.252,65.448,137.488,161.182
					c48.634,118.673,40.287,282.072,40.287,282.072L1578.688,258.896z"/>
			</g>
		</g>
		<g id="Forma_1_copia_2_5_">
			<g>
				<path fill="#999999" d="M1816.861,487.57c-125.643-48.552-276.445-51.221-479.967,101.065c0,0,7.771,234.365,302.209,336.523
					c279.969,97.147,482.365-110.189,482.365-110.189S2107.249,599.779,1816.861,487.57z M1629.627,873.122
					c-251.723-87.344-260.729-279.091-260.729-279.091c177.546-119.559,320.835-106.962,426.635-61.522
					c223.363,95.941,244.095,255.038,244.095,255.038S1868.97,956.178,1629.627,873.122z"/>
			</g>
		</g>
		<g id="Forma_1_copia_5_">
			<g>
				<path fill="#999999" d="M858.109,486.444C567.681,598.891,553.469,814.541,553.469,814.541s202.417,207.766,482.416,110.422
					c294.452-102.379,302.229-337.232,302.229-337.232C1134.57,435.122,983.763,437.797,858.109,486.444z M1045.362,872.816
					c-239.374,83.229-410.038-85.758-410.038-85.758s20.718-159.438,244.12-255.577c105.798-45.538,249.11-58.16,426.667,61.65
					C1306.111,593.132,1297.097,785.284,1045.362,872.816z"/>
			</g>
		</g>
	</g>
</g>
<g display="none">
	
		<image display="inline" overflow="visible" width="802" height="300" id="GLAMMY_2_" xlink:href="54680222AF218453.png"  transform="matrix(0.1908 0 0 0.1908 150.9551 50.1885)">
	</image>
	<rect x="146.5" y="94.5" display="inline" fill="#FFFFFF" width="162" height="13"/>
</g>
<g display="none">
	<g id="Logo_HD_4_" display="inline">
		<g id="Forma_1_8_">
			<g>
				<path fill="#F14121" d="M109.281,58.289c-7.249-8.488-14.705-6.426-14.705-6.426s-4.619,9.292,1.997,17.608
					c0.607,0.764,1.223,1.437,1.841,2.038c0.573-0.052,1.34-0.027,2.361,0.116c-0.776-0.677-1.558-1.48-2.328-2.449
					c-5.654-7.109-1.971-14.87-1.971-14.87s5.635-1.18,11.538,5.236c2.794,3.039,4.923,7.733,2.982,15.147
					c0,0-1.015,0.293-2.597,0.213c0.003,0.002,0.007,0.004,0.01,0.006c0.772,0.416,1.48,0.721,1.969,1.03
					c0.744-0.098,1.176-0.231,1.176-0.231C114.297,67.027,112.416,61.962,109.281,58.289z"/>
			</g>
		</g>
		<g id="Forma_1_copia_5_8_">
			<g>
				<path fill="#F14121" d="M127.46,51.874c0,0-7.452-2.066-14.692,6.432c-3.134,3.677-5.011,8.748-2.272,17.436
					c0,0,0.432,0.133,1.176,0.231c0.489-0.31,1.198-0.615,1.972-1.031c0.003-0.001,0.007-0.004,0.01-0.005
					c-1.581,0.081-2.595-0.213-2.595-0.213c-1.94-7.422,0.186-12.122,2.979-15.163c5.896-6.423,11.524-5.242,11.524-5.242
					s3.683,7.77-1.965,14.885c-0.77,0.97-1.551,1.774-2.327,2.452c1.02-0.143,1.785-0.167,2.357-0.116
					c0.618-0.602,1.233-1.276,1.841-2.041C132.076,61.176,127.46,51.874,127.46,51.874z"/>
			</g>
		</g>
		<g id="Forma_1_copia_3_8_">
			<g>
				<path fill="#F76320" d="M122.948,62.876c-4.68,1.172-9.147,4.208-11.951,12.873c0,0,5.078,6.71,15.807,3.625
					c10.197-2.934,11.832-13.19,11.832-13.19S133.766,60.17,122.948,62.876z M125.448,78.045c-9.17,2.638-13.404-2.797-13.404-2.797
					c2.723-7.171,7.175-9.76,11.21-10.613c8.521-1.8,12.418,2.436,12.418,2.436S134.169,75.537,125.448,78.045z"/>
			</g>
		</g>
		<g id="Forma_1_copia_4_8_">
			<g>
				<path fill="#F76320" d="M99.073,62.876c-10.829-2.705-15.702,3.305-15.702,3.305s1.633,10.247,11.844,13.179
					c10.738,3.083,15.822-3.621,15.822-3.621C108.23,67.078,103.759,64.047,99.073,62.876z M96.572,78.031
					c-8.732-2.505-10.235-10.966-10.235-10.966s3.902-4.231,12.43-2.433c4.042,0.852,8.5,3.439,11.222,10.604
					C109.989,75.236,105.752,80.666,96.572,78.031z"/>
			</g>
		</g>
		<g id="Forma_2_8_">
			<g>
				<path fill="#F14121" d="M118.931,56.152c-1.472-6.219-7.893-9.675-7.893-9.675s-6.268,3.918-7.553,9.675
					c-0.991,4.443-1.103,7.978-1.103,7.978l2.291,1.443c0,0-0.299-5.85,1.444-10.1c1.403-3.427,4.921-5.77,4.921-5.77
					s2.748,1.359,5.093,5.77c2.222,4.187,1.527,10.355,1.527,10.355l1.951-1.868C119.609,63.96,119.971,60.543,118.931,56.152z"/>
			</g>
		</g>
		<g id="Forma_1_copia_2_8_">
			<g>
				<path fill="#FA9B23" d="M93.855,72.316c-10.399,4.019-10.907,11.723-10.907,11.723s7.247,7.424,17.271,3.945
					c10.541-3.658,10.819-12.048,10.819-12.048C103.752,70.483,98.351,70.579,93.855,72.316z M100.557,86.122
					c-8.57,2.974-14.68-3.064-14.68-3.064s0.742-5.696,8.739-9.131c3.79-1.627,8.919-2.078,15.278,2.203
					C109.894,76.129,109.57,82.994,100.557,86.122z"/>
			</g>
		</g>
		<g id="Forma_1_copia_8_">
			<g>
				<path fill="#FA9B23" d="M128.182,72.276c-4.498-1.741-9.9-1.837-17.187,3.626c0,0,0.278,8.409,10.822,12.075
					c10.026,3.485,17.271-3.954,17.271-3.954S138.577,76.302,128.182,72.276z M121.477,86.11
					c-9.013-3.135-9.336-10.014-9.336-10.014c6.356-4.29,11.487-3.838,15.277-2.208c7.999,3.443,8.74,9.151,8.74,9.151
					S130.049,89.09,121.477,86.11z"/>
			</g>
		</g>
	</g>
	<rect x="82.183" y="280.855" display="inline" fill="none" width="631.552" height="126.788"/>
	<text transform="matrix(1 0 0 1 82.1826 322.2954)" display="inline"><tspan x="0" y="0" fill="#424242" enable-background="new    " font-family="'Poppins-Bold'" font-size="56">Más éxito para </tspan><tspan x="0" y="66" fill="#424242" enable-background="new    " font-family="'Poppins-Bold'" font-size="56">tu evento</tspan></text>
	<rect x="82.179" y="438.929" display="inline" fill="none" width="540.646" height="251.307"/>
	<text transform="matrix(1 0 0 1 82.1787 457.4297)" display="inline"><tspan x="0" y="0" fill="#838383" font-family="'Poppins-Regular'" font-size="25">Somos una joven agencia de modelos y </tspan><tspan x="0" y="38" fill="#838383" font-family="'Poppins-Regular'" font-size="25">edecanes ubicada en Matagalpa, </tspan><tspan x="0" y="76" fill="#838383" font-family="'Poppins-Regular'" font-size="25">Nicaragua. Te ayudamos a presentar tu </tspan><tspan x="0" y="114" fill="#838383" font-family="'Poppins-Regular'" font-size="25">marca o evento de manera exitosa, </tspan><tspan x="0" y="152" fill="#838383" font-family="'Poppins-Regular'" font-size="25">encantar a tus clientes y comunicarles </tspan><tspan x="0" y="190" fill="#838383" font-family="'Poppins-Regular'" font-size="25">correctamente el mensaje de tus </tspan><tspan x="0" y="228" fill="#838383" font-family="'Poppins-Regular'" font-size="25">productos o servicios. </tspan></text>
	<g display="inline">
		<linearGradient id="SVGID_7_" gradientUnits="userSpaceOnUse" x1="82.5" y1="785" x2="312.5" y2="785">
			<stop  offset="0" style="stop-color:#F14121"/>
			<stop  offset="0.1147" style="stop-color:#F76320"/>
			<stop  offset="1" style="stop-color:#FA9B23"/>
		</linearGradient>
		<path fill="url(#SVGID_7_)" d="M312.5,799.299c0,7.656-7.001,14.201-15.725,14.201H97.954c-8.725,0-15.454-6.545-15.454-14.201
			V770.41c0-7.657,6.729-13.91,15.454-13.91h198.821c8.724,0,15.725,6.253,15.725,13.91V799.299z"/>
		<rect x="103.205" y="772.336" fill="none" width="188.595" height="28.672"/>
		<text transform="matrix(1 0 0 1 113.2964 793.7715)" fill="#FFFFFF" font-family="'Poppins-Bold'" font-size="28.967">Conócenos</text>
	</g>
	<rect x="1209.7" y="57.907" display="inline" fill="none" width="685.671" height="22.139"/>
	<text transform="matrix(1 0 0 1 1209.7002 74.4312)" display="inline"><tspan x="0" y="0" fill="#FFFFFF" font-family="'Poppins-Regular'" font-size="22.3287">inicio                servicios                 portafolio</tspan><tspan x="445.865" y="0" fill="#FFFFFF" font-family="'Poppins-Bold'" font-size="22.3287"> </tspan><tspan x="450.331" y="0" fill="#2F45FF" font-family="'Poppins-Bold'" font-size="22.3287">            </tspan><tspan x="503.921" y="0" fill="#FFFFFF" font-family="'Poppins-Bold'" font-size="22.3287">  contacto</tspan></text>
	<path display="inline" fill="none" stroke="#FFFFFF" stroke-miterlimit="10" d="M1844.498,75.495c0,6.627-5.373,12-12,12h-118
		c-6.627,0-12-5.373-12-12v-16c0-6.627,5.373-12,12-12h118c6.627,0,12,5.373,12,12V75.495z"/>
	<g display="inline">
		
			<image overflow="visible" width="808" height="236" id="LOGO1" xlink:href="54680222AF218451.png"  transform="matrix(0.1917 0 0 0.1917 144.9922 49.0737)">
		</image>
	</g>
</g>
</svg>
