<?xml version="1.0" encoding="utf-8"?>
<!-- Generator: Adobe Illustrator 16.0.0, SVG Export Plug-In . SVG Version: 6.00 Build 0)  -->
<!DOCTYPE svg PUBLIC "-//W3C//DTD SVG 1.1//EN" "http://www.w3.org/Graphics/SVG/1.1/DTD/svg11.dtd">
<svg version="1.1" id="Layer_1" xmlns="http://www.w3.org/2000/svg" xmlns:xlink="http://www.w3.org/1999/xlink" x="0px" y="0px"
	 width="200px" height="200px" viewBox="0 0 200 200" enable-background="new 0 0 200 200" xml:space="preserve">
<g id="YouTube_1_">
</g>
<g id="Facebook_2_">
	<circle id="back_20_" fill="#838383" cx="100" cy="99.999" r="100"/>
	<path id="Facebook_4_" fill="#FFFFFF" d="M146.705,47.5H53.296c-3.202,0-5.796,2.592-5.796,5.795v93.41
		c0,3.201,2.594,5.795,5.796,5.795h50.287v-40.66H89.899V95.992h13.684V84.306c0-13.562,8.284-20.946,20.383-20.946
		c5.796,0,10.775,0.43,12.227,0.624v14.173l-8.389,0.004c-6.582,0-7.854,3.127-7.854,7.713v10.119h15.69l-2.043,15.848H119.95v40.66
		h26.755c3.202,0,5.795-2.594,5.795-5.795v-93.41C152.5,50.092,149.907,47.5,146.705,47.5z"/>
</g>
</svg>
