<?xml version="1.0" encoding="utf-8"?>
<!-- Generator: Adobe Illustrator 16.0.0, SVG Export Plug-In . SVG Version: 6.00 Build 0)  -->
<!DOCTYPE svg PUBLIC "-//W3C//DTD SVG 1.1//EN" "http://www.w3.org/Graphics/SVG/1.1/DTD/svg11.dtd">
<svg version="1.1" id="Layer_1" xmlns="http://www.w3.org/2000/svg" xmlns:xlink="http://www.w3.org/1999/xlink" x="0px" y="0px"
	 width="200px" height="200px" viewBox="0 0 200 200" enable-background="new 0 0 200 200" xml:space="preserve">
<g id="YouTube_1_">
</g>
<g id="Instagram_1_">
	<circle id="back_21_" fill="#838383" cx="100" cy="100" r="100"/>
	<path id="Instagram_4_" fill-rule="evenodd" clip-rule="evenodd" fill="#FFFFFF" d="M140.387,91.918h-9.141
		c0.666,2.587,1.059,5.289,1.059,8.082c0,17.846-14.465,32.311-32.307,32.311c-17.842,0-32.307-14.465-32.307-32.311
		c0-2.793,0.395-5.495,1.062-8.082h-9.143v44.43c0,2.229,1.809,4.035,4.043,4.035h72.69c2.236,0,4.043-1.807,4.043-4.035V91.918z
		 M140.387,63.65c0-2.229-1.807-4.037-4.043-4.037H124.23c-2.23,0-4.039,1.809-4.039,4.037v12.118c0,2.229,1.809,4.038,4.039,4.038
		h12.113c2.236,0,4.043-1.81,4.043-4.038V63.65z M99.998,79.807c-11.152,0-20.193,9.039-20.193,20.193
		c0,11.15,9.041,20.195,20.193,20.195c11.157,0,20.194-9.045,20.194-20.195C120.191,88.846,111.154,79.807,99.998,79.807
		 M140.387,152.5H59.611c-6.689,0-12.113-5.428-12.113-12.117v-80.77c0-6.69,5.424-12.114,12.113-12.114h80.776
		c6.691,0,12.111,5.424,12.111,12.114v80.77C152.498,147.072,147.078,152.5,140.387,152.5"/>
</g>
</svg>
