<?xml version="1.0" encoding="utf-8"?>
<!-- Generator: Adobe Illustrator 16.0.0, SVG Export Plug-In . SVG Version: 6.00 Build 0)  -->
<!DOCTYPE svg PUBLIC "-//W3C//DTD SVG 1.1//EN" "http://www.w3.org/Graphics/SVG/1.1/DTD/svg11.dtd">
<svg version="1.1" id="Layer_1" xmlns="http://www.w3.org/2000/svg" xmlns:xlink="http://www.w3.org/1999/xlink" x="0px" y="0px"
	 width="200px" height="200px" viewBox="0 0 200 200" enable-background="new 0 0 200 200" xml:space="preserve">
<g>
	<path id="back_19_" fill="#838383" d="M200,100c0,55.228-44.767,100-100.001,100C44.772,200,0,155.228,0,100
		C0,44.771,44.772,0,99.999,0C155.233,0,200,44.771,200,100z"/>
	<g>
		<path fill="#FFFFFF" d="M127.489,40H72.539c-3.405,0-6.184,2.75-6.184,6.151v107.665c0,3.415,2.779,6.184,6.184,6.184h54.951
			c3.421,0,6.156-2.769,6.156-6.184V46.151C133.646,42.75,130.91,40,127.489,40z M99.619,156.857c-3.532,0-6.395-2.881-6.395-6.423
			c0-3.54,2.863-6.391,6.395-6.391c3.557,0,6.406,2.851,6.406,6.391C106.025,153.977,103.176,156.857,99.619,156.857z
			 M126.266,135.755c0,2.674-2.158,4.837-4.838,4.837H78.599c-2.693,0-4.813-2.163-4.813-4.837V51.84
			c0-2.663,2.12-4.839,4.813-4.839h42.829c2.68,0,4.838,2.176,4.838,4.839V135.755z"/>
	</g>
</g>
<g id="YouTube_1_">
</g>
</svg>
